M48
; DRILL file {KiCad (5.1.4-0)} date 2020年07月05日 日曜日 15:44:49
; FORMAT={3:3/ absolute / metric / suppress leading zeros}
; #@! TF.CreationDate,2020-07-05T15:44:49+08:00
; #@! TF.GenerationSoftware,Kicad,Pcbnew,(5.1.4-0)
FMAT,2
METRIC,TZ
T1C0.300
T2C0.400
T3C0.800
T4C0.900
T5C1.000
T6C1.100
T7C1.500
T8C3.000
%
G90
G05
T1
X60000Y51000
T2
X10000Y67000
X12000Y45000
X35274Y52458
X47000Y58000
X49067Y41352
X60080Y43418
X60844Y52071
X60856Y15253
X65500Y54000
X71197Y17711
X74500Y65500
X75000Y32000
X83000Y37000
X88250Y52750
X92000Y56000
X94250Y48000
T3
X7500Y70120
X7500Y62500
X10040Y70120
X10040Y62500
X12580Y70120
X12580Y62500
X15120Y70120
X15120Y62500
X17660Y70120
X17660Y62500
X55000Y62500
X55000Y47260
X57540Y62500
X57540Y47260
X60080Y62500
X60080Y47260
X62620Y62500
X62620Y47260
X65160Y62500
X65160Y47260
X67700Y62500
X67700Y47260
X70240Y62500
X70240Y47260
X72780Y62500
X72780Y47260
X75320Y62500
X75320Y47260
X77860Y62500
X77860Y47260
X80400Y62500
X80400Y47260
X82940Y62500
X82940Y47260
X85480Y62500
X85480Y47260
X88020Y62500
X88020Y47260
X90560Y62500
X90560Y47260
X85520Y54880
X88020Y54880
T4
X71760Y68850
X73760Y68850
X75760Y68850
T5
X42300Y68850
X44840Y68850
X4000Y41000
X4000Y38460
X4000Y35920
X4000Y33380
X4000Y30840
X62620Y70120
X62620Y67580
X57540Y70120
X57540Y67580
X75320Y57420
X75320Y54880
X75320Y52340
X80400Y57420
X80400Y54880
X80400Y52340
X85480Y66310
X88020Y66310
X90560Y66310
X93100Y66310
X22700Y57500
X25200Y57500
X27700Y57500
X96000Y41000
X96000Y38460
X96000Y35920
X96000Y33380
X96000Y30840
X7700Y57500
X10200Y57500
X88020Y58690
X85480Y58690
X12700Y57500
X55000Y54880
X55000Y52340
X90560Y58690
X93100Y58690
X37700Y57500
X40200Y57500
X42700Y57500
T6
X75250Y11750
X75250Y5250
X79750Y11750
X79750Y5250
X42250Y11750
X42250Y5250
X46750Y11750
X46750Y5250
X20250Y11750
X20250Y5250
X24750Y11750
X24750Y5250
X64250Y5250
X68750Y5250
X64250Y11750
X68750Y11750
X9250Y11750
X9250Y5250
X13750Y11750
X13750Y5250
X31250Y11750
X31250Y5250
X35750Y11750
X35750Y5250
X86250Y11750
X86250Y5250
X90750Y11750
X90750Y5250
X53250Y11750
X53250Y5250
X57750Y11750
X57750Y5250
T7
X22500Y20000
X42990Y20000
X69660Y68850
X77860Y68850
X60000Y20000
X80490Y20000
T8
X11500Y38750
X33500Y38750
X22500Y38750
X88500Y38750
X77500Y38750
X66500Y38750
X44500Y38750
X55500Y38750
T3
G00X25000Y62850
M15
G01X25000Y62150
M16
G05
G00X27500Y62850
M15
G01X27500Y62150
M16
G05
G00X32500Y62850
M15
G01X32500Y62150
M16
G05
G00X35000Y62850
M15
G01X35000Y62150
M16
G05
T5
G00X30500Y67500
M15
G01X29500Y67500
M16
G05
T6
G00X20400Y50350
M15
G01X20400Y49650
M16
G05
G00X30000Y50350
M15
G01X30000Y49650
M16
G05
G00X5400Y50350
M15
G01X5400Y49650
M16
G05
G00X15000Y50350
M15
G01X15000Y49650
M16
G05
G00X35400Y50350
M15
G01X35400Y49650
M16
G05
G00X45000Y50350
M15
G01X45000Y49650
M16
G05
T0
M30
