G04 #@! TF.GenerationSoftware,KiCad,Pcbnew,(5.1.4-0)*
G04 #@! TF.CreationDate,2020-07-05T15:44:46+08:00*
G04 #@! TF.ProjectId,pocketSynth,706f636b-6574-4537-996e-74682e6b6963,rev?*
G04 #@! TF.SameCoordinates,PX510ff40PY9896800*
G04 #@! TF.FileFunction,Copper,L2,Bot*
G04 #@! TF.FilePolarity,Positive*
%FSLAX46Y46*%
G04 Gerber Fmt 4.6, Leading zero omitted, Abs format (unit mm)*
G04 Created by KiCad (PCBNEW (5.1.4-0)) date 2020-07-05 15:44:46*
%MOMM*%
%LPD*%
G04 APERTURE LIST*
%ADD10R,1.600000X1.600000*%
%ADD11O,1.600000X1.600000*%
%ADD12C,3.000000*%
%ADD13R,3.000000X3.000000*%
%ADD14R,1.700000X1.700000*%
%ADD15O,1.700000X1.700000*%
%ADD16O,4.000000X3.000000*%
%ADD17O,1.800000X2.800000*%
%ADD18C,1.600000*%
%ADD19O,2.720000X3.240000*%
%ADD20C,1.800000*%
%ADD21R,1.800000X1.800000*%
%ADD22R,1.500000X2.500000*%
%ADD23O,1.500000X2.500000*%
%ADD24O,2.200000X3.500000*%
%ADD25C,0.100000*%
%ADD26C,0.950000*%
%ADD27C,2.000000*%
%ADD28C,0.800000*%
%ADD29C,0.600000*%
%ADD30C,0.250000*%
%ADD31C,0.500000*%
%ADD32C,0.254000*%
G04 APERTURE END LIST*
D10*
X55000000Y62500000D03*
D11*
X88020000Y47260000D03*
X57540000Y62500000D03*
X85480000Y47260000D03*
X60080000Y62500000D03*
X82940000Y47260000D03*
X62620000Y62500000D03*
X80400000Y47260000D03*
X65160000Y62500000D03*
X77860000Y47260000D03*
X67700000Y62500000D03*
X75320000Y47260000D03*
X70240000Y62500000D03*
X72780000Y47260000D03*
X72780000Y62500000D03*
X70240000Y47260000D03*
X75320000Y62500000D03*
X67700000Y47260000D03*
X77860000Y62500000D03*
X65160000Y47260000D03*
X80400000Y62500000D03*
X62620000Y47260000D03*
X82940000Y62500000D03*
X60080000Y47260000D03*
X85480000Y62500000D03*
X57540000Y47260000D03*
X88020000Y62500000D03*
X55000000Y47260000D03*
X90560000Y62500000D03*
X90560000Y47260000D03*
D12*
X42990000Y20000000D03*
D13*
X22500000Y20000000D03*
X60000000Y20000000D03*
D12*
X80490000Y20000000D03*
D14*
X96000000Y41000000D03*
D15*
X96000000Y38460000D03*
X96000000Y35920000D03*
X96000000Y33380000D03*
X96000000Y30840000D03*
X4000000Y30840000D03*
X4000000Y33380000D03*
X4000000Y35920000D03*
X4000000Y38460000D03*
D14*
X4000000Y41000000D03*
D15*
X42300000Y68850000D03*
D14*
X44840000Y68850000D03*
X62620000Y70120000D03*
D15*
X62620000Y67580000D03*
X57540000Y67580000D03*
D14*
X57540000Y70120000D03*
X75320000Y52340000D03*
D15*
X75320000Y54880000D03*
X75320000Y57420000D03*
X80400000Y57420000D03*
X80400000Y54880000D03*
D14*
X80400000Y52340000D03*
X85480000Y58690000D03*
D15*
X88020000Y58690000D03*
X90560000Y58690000D03*
X93100000Y58690000D03*
X93100000Y66310000D03*
X90560000Y66310000D03*
X88020000Y66310000D03*
D14*
X85480000Y66310000D03*
X55000000Y54880000D03*
D15*
X55000000Y52340000D03*
D16*
X30000000Y67500000D03*
D17*
X35000000Y62500000D03*
X32500000Y62500000D03*
X27500000Y62500000D03*
X25000000Y62500000D03*
D18*
X88020000Y54880000D03*
X85520000Y54880000D03*
D10*
X7500000Y62500000D03*
D11*
X17660000Y70120000D03*
X10040000Y62500000D03*
X15120000Y70120000D03*
X12580000Y62500000D03*
X12580000Y70120000D03*
X15120000Y62500000D03*
X10040000Y70120000D03*
X17660000Y62500000D03*
X7500000Y70120000D03*
D19*
X45000000Y50000000D03*
X35400000Y50000000D03*
D20*
X37700000Y57500000D03*
X40200000Y57500000D03*
D21*
X42700000Y57500000D03*
X27700000Y57500000D03*
D20*
X25200000Y57500000D03*
X22700000Y57500000D03*
D19*
X20400000Y50000000D03*
X30000000Y50000000D03*
D21*
X12700000Y57500000D03*
D20*
X10200000Y57500000D03*
X7700000Y57500000D03*
D19*
X5400000Y50000000D03*
X15000000Y50000000D03*
D22*
X75760000Y68850000D03*
D23*
X73760000Y68850000D03*
X71760000Y68850000D03*
D24*
X77860000Y68850000D03*
X69660000Y68850000D03*
D25*
G36*
X38750779Y63503856D02*
G01*
X38773834Y63500437D01*
X38796443Y63494773D01*
X38818387Y63486921D01*
X38839457Y63476956D01*
X38859448Y63464974D01*
X38878168Y63451090D01*
X38895438Y63435438D01*
X38911090Y63418168D01*
X38924974Y63399448D01*
X38936956Y63379457D01*
X38946921Y63358387D01*
X38954773Y63336443D01*
X38960437Y63313834D01*
X38963856Y63290779D01*
X38965000Y63267500D01*
X38965000Y62692500D01*
X38963856Y62669221D01*
X38960437Y62646166D01*
X38954773Y62623557D01*
X38946921Y62601613D01*
X38936956Y62580543D01*
X38924974Y62560552D01*
X38911090Y62541832D01*
X38895438Y62524562D01*
X38878168Y62508910D01*
X38859448Y62495026D01*
X38839457Y62483044D01*
X38818387Y62473079D01*
X38796443Y62465227D01*
X38773834Y62459563D01*
X38750779Y62456144D01*
X38727500Y62455000D01*
X38252500Y62455000D01*
X38229221Y62456144D01*
X38206166Y62459563D01*
X38183557Y62465227D01*
X38161613Y62473079D01*
X38140543Y62483044D01*
X38120552Y62495026D01*
X38101832Y62508910D01*
X38084562Y62524562D01*
X38068910Y62541832D01*
X38055026Y62560552D01*
X38043044Y62580543D01*
X38033079Y62601613D01*
X38025227Y62623557D01*
X38019563Y62646166D01*
X38016144Y62669221D01*
X38015000Y62692500D01*
X38015000Y63267500D01*
X38016144Y63290779D01*
X38019563Y63313834D01*
X38025227Y63336443D01*
X38033079Y63358387D01*
X38043044Y63379457D01*
X38055026Y63399448D01*
X38068910Y63418168D01*
X38084562Y63435438D01*
X38101832Y63451090D01*
X38120552Y63464974D01*
X38140543Y63476956D01*
X38161613Y63486921D01*
X38183557Y63494773D01*
X38206166Y63500437D01*
X38229221Y63503856D01*
X38252500Y63505000D01*
X38727500Y63505000D01*
X38750779Y63503856D01*
X38750779Y63503856D01*
G37*
D26*
X38490000Y62980000D03*
D25*
G36*
X38750779Y61753856D02*
G01*
X38773834Y61750437D01*
X38796443Y61744773D01*
X38818387Y61736921D01*
X38839457Y61726956D01*
X38859448Y61714974D01*
X38878168Y61701090D01*
X38895438Y61685438D01*
X38911090Y61668168D01*
X38924974Y61649448D01*
X38936956Y61629457D01*
X38946921Y61608387D01*
X38954773Y61586443D01*
X38960437Y61563834D01*
X38963856Y61540779D01*
X38965000Y61517500D01*
X38965000Y60942500D01*
X38963856Y60919221D01*
X38960437Y60896166D01*
X38954773Y60873557D01*
X38946921Y60851613D01*
X38936956Y60830543D01*
X38924974Y60810552D01*
X38911090Y60791832D01*
X38895438Y60774562D01*
X38878168Y60758910D01*
X38859448Y60745026D01*
X38839457Y60733044D01*
X38818387Y60723079D01*
X38796443Y60715227D01*
X38773834Y60709563D01*
X38750779Y60706144D01*
X38727500Y60705000D01*
X38252500Y60705000D01*
X38229221Y60706144D01*
X38206166Y60709563D01*
X38183557Y60715227D01*
X38161613Y60723079D01*
X38140543Y60733044D01*
X38120552Y60745026D01*
X38101832Y60758910D01*
X38084562Y60774562D01*
X38068910Y60791832D01*
X38055026Y60810552D01*
X38043044Y60830543D01*
X38033079Y60851613D01*
X38025227Y60873557D01*
X38019563Y60896166D01*
X38016144Y60919221D01*
X38015000Y60942500D01*
X38015000Y61517500D01*
X38016144Y61540779D01*
X38019563Y61563834D01*
X38025227Y61586443D01*
X38033079Y61608387D01*
X38043044Y61629457D01*
X38055026Y61649448D01*
X38068910Y61668168D01*
X38084562Y61685438D01*
X38101832Y61701090D01*
X38120552Y61714974D01*
X38140543Y61726956D01*
X38161613Y61736921D01*
X38183557Y61744773D01*
X38206166Y61750437D01*
X38229221Y61753856D01*
X38252500Y61755000D01*
X38727500Y61755000D01*
X38750779Y61753856D01*
X38750779Y61753856D01*
G37*
D26*
X38490000Y61230000D03*
D25*
G36*
X71770779Y52863856D02*
G01*
X71793834Y52860437D01*
X71816443Y52854773D01*
X71838387Y52846921D01*
X71859457Y52836956D01*
X71879448Y52824974D01*
X71898168Y52811090D01*
X71915438Y52795438D01*
X71931090Y52778168D01*
X71944974Y52759448D01*
X71956956Y52739457D01*
X71966921Y52718387D01*
X71974773Y52696443D01*
X71980437Y52673834D01*
X71983856Y52650779D01*
X71985000Y52627500D01*
X71985000Y52052500D01*
X71983856Y52029221D01*
X71980437Y52006166D01*
X71974773Y51983557D01*
X71966921Y51961613D01*
X71956956Y51940543D01*
X71944974Y51920552D01*
X71931090Y51901832D01*
X71915438Y51884562D01*
X71898168Y51868910D01*
X71879448Y51855026D01*
X71859457Y51843044D01*
X71838387Y51833079D01*
X71816443Y51825227D01*
X71793834Y51819563D01*
X71770779Y51816144D01*
X71747500Y51815000D01*
X71272500Y51815000D01*
X71249221Y51816144D01*
X71226166Y51819563D01*
X71203557Y51825227D01*
X71181613Y51833079D01*
X71160543Y51843044D01*
X71140552Y51855026D01*
X71121832Y51868910D01*
X71104562Y51884562D01*
X71088910Y51901832D01*
X71075026Y51920552D01*
X71063044Y51940543D01*
X71053079Y51961613D01*
X71045227Y51983557D01*
X71039563Y52006166D01*
X71036144Y52029221D01*
X71035000Y52052500D01*
X71035000Y52627500D01*
X71036144Y52650779D01*
X71039563Y52673834D01*
X71045227Y52696443D01*
X71053079Y52718387D01*
X71063044Y52739457D01*
X71075026Y52759448D01*
X71088910Y52778168D01*
X71104562Y52795438D01*
X71121832Y52811090D01*
X71140552Y52824974D01*
X71160543Y52836956D01*
X71181613Y52846921D01*
X71203557Y52854773D01*
X71226166Y52860437D01*
X71249221Y52863856D01*
X71272500Y52865000D01*
X71747500Y52865000D01*
X71770779Y52863856D01*
X71770779Y52863856D01*
G37*
D26*
X71510000Y52340000D03*
D25*
G36*
X71770779Y54613856D02*
G01*
X71793834Y54610437D01*
X71816443Y54604773D01*
X71838387Y54596921D01*
X71859457Y54586956D01*
X71879448Y54574974D01*
X71898168Y54561090D01*
X71915438Y54545438D01*
X71931090Y54528168D01*
X71944974Y54509448D01*
X71956956Y54489457D01*
X71966921Y54468387D01*
X71974773Y54446443D01*
X71980437Y54423834D01*
X71983856Y54400779D01*
X71985000Y54377500D01*
X71985000Y53802500D01*
X71983856Y53779221D01*
X71980437Y53756166D01*
X71974773Y53733557D01*
X71966921Y53711613D01*
X71956956Y53690543D01*
X71944974Y53670552D01*
X71931090Y53651832D01*
X71915438Y53634562D01*
X71898168Y53618910D01*
X71879448Y53605026D01*
X71859457Y53593044D01*
X71838387Y53583079D01*
X71816443Y53575227D01*
X71793834Y53569563D01*
X71770779Y53566144D01*
X71747500Y53565000D01*
X71272500Y53565000D01*
X71249221Y53566144D01*
X71226166Y53569563D01*
X71203557Y53575227D01*
X71181613Y53583079D01*
X71160543Y53593044D01*
X71140552Y53605026D01*
X71121832Y53618910D01*
X71104562Y53634562D01*
X71088910Y53651832D01*
X71075026Y53670552D01*
X71063044Y53690543D01*
X71053079Y53711613D01*
X71045227Y53733557D01*
X71039563Y53756166D01*
X71036144Y53779221D01*
X71035000Y53802500D01*
X71035000Y54377500D01*
X71036144Y54400779D01*
X71039563Y54423834D01*
X71045227Y54446443D01*
X71053079Y54468387D01*
X71063044Y54489457D01*
X71075026Y54509448D01*
X71088910Y54528168D01*
X71104562Y54545438D01*
X71121832Y54561090D01*
X71140552Y54574974D01*
X71160543Y54586956D01*
X71181613Y54596921D01*
X71203557Y54604773D01*
X71226166Y54610437D01*
X71249221Y54613856D01*
X71272500Y54615000D01*
X71747500Y54615000D01*
X71770779Y54613856D01*
X71770779Y54613856D01*
G37*
D26*
X71510000Y54090000D03*
D25*
G36*
X69230779Y54613856D02*
G01*
X69253834Y54610437D01*
X69276443Y54604773D01*
X69298387Y54596921D01*
X69319457Y54586956D01*
X69339448Y54574974D01*
X69358168Y54561090D01*
X69375438Y54545438D01*
X69391090Y54528168D01*
X69404974Y54509448D01*
X69416956Y54489457D01*
X69426921Y54468387D01*
X69434773Y54446443D01*
X69440437Y54423834D01*
X69443856Y54400779D01*
X69445000Y54377500D01*
X69445000Y53802500D01*
X69443856Y53779221D01*
X69440437Y53756166D01*
X69434773Y53733557D01*
X69426921Y53711613D01*
X69416956Y53690543D01*
X69404974Y53670552D01*
X69391090Y53651832D01*
X69375438Y53634562D01*
X69358168Y53618910D01*
X69339448Y53605026D01*
X69319457Y53593044D01*
X69298387Y53583079D01*
X69276443Y53575227D01*
X69253834Y53569563D01*
X69230779Y53566144D01*
X69207500Y53565000D01*
X68732500Y53565000D01*
X68709221Y53566144D01*
X68686166Y53569563D01*
X68663557Y53575227D01*
X68641613Y53583079D01*
X68620543Y53593044D01*
X68600552Y53605026D01*
X68581832Y53618910D01*
X68564562Y53634562D01*
X68548910Y53651832D01*
X68535026Y53670552D01*
X68523044Y53690543D01*
X68513079Y53711613D01*
X68505227Y53733557D01*
X68499563Y53756166D01*
X68496144Y53779221D01*
X68495000Y53802500D01*
X68495000Y54377500D01*
X68496144Y54400779D01*
X68499563Y54423834D01*
X68505227Y54446443D01*
X68513079Y54468387D01*
X68523044Y54489457D01*
X68535026Y54509448D01*
X68548910Y54528168D01*
X68564562Y54545438D01*
X68581832Y54561090D01*
X68600552Y54574974D01*
X68620543Y54586956D01*
X68641613Y54596921D01*
X68663557Y54604773D01*
X68686166Y54610437D01*
X68709221Y54613856D01*
X68732500Y54615000D01*
X69207500Y54615000D01*
X69230779Y54613856D01*
X69230779Y54613856D01*
G37*
D26*
X68970000Y54090000D03*
D25*
G36*
X69230779Y52863856D02*
G01*
X69253834Y52860437D01*
X69276443Y52854773D01*
X69298387Y52846921D01*
X69319457Y52836956D01*
X69339448Y52824974D01*
X69358168Y52811090D01*
X69375438Y52795438D01*
X69391090Y52778168D01*
X69404974Y52759448D01*
X69416956Y52739457D01*
X69426921Y52718387D01*
X69434773Y52696443D01*
X69440437Y52673834D01*
X69443856Y52650779D01*
X69445000Y52627500D01*
X69445000Y52052500D01*
X69443856Y52029221D01*
X69440437Y52006166D01*
X69434773Y51983557D01*
X69426921Y51961613D01*
X69416956Y51940543D01*
X69404974Y51920552D01*
X69391090Y51901832D01*
X69375438Y51884562D01*
X69358168Y51868910D01*
X69339448Y51855026D01*
X69319457Y51843044D01*
X69298387Y51833079D01*
X69276443Y51825227D01*
X69253834Y51819563D01*
X69230779Y51816144D01*
X69207500Y51815000D01*
X68732500Y51815000D01*
X68709221Y51816144D01*
X68686166Y51819563D01*
X68663557Y51825227D01*
X68641613Y51833079D01*
X68620543Y51843044D01*
X68600552Y51855026D01*
X68581832Y51868910D01*
X68564562Y51884562D01*
X68548910Y51901832D01*
X68535026Y51920552D01*
X68523044Y51940543D01*
X68513079Y51961613D01*
X68505227Y51983557D01*
X68499563Y52006166D01*
X68496144Y52029221D01*
X68495000Y52052500D01*
X68495000Y52627500D01*
X68496144Y52650779D01*
X68499563Y52673834D01*
X68505227Y52696443D01*
X68513079Y52718387D01*
X68523044Y52739457D01*
X68535026Y52759448D01*
X68548910Y52778168D01*
X68564562Y52795438D01*
X68581832Y52811090D01*
X68600552Y52824974D01*
X68620543Y52836956D01*
X68641613Y52846921D01*
X68663557Y52854773D01*
X68686166Y52860437D01*
X68709221Y52863856D01*
X68732500Y52865000D01*
X69207500Y52865000D01*
X69230779Y52863856D01*
X69230779Y52863856D01*
G37*
D26*
X68970000Y52340000D03*
D27*
X9250000Y11750000D03*
X13750000Y11750000D03*
X9250000Y5250000D03*
X13750000Y5250000D03*
X24750000Y5250000D03*
X20250000Y5250000D03*
X24750000Y11750000D03*
X20250000Y11750000D03*
X31250000Y11750000D03*
X35750000Y11750000D03*
X31250000Y5250000D03*
X35750000Y5250000D03*
X46750000Y5250000D03*
X42250000Y5250000D03*
X46750000Y11750000D03*
X42250000Y11750000D03*
X53250000Y11750000D03*
X57750000Y11750000D03*
X53250000Y5250000D03*
X57750000Y5250000D03*
X68750000Y5250000D03*
X64250000Y5250000D03*
X68750000Y11750000D03*
X64250000Y11750000D03*
X75250000Y11750000D03*
X79750000Y11750000D03*
X75250000Y5250000D03*
X79750000Y5250000D03*
X90750000Y5250000D03*
X86250000Y5250000D03*
X90750000Y11750000D03*
X86250000Y11750000D03*
D28*
X47000000Y58000000D03*
D29*
X60000000Y51000000D03*
D28*
X74500000Y65500000D03*
X65500000Y54000000D03*
X88250000Y52750000D03*
X94250000Y48000000D03*
X75000000Y32000000D03*
X83000000Y37000000D03*
X12000000Y45000000D03*
X10000000Y67000000D03*
X92000000Y56000000D03*
X60856200Y15253300D03*
X60844400Y52070700D03*
X71197200Y17710600D03*
X35274200Y52457800D03*
X60080000Y43417600D03*
X49066600Y41352000D03*
D30*
X57540000Y67580000D02*
X57540000Y66404700D01*
X57540000Y66404700D02*
X55000000Y63864700D01*
X55000000Y63864700D02*
X55000000Y62500000D01*
X72780000Y52340000D02*
X75320000Y52340000D01*
X71510000Y52340000D02*
X72780000Y52340000D01*
X72780000Y48385300D02*
X72780000Y52340000D01*
X72780000Y47260000D02*
X72780000Y48385300D01*
X75320000Y54880000D02*
X74144700Y54880000D01*
X74144700Y54880000D02*
X72479700Y53215000D01*
X72479700Y53215000D02*
X69845000Y53215000D01*
X69845000Y53215000D02*
X68970000Y52340000D01*
X68970000Y49655300D02*
X70240000Y48385300D01*
X68970000Y52340000D02*
X68970000Y49655300D01*
X10200000Y57500000D02*
X8963000Y58737000D01*
X8963000Y58737000D02*
X7178100Y58737000D01*
X7178100Y58737000D02*
X6467800Y58026700D01*
X6467800Y58026700D02*
X6467800Y56942800D01*
X6467800Y56942800D02*
X9990100Y53420500D01*
X9990100Y53420500D02*
X45192900Y53420500D01*
X45192900Y53420500D02*
X52480500Y46132900D01*
X52480500Y46132900D02*
X55519000Y46132900D01*
X55519000Y46132900D02*
X56270000Y46883900D01*
X56270000Y46883900D02*
X56270000Y47634700D01*
X56270000Y47634700D02*
X57020700Y48385400D01*
X57020700Y48385400D02*
X67700100Y48385400D01*
X67700100Y48385400D02*
X68970000Y49655300D01*
X70240000Y47260000D02*
X70240000Y48385300D01*
X75320000Y62500000D02*
X75320000Y61374700D01*
X60856200Y15253300D02*
X68812900Y23210000D01*
X68812900Y23210000D02*
X68812900Y37381900D01*
X68812900Y37381900D02*
X76509600Y45078600D01*
X76509600Y45078600D02*
X76509600Y60185100D01*
X76509600Y60185100D02*
X75320000Y61374700D01*
X40200000Y57500000D02*
X41482600Y56217400D01*
X41482600Y56217400D02*
X49633800Y56217400D01*
X49633800Y56217400D02*
X52146600Y53704600D01*
X52146600Y53704600D02*
X59210500Y53704600D01*
X59210500Y53704600D02*
X60844400Y52070700D01*
X77860000Y62500000D02*
X77860000Y61374700D01*
X71197200Y17710600D02*
X71197200Y35037800D01*
X71197200Y35037800D02*
X78985300Y42825900D01*
X78985300Y42825900D02*
X78985300Y60249400D01*
X78985300Y60249400D02*
X77860000Y61374700D01*
X65160000Y47260000D02*
X64034700Y47260000D01*
X35274200Y52457800D02*
X37781800Y52457800D01*
X37781800Y52457800D02*
X44567400Y45672200D01*
X44567400Y45672200D02*
X62728200Y45672200D01*
X62728200Y45672200D02*
X64034700Y46978700D01*
X64034700Y46978700D02*
X64034700Y47260000D01*
X85480000Y58690000D02*
X85480000Y62500000D01*
X85480000Y66310000D02*
X85480000Y62500000D01*
X88020000Y62500000D02*
X88020000Y66310000D01*
X88020000Y58690000D02*
X88020000Y62500000D01*
X88020000Y66310000D02*
X86844700Y66310000D01*
X38490000Y61230000D02*
X47578100Y61230000D01*
X47578100Y61230000D02*
X55292700Y68944600D01*
X55292700Y68944600D02*
X65242700Y68944600D01*
X65242700Y68944600D02*
X67240400Y70942300D01*
X67240400Y70942300D02*
X83020400Y70942300D01*
X83020400Y70942300D02*
X86844700Y67118000D01*
X86844700Y67118000D02*
X86844700Y66310000D01*
X88020000Y54880000D02*
X88020000Y58690000D01*
D31*
X40200000Y55000000D02*
X25000000Y55000000D01*
X22700000Y57500000D02*
X25000000Y55200000D01*
X25000000Y55200000D02*
X25000000Y55000000D01*
X25000000Y55000000D02*
X10200000Y55000000D01*
X10200000Y55000000D02*
X7700000Y57500000D01*
X55000000Y47260000D02*
X54200000Y48060000D01*
X54200000Y48060000D02*
X53940000Y48060000D01*
X53940000Y48060000D02*
X47000000Y55000000D01*
X47000000Y55000000D02*
X40200000Y55000000D01*
X40200000Y55000000D02*
X37700000Y57500000D01*
X71510000Y54090000D02*
X71510000Y68600000D01*
X71510000Y68600000D02*
X71760000Y68850000D01*
X68970000Y54090000D02*
X71510000Y54090000D01*
X55000000Y47260000D02*
X55000000Y49000000D01*
X55000000Y49000000D02*
X56000000Y50000000D01*
X56000000Y50000000D02*
X64880000Y50000000D01*
X64880000Y50000000D02*
X68970000Y54090000D01*
D30*
X90560000Y58690000D02*
X90560000Y62500000D01*
X90560000Y66310000D02*
X90560000Y62500000D01*
X90560000Y47260000D02*
X90560000Y48385300D01*
X93100000Y58690000D02*
X93100000Y50925300D01*
X93100000Y50925300D02*
X90560000Y48385300D01*
X93100000Y66310000D02*
X93100000Y58690000D01*
X4000000Y41000000D02*
X4000000Y42175300D01*
X7500000Y62500000D02*
X7500000Y61374700D01*
X7500000Y61374700D02*
X3666400Y57541100D01*
X3666400Y57541100D02*
X3666400Y42508900D01*
X3666400Y42508900D02*
X4000000Y42175300D01*
X10040000Y62500000D02*
X10040000Y61374700D01*
X10040000Y61374700D02*
X9178500Y61374700D01*
X9178500Y61374700D02*
X6017400Y58213600D01*
X6017400Y58213600D02*
X6017400Y53536900D01*
X6017400Y53536900D02*
X7085700Y52468600D01*
X7085700Y52468600D02*
X7085700Y41913000D01*
X7085700Y41913000D02*
X4808000Y39635300D01*
X4808000Y39635300D02*
X4000000Y39635300D01*
X10602700Y62500000D02*
X10040000Y62500000D01*
X4000000Y38460000D02*
X4000000Y39635300D01*
X10602700Y62500000D02*
X11165300Y62500000D01*
X96000000Y38460000D02*
X96000000Y39635300D01*
X11165300Y62500000D02*
X11165300Y62781400D01*
X11165300Y62781400D02*
X12009200Y63625300D01*
X12009200Y63625300D02*
X12946100Y63625300D01*
X12946100Y63625300D02*
X20758700Y71437900D01*
X20758700Y71437900D02*
X84590700Y71437900D01*
X84590700Y71437900D02*
X89290000Y66738600D01*
X89290000Y66738600D02*
X89290000Y45537300D01*
X89290000Y45537300D02*
X95192000Y39635300D01*
X95192000Y39635300D02*
X96000000Y39635300D01*
X4000000Y33380000D02*
X20495900Y33380000D01*
X20495900Y33380000D02*
X30533500Y43417600D01*
X30533500Y43417600D02*
X60080000Y43417600D01*
X4000000Y30840000D02*
X21031800Y30840000D01*
X21031800Y30840000D02*
X31543800Y41352000D01*
X31543800Y41352000D02*
X49066600Y41352000D01*
X55000000Y54880000D02*
X53824700Y54880000D01*
X27500000Y62500000D02*
X27500000Y60774700D01*
X27500000Y60774700D02*
X28819500Y59455200D01*
X28819500Y59455200D02*
X49249500Y59455200D01*
X49249500Y59455200D02*
X53824700Y54880000D01*
X25000000Y62500000D02*
X25000000Y64225300D01*
X38490000Y62980000D02*
X37244700Y64225300D01*
X37244700Y64225300D02*
X25000000Y64225300D01*
X13750000Y5250000D02*
X13750000Y11750000D01*
X24750000Y11750000D02*
X24750000Y5250000D01*
X35750000Y5250000D02*
X35750000Y11750000D01*
X46750000Y11750000D02*
X46750000Y5250000D01*
X57750000Y5250000D02*
X57750000Y11750000D01*
X68750000Y11750000D02*
X68750000Y5250000D01*
X79750000Y5250000D02*
X79750000Y11750000D01*
X90750000Y11750000D02*
X90750000Y5250000D01*
X7500000Y70120000D02*
X7500000Y68994700D01*
X9250000Y11750000D02*
X2819400Y18180600D01*
X2819400Y18180600D02*
X2819400Y64314100D01*
X2819400Y64314100D02*
X7500000Y68994700D01*
X9250000Y5250000D02*
X9250000Y11750000D01*
X31250000Y5250000D02*
X31250000Y11750000D01*
X53250000Y5250000D02*
X53250000Y11750000D01*
X20250000Y11750000D02*
X20250000Y5250000D01*
X42250000Y11750000D02*
X42250000Y5250000D01*
D32*
G36*
X98873000Y1127000D02*
G01*
X1127000Y1127000D01*
X1127000Y64314100D01*
X2055724Y64314100D01*
X2059401Y64276767D01*
X2059400Y18217922D01*
X2055724Y18180600D01*
X2059400Y18143278D01*
X2059400Y18143268D01*
X2070397Y18031615D01*
X2096050Y17947047D01*
X2113854Y17888354D01*
X2184426Y17756324D01*
X2224271Y17707774D01*
X2279399Y17640599D01*
X2308403Y17616796D01*
X7683823Y12241375D01*
X7677832Y12226912D01*
X7615000Y11911033D01*
X7615000Y11588967D01*
X7677832Y11273088D01*
X7801082Y10975537D01*
X7980013Y10707748D01*
X8207748Y10480013D01*
X8475537Y10301082D01*
X8490001Y10295091D01*
X8490000Y6704909D01*
X8475537Y6698918D01*
X8207748Y6519987D01*
X7980013Y6292252D01*
X7801082Y6024463D01*
X7677832Y5726912D01*
X7615000Y5411033D01*
X7615000Y5088967D01*
X7677832Y4773088D01*
X7801082Y4475537D01*
X7980013Y4207748D01*
X8207748Y3980013D01*
X8475537Y3801082D01*
X8773088Y3677832D01*
X9088967Y3615000D01*
X9411033Y3615000D01*
X9726912Y3677832D01*
X10024463Y3801082D01*
X10292252Y3980013D01*
X10519987Y4207748D01*
X10698918Y4475537D01*
X10822168Y4773088D01*
X10885000Y5088967D01*
X10885000Y5411033D01*
X10822168Y5726912D01*
X10698918Y6024463D01*
X10519987Y6292252D01*
X10292252Y6519987D01*
X10024463Y6698918D01*
X10010000Y6704909D01*
X10010000Y10295091D01*
X10024463Y10301082D01*
X10292252Y10480013D01*
X10519987Y10707748D01*
X10698918Y10975537D01*
X10822168Y11273088D01*
X10885000Y11588967D01*
X10885000Y11911033D01*
X12115000Y11911033D01*
X12115000Y11588967D01*
X12177832Y11273088D01*
X12301082Y10975537D01*
X12480013Y10707748D01*
X12707748Y10480013D01*
X12975537Y10301082D01*
X12990001Y10295091D01*
X12990000Y6704909D01*
X12975537Y6698918D01*
X12707748Y6519987D01*
X12480013Y6292252D01*
X12301082Y6024463D01*
X12177832Y5726912D01*
X12115000Y5411033D01*
X12115000Y5088967D01*
X12177832Y4773088D01*
X12301082Y4475537D01*
X12480013Y4207748D01*
X12707748Y3980013D01*
X12975537Y3801082D01*
X13273088Y3677832D01*
X13588967Y3615000D01*
X13911033Y3615000D01*
X14226912Y3677832D01*
X14524463Y3801082D01*
X14792252Y3980013D01*
X15019987Y4207748D01*
X15198918Y4475537D01*
X15322168Y4773088D01*
X15385000Y5088967D01*
X15385000Y5411033D01*
X15322168Y5726912D01*
X15198918Y6024463D01*
X15019987Y6292252D01*
X14792252Y6519987D01*
X14524463Y6698918D01*
X14510000Y6704909D01*
X14510000Y10295091D01*
X14524463Y10301082D01*
X14792252Y10480013D01*
X15019987Y10707748D01*
X15198918Y10975537D01*
X15322168Y11273088D01*
X15385000Y11588967D01*
X15385000Y11911033D01*
X18615000Y11911033D01*
X18615000Y11588967D01*
X18677832Y11273088D01*
X18801082Y10975537D01*
X18980013Y10707748D01*
X19207748Y10480013D01*
X19475537Y10301082D01*
X19490000Y10295091D01*
X19490001Y6704909D01*
X19475537Y6698918D01*
X19207748Y6519987D01*
X18980013Y6292252D01*
X18801082Y6024463D01*
X18677832Y5726912D01*
X18615000Y5411033D01*
X18615000Y5088967D01*
X18677832Y4773088D01*
X18801082Y4475537D01*
X18980013Y4207748D01*
X19207748Y3980013D01*
X19475537Y3801082D01*
X19773088Y3677832D01*
X20088967Y3615000D01*
X20411033Y3615000D01*
X20726912Y3677832D01*
X21024463Y3801082D01*
X21292252Y3980013D01*
X21519987Y4207748D01*
X21698918Y4475537D01*
X21822168Y4773088D01*
X21885000Y5088967D01*
X21885000Y5411033D01*
X21822168Y5726912D01*
X21698918Y6024463D01*
X21519987Y6292252D01*
X21292252Y6519987D01*
X21024463Y6698918D01*
X21010000Y6704909D01*
X21010000Y10295091D01*
X21024463Y10301082D01*
X21292252Y10480013D01*
X21519987Y10707748D01*
X21698918Y10975537D01*
X21822168Y11273088D01*
X21885000Y11588967D01*
X21885000Y11911033D01*
X23115000Y11911033D01*
X23115000Y11588967D01*
X23177832Y11273088D01*
X23301082Y10975537D01*
X23480013Y10707748D01*
X23707748Y10480013D01*
X23975537Y10301082D01*
X23990000Y10295091D01*
X23990001Y6704909D01*
X23975537Y6698918D01*
X23707748Y6519987D01*
X23480013Y6292252D01*
X23301082Y6024463D01*
X23177832Y5726912D01*
X23115000Y5411033D01*
X23115000Y5088967D01*
X23177832Y4773088D01*
X23301082Y4475537D01*
X23480013Y4207748D01*
X23707748Y3980013D01*
X23975537Y3801082D01*
X24273088Y3677832D01*
X24588967Y3615000D01*
X24911033Y3615000D01*
X25226912Y3677832D01*
X25524463Y3801082D01*
X25792252Y3980013D01*
X26019987Y4207748D01*
X26198918Y4475537D01*
X26322168Y4773088D01*
X26385000Y5088967D01*
X26385000Y5411033D01*
X26322168Y5726912D01*
X26198918Y6024463D01*
X26019987Y6292252D01*
X25792252Y6519987D01*
X25524463Y6698918D01*
X25510000Y6704909D01*
X25510000Y10295091D01*
X25524463Y10301082D01*
X25792252Y10480013D01*
X26019987Y10707748D01*
X26198918Y10975537D01*
X26322168Y11273088D01*
X26385000Y11588967D01*
X26385000Y11911033D01*
X29615000Y11911033D01*
X29615000Y11588967D01*
X29677832Y11273088D01*
X29801082Y10975537D01*
X29980013Y10707748D01*
X30207748Y10480013D01*
X30475537Y10301082D01*
X30490001Y10295091D01*
X30490000Y6704909D01*
X30475537Y6698918D01*
X30207748Y6519987D01*
X29980013Y6292252D01*
X29801082Y6024463D01*
X29677832Y5726912D01*
X29615000Y5411033D01*
X29615000Y5088967D01*
X29677832Y4773088D01*
X29801082Y4475537D01*
X29980013Y4207748D01*
X30207748Y3980013D01*
X30475537Y3801082D01*
X30773088Y3677832D01*
X31088967Y3615000D01*
X31411033Y3615000D01*
X31726912Y3677832D01*
X32024463Y3801082D01*
X32292252Y3980013D01*
X32519987Y4207748D01*
X32698918Y4475537D01*
X32822168Y4773088D01*
X32885000Y5088967D01*
X32885000Y5411033D01*
X32822168Y5726912D01*
X32698918Y6024463D01*
X32519987Y6292252D01*
X32292252Y6519987D01*
X32024463Y6698918D01*
X32010000Y6704909D01*
X32010000Y10295091D01*
X32024463Y10301082D01*
X32292252Y10480013D01*
X32519987Y10707748D01*
X32698918Y10975537D01*
X32822168Y11273088D01*
X32885000Y11588967D01*
X32885000Y11911033D01*
X34115000Y11911033D01*
X34115000Y11588967D01*
X34177832Y11273088D01*
X34301082Y10975537D01*
X34480013Y10707748D01*
X34707748Y10480013D01*
X34975537Y10301082D01*
X34990001Y10295091D01*
X34990000Y6704909D01*
X34975537Y6698918D01*
X34707748Y6519987D01*
X34480013Y6292252D01*
X34301082Y6024463D01*
X34177832Y5726912D01*
X34115000Y5411033D01*
X34115000Y5088967D01*
X34177832Y4773088D01*
X34301082Y4475537D01*
X34480013Y4207748D01*
X34707748Y3980013D01*
X34975537Y3801082D01*
X35273088Y3677832D01*
X35588967Y3615000D01*
X35911033Y3615000D01*
X36226912Y3677832D01*
X36524463Y3801082D01*
X36792252Y3980013D01*
X37019987Y4207748D01*
X37198918Y4475537D01*
X37322168Y4773088D01*
X37385000Y5088967D01*
X37385000Y5411033D01*
X37322168Y5726912D01*
X37198918Y6024463D01*
X37019987Y6292252D01*
X36792252Y6519987D01*
X36524463Y6698918D01*
X36510000Y6704909D01*
X36510000Y10295091D01*
X36524463Y10301082D01*
X36792252Y10480013D01*
X37019987Y10707748D01*
X37198918Y10975537D01*
X37322168Y11273088D01*
X37385000Y11588967D01*
X37385000Y11911033D01*
X40615000Y11911033D01*
X40615000Y11588967D01*
X40677832Y11273088D01*
X40801082Y10975537D01*
X40980013Y10707748D01*
X41207748Y10480013D01*
X41475537Y10301082D01*
X41490000Y10295091D01*
X41490001Y6704909D01*
X41475537Y6698918D01*
X41207748Y6519987D01*
X40980013Y6292252D01*
X40801082Y6024463D01*
X40677832Y5726912D01*
X40615000Y5411033D01*
X40615000Y5088967D01*
X40677832Y4773088D01*
X40801082Y4475537D01*
X40980013Y4207748D01*
X41207748Y3980013D01*
X41475537Y3801082D01*
X41773088Y3677832D01*
X42088967Y3615000D01*
X42411033Y3615000D01*
X42726912Y3677832D01*
X43024463Y3801082D01*
X43292252Y3980013D01*
X43519987Y4207748D01*
X43698918Y4475537D01*
X43822168Y4773088D01*
X43885000Y5088967D01*
X43885000Y5411033D01*
X43822168Y5726912D01*
X43698918Y6024463D01*
X43519987Y6292252D01*
X43292252Y6519987D01*
X43024463Y6698918D01*
X43010000Y6704909D01*
X43010000Y10295091D01*
X43024463Y10301082D01*
X43292252Y10480013D01*
X43519987Y10707748D01*
X43698918Y10975537D01*
X43822168Y11273088D01*
X43885000Y11588967D01*
X43885000Y11911033D01*
X45115000Y11911033D01*
X45115000Y11588967D01*
X45177832Y11273088D01*
X45301082Y10975537D01*
X45480013Y10707748D01*
X45707748Y10480013D01*
X45975537Y10301082D01*
X45990000Y10295091D01*
X45990001Y6704909D01*
X45975537Y6698918D01*
X45707748Y6519987D01*
X45480013Y6292252D01*
X45301082Y6024463D01*
X45177832Y5726912D01*
X45115000Y5411033D01*
X45115000Y5088967D01*
X45177832Y4773088D01*
X45301082Y4475537D01*
X45480013Y4207748D01*
X45707748Y3980013D01*
X45975537Y3801082D01*
X46273088Y3677832D01*
X46588967Y3615000D01*
X46911033Y3615000D01*
X47226912Y3677832D01*
X47524463Y3801082D01*
X47792252Y3980013D01*
X48019987Y4207748D01*
X48198918Y4475537D01*
X48322168Y4773088D01*
X48385000Y5088967D01*
X48385000Y5411033D01*
X48322168Y5726912D01*
X48198918Y6024463D01*
X48019987Y6292252D01*
X47792252Y6519987D01*
X47524463Y6698918D01*
X47510000Y6704909D01*
X47510000Y10295091D01*
X47524463Y10301082D01*
X47792252Y10480013D01*
X48019987Y10707748D01*
X48198918Y10975537D01*
X48322168Y11273088D01*
X48385000Y11588967D01*
X48385000Y11911033D01*
X51615000Y11911033D01*
X51615000Y11588967D01*
X51677832Y11273088D01*
X51801082Y10975537D01*
X51980013Y10707748D01*
X52207748Y10480013D01*
X52475537Y10301082D01*
X52490001Y10295091D01*
X52490000Y6704909D01*
X52475537Y6698918D01*
X52207748Y6519987D01*
X51980013Y6292252D01*
X51801082Y6024463D01*
X51677832Y5726912D01*
X51615000Y5411033D01*
X51615000Y5088967D01*
X51677832Y4773088D01*
X51801082Y4475537D01*
X51980013Y4207748D01*
X52207748Y3980013D01*
X52475537Y3801082D01*
X52773088Y3677832D01*
X53088967Y3615000D01*
X53411033Y3615000D01*
X53726912Y3677832D01*
X54024463Y3801082D01*
X54292252Y3980013D01*
X54519987Y4207748D01*
X54698918Y4475537D01*
X54822168Y4773088D01*
X54885000Y5088967D01*
X54885000Y5411033D01*
X54822168Y5726912D01*
X54698918Y6024463D01*
X54519987Y6292252D01*
X54292252Y6519987D01*
X54024463Y6698918D01*
X54010000Y6704909D01*
X54010000Y10295091D01*
X54024463Y10301082D01*
X54292252Y10480013D01*
X54519987Y10707748D01*
X54698918Y10975537D01*
X54822168Y11273088D01*
X54885000Y11588967D01*
X54885000Y11911033D01*
X56115000Y11911033D01*
X56115000Y11588967D01*
X56177832Y11273088D01*
X56301082Y10975537D01*
X56480013Y10707748D01*
X56707748Y10480013D01*
X56975537Y10301082D01*
X56990001Y10295091D01*
X56990000Y6704909D01*
X56975537Y6698918D01*
X56707748Y6519987D01*
X56480013Y6292252D01*
X56301082Y6024463D01*
X56177832Y5726912D01*
X56115000Y5411033D01*
X56115000Y5088967D01*
X56177832Y4773088D01*
X56301082Y4475537D01*
X56480013Y4207748D01*
X56707748Y3980013D01*
X56975537Y3801082D01*
X57273088Y3677832D01*
X57588967Y3615000D01*
X57911033Y3615000D01*
X58226912Y3677832D01*
X58524463Y3801082D01*
X58792252Y3980013D01*
X59019987Y4207748D01*
X59198918Y4475537D01*
X59322168Y4773088D01*
X59385000Y5088967D01*
X59385000Y5411033D01*
X62615000Y5411033D01*
X62615000Y5088967D01*
X62677832Y4773088D01*
X62801082Y4475537D01*
X62980013Y4207748D01*
X63207748Y3980013D01*
X63475537Y3801082D01*
X63773088Y3677832D01*
X64088967Y3615000D01*
X64411033Y3615000D01*
X64726912Y3677832D01*
X65024463Y3801082D01*
X65292252Y3980013D01*
X65519987Y4207748D01*
X65698918Y4475537D01*
X65822168Y4773088D01*
X65885000Y5088967D01*
X65885000Y5411033D01*
X65822168Y5726912D01*
X65698918Y6024463D01*
X65519987Y6292252D01*
X65292252Y6519987D01*
X65024463Y6698918D01*
X64726912Y6822168D01*
X64411033Y6885000D01*
X64088967Y6885000D01*
X63773088Y6822168D01*
X63475537Y6698918D01*
X63207748Y6519987D01*
X62980013Y6292252D01*
X62801082Y6024463D01*
X62677832Y5726912D01*
X62615000Y5411033D01*
X59385000Y5411033D01*
X59322168Y5726912D01*
X59198918Y6024463D01*
X59019987Y6292252D01*
X58792252Y6519987D01*
X58524463Y6698918D01*
X58510000Y6704909D01*
X58510000Y10295091D01*
X58524463Y10301082D01*
X58792252Y10480013D01*
X59019987Y10707748D01*
X59198918Y10975537D01*
X59322168Y11273088D01*
X59385000Y11588967D01*
X59385000Y11911033D01*
X62615000Y11911033D01*
X62615000Y11588967D01*
X62677832Y11273088D01*
X62801082Y10975537D01*
X62980013Y10707748D01*
X63207748Y10480013D01*
X63475537Y10301082D01*
X63773088Y10177832D01*
X64088967Y10115000D01*
X64411033Y10115000D01*
X64726912Y10177832D01*
X65024463Y10301082D01*
X65292252Y10480013D01*
X65519987Y10707748D01*
X65698918Y10975537D01*
X65822168Y11273088D01*
X65885000Y11588967D01*
X65885000Y11911033D01*
X67115000Y11911033D01*
X67115000Y11588967D01*
X67177832Y11273088D01*
X67301082Y10975537D01*
X67480013Y10707748D01*
X67707748Y10480013D01*
X67975537Y10301082D01*
X67990000Y10295091D01*
X67990001Y6704909D01*
X67975537Y6698918D01*
X67707748Y6519987D01*
X67480013Y6292252D01*
X67301082Y6024463D01*
X67177832Y5726912D01*
X67115000Y5411033D01*
X67115000Y5088967D01*
X67177832Y4773088D01*
X67301082Y4475537D01*
X67480013Y4207748D01*
X67707748Y3980013D01*
X67975537Y3801082D01*
X68273088Y3677832D01*
X68588967Y3615000D01*
X68911033Y3615000D01*
X69226912Y3677832D01*
X69524463Y3801082D01*
X69792252Y3980013D01*
X70019987Y4207748D01*
X70198918Y4475537D01*
X70322168Y4773088D01*
X70385000Y5088967D01*
X70385000Y5411033D01*
X73615000Y5411033D01*
X73615000Y5088967D01*
X73677832Y4773088D01*
X73801082Y4475537D01*
X73980013Y4207748D01*
X74207748Y3980013D01*
X74475537Y3801082D01*
X74773088Y3677832D01*
X75088967Y3615000D01*
X75411033Y3615000D01*
X75726912Y3677832D01*
X76024463Y3801082D01*
X76292252Y3980013D01*
X76519987Y4207748D01*
X76698918Y4475537D01*
X76822168Y4773088D01*
X76885000Y5088967D01*
X76885000Y5411033D01*
X76822168Y5726912D01*
X76698918Y6024463D01*
X76519987Y6292252D01*
X76292252Y6519987D01*
X76024463Y6698918D01*
X75726912Y6822168D01*
X75411033Y6885000D01*
X75088967Y6885000D01*
X74773088Y6822168D01*
X74475537Y6698918D01*
X74207748Y6519987D01*
X73980013Y6292252D01*
X73801082Y6024463D01*
X73677832Y5726912D01*
X73615000Y5411033D01*
X70385000Y5411033D01*
X70322168Y5726912D01*
X70198918Y6024463D01*
X70019987Y6292252D01*
X69792252Y6519987D01*
X69524463Y6698918D01*
X69510000Y6704909D01*
X69510000Y10295091D01*
X69524463Y10301082D01*
X69792252Y10480013D01*
X70019987Y10707748D01*
X70198918Y10975537D01*
X70322168Y11273088D01*
X70385000Y11588967D01*
X70385000Y11911033D01*
X73615000Y11911033D01*
X73615000Y11588967D01*
X73677832Y11273088D01*
X73801082Y10975537D01*
X73980013Y10707748D01*
X74207748Y10480013D01*
X74475537Y10301082D01*
X74773088Y10177832D01*
X75088967Y10115000D01*
X75411033Y10115000D01*
X75726912Y10177832D01*
X76024463Y10301082D01*
X76292252Y10480013D01*
X76519987Y10707748D01*
X76698918Y10975537D01*
X76822168Y11273088D01*
X76885000Y11588967D01*
X76885000Y11911033D01*
X78115000Y11911033D01*
X78115000Y11588967D01*
X78177832Y11273088D01*
X78301082Y10975537D01*
X78480013Y10707748D01*
X78707748Y10480013D01*
X78975537Y10301082D01*
X78990001Y10295091D01*
X78990000Y6704909D01*
X78975537Y6698918D01*
X78707748Y6519987D01*
X78480013Y6292252D01*
X78301082Y6024463D01*
X78177832Y5726912D01*
X78115000Y5411033D01*
X78115000Y5088967D01*
X78177832Y4773088D01*
X78301082Y4475537D01*
X78480013Y4207748D01*
X78707748Y3980013D01*
X78975537Y3801082D01*
X79273088Y3677832D01*
X79588967Y3615000D01*
X79911033Y3615000D01*
X80226912Y3677832D01*
X80524463Y3801082D01*
X80792252Y3980013D01*
X81019987Y4207748D01*
X81198918Y4475537D01*
X81322168Y4773088D01*
X81385000Y5088967D01*
X81385000Y5411033D01*
X84615000Y5411033D01*
X84615000Y5088967D01*
X84677832Y4773088D01*
X84801082Y4475537D01*
X84980013Y4207748D01*
X85207748Y3980013D01*
X85475537Y3801082D01*
X85773088Y3677832D01*
X86088967Y3615000D01*
X86411033Y3615000D01*
X86726912Y3677832D01*
X87024463Y3801082D01*
X87292252Y3980013D01*
X87519987Y4207748D01*
X87698918Y4475537D01*
X87822168Y4773088D01*
X87885000Y5088967D01*
X87885000Y5411033D01*
X87822168Y5726912D01*
X87698918Y6024463D01*
X87519987Y6292252D01*
X87292252Y6519987D01*
X87024463Y6698918D01*
X86726912Y6822168D01*
X86411033Y6885000D01*
X86088967Y6885000D01*
X85773088Y6822168D01*
X85475537Y6698918D01*
X85207748Y6519987D01*
X84980013Y6292252D01*
X84801082Y6024463D01*
X84677832Y5726912D01*
X84615000Y5411033D01*
X81385000Y5411033D01*
X81322168Y5726912D01*
X81198918Y6024463D01*
X81019987Y6292252D01*
X80792252Y6519987D01*
X80524463Y6698918D01*
X80510000Y6704909D01*
X80510000Y10295091D01*
X80524463Y10301082D01*
X80792252Y10480013D01*
X81019987Y10707748D01*
X81198918Y10975537D01*
X81322168Y11273088D01*
X81385000Y11588967D01*
X81385000Y11911033D01*
X84615000Y11911033D01*
X84615000Y11588967D01*
X84677832Y11273088D01*
X84801082Y10975537D01*
X84980013Y10707748D01*
X85207748Y10480013D01*
X85475537Y10301082D01*
X85773088Y10177832D01*
X86088967Y10115000D01*
X86411033Y10115000D01*
X86726912Y10177832D01*
X87024463Y10301082D01*
X87292252Y10480013D01*
X87519987Y10707748D01*
X87698918Y10975537D01*
X87822168Y11273088D01*
X87885000Y11588967D01*
X87885000Y11911033D01*
X89115000Y11911033D01*
X89115000Y11588967D01*
X89177832Y11273088D01*
X89301082Y10975537D01*
X89480013Y10707748D01*
X89707748Y10480013D01*
X89975537Y10301082D01*
X89990000Y10295091D01*
X89990001Y6704909D01*
X89975537Y6698918D01*
X89707748Y6519987D01*
X89480013Y6292252D01*
X89301082Y6024463D01*
X89177832Y5726912D01*
X89115000Y5411033D01*
X89115000Y5088967D01*
X89177832Y4773088D01*
X89301082Y4475537D01*
X89480013Y4207748D01*
X89707748Y3980013D01*
X89975537Y3801082D01*
X90273088Y3677832D01*
X90588967Y3615000D01*
X90911033Y3615000D01*
X91226912Y3677832D01*
X91524463Y3801082D01*
X91792252Y3980013D01*
X92019987Y4207748D01*
X92198918Y4475537D01*
X92322168Y4773088D01*
X92385000Y5088967D01*
X92385000Y5411033D01*
X92322168Y5726912D01*
X92198918Y6024463D01*
X92019987Y6292252D01*
X91792252Y6519987D01*
X91524463Y6698918D01*
X91510000Y6704909D01*
X91510000Y10295091D01*
X91524463Y10301082D01*
X91792252Y10480013D01*
X92019987Y10707748D01*
X92198918Y10975537D01*
X92322168Y11273088D01*
X92385000Y11588967D01*
X92385000Y11911033D01*
X92322168Y12226912D01*
X92198918Y12524463D01*
X92019987Y12792252D01*
X91792252Y13019987D01*
X91524463Y13198918D01*
X91226912Y13322168D01*
X90911033Y13385000D01*
X90588967Y13385000D01*
X90273088Y13322168D01*
X89975537Y13198918D01*
X89707748Y13019987D01*
X89480013Y12792252D01*
X89301082Y12524463D01*
X89177832Y12226912D01*
X89115000Y11911033D01*
X87885000Y11911033D01*
X87822168Y12226912D01*
X87698918Y12524463D01*
X87519987Y12792252D01*
X87292252Y13019987D01*
X87024463Y13198918D01*
X86726912Y13322168D01*
X86411033Y13385000D01*
X86088967Y13385000D01*
X85773088Y13322168D01*
X85475537Y13198918D01*
X85207748Y13019987D01*
X84980013Y12792252D01*
X84801082Y12524463D01*
X84677832Y12226912D01*
X84615000Y11911033D01*
X81385000Y11911033D01*
X81322168Y12226912D01*
X81198918Y12524463D01*
X81019987Y12792252D01*
X80792252Y13019987D01*
X80524463Y13198918D01*
X80226912Y13322168D01*
X79911033Y13385000D01*
X79588967Y13385000D01*
X79273088Y13322168D01*
X78975537Y13198918D01*
X78707748Y13019987D01*
X78480013Y12792252D01*
X78301082Y12524463D01*
X78177832Y12226912D01*
X78115000Y11911033D01*
X76885000Y11911033D01*
X76822168Y12226912D01*
X76698918Y12524463D01*
X76519987Y12792252D01*
X76292252Y13019987D01*
X76024463Y13198918D01*
X75726912Y13322168D01*
X75411033Y13385000D01*
X75088967Y13385000D01*
X74773088Y13322168D01*
X74475537Y13198918D01*
X74207748Y13019987D01*
X73980013Y12792252D01*
X73801082Y12524463D01*
X73677832Y12226912D01*
X73615000Y11911033D01*
X70385000Y11911033D01*
X70322168Y12226912D01*
X70198918Y12524463D01*
X70019987Y12792252D01*
X69792252Y13019987D01*
X69524463Y13198918D01*
X69226912Y13322168D01*
X68911033Y13385000D01*
X68588967Y13385000D01*
X68273088Y13322168D01*
X67975537Y13198918D01*
X67707748Y13019987D01*
X67480013Y12792252D01*
X67301082Y12524463D01*
X67177832Y12226912D01*
X67115000Y11911033D01*
X65885000Y11911033D01*
X65822168Y12226912D01*
X65698918Y12524463D01*
X65519987Y12792252D01*
X65292252Y13019987D01*
X65024463Y13198918D01*
X64726912Y13322168D01*
X64411033Y13385000D01*
X64088967Y13385000D01*
X63773088Y13322168D01*
X63475537Y13198918D01*
X63207748Y13019987D01*
X62980013Y12792252D01*
X62801082Y12524463D01*
X62677832Y12226912D01*
X62615000Y11911033D01*
X59385000Y11911033D01*
X59322168Y12226912D01*
X59198918Y12524463D01*
X59019987Y12792252D01*
X58792252Y13019987D01*
X58524463Y13198918D01*
X58226912Y13322168D01*
X57911033Y13385000D01*
X57588967Y13385000D01*
X57273088Y13322168D01*
X56975537Y13198918D01*
X56707748Y13019987D01*
X56480013Y12792252D01*
X56301082Y12524463D01*
X56177832Y12226912D01*
X56115000Y11911033D01*
X54885000Y11911033D01*
X54822168Y12226912D01*
X54698918Y12524463D01*
X54519987Y12792252D01*
X54292252Y13019987D01*
X54024463Y13198918D01*
X53726912Y13322168D01*
X53411033Y13385000D01*
X53088967Y13385000D01*
X52773088Y13322168D01*
X52475537Y13198918D01*
X52207748Y13019987D01*
X51980013Y12792252D01*
X51801082Y12524463D01*
X51677832Y12226912D01*
X51615000Y11911033D01*
X48385000Y11911033D01*
X48322168Y12226912D01*
X48198918Y12524463D01*
X48019987Y12792252D01*
X47792252Y13019987D01*
X47524463Y13198918D01*
X47226912Y13322168D01*
X46911033Y13385000D01*
X46588967Y13385000D01*
X46273088Y13322168D01*
X45975537Y13198918D01*
X45707748Y13019987D01*
X45480013Y12792252D01*
X45301082Y12524463D01*
X45177832Y12226912D01*
X45115000Y11911033D01*
X43885000Y11911033D01*
X43822168Y12226912D01*
X43698918Y12524463D01*
X43519987Y12792252D01*
X43292252Y13019987D01*
X43024463Y13198918D01*
X42726912Y13322168D01*
X42411033Y13385000D01*
X42088967Y13385000D01*
X41773088Y13322168D01*
X41475537Y13198918D01*
X41207748Y13019987D01*
X40980013Y12792252D01*
X40801082Y12524463D01*
X40677832Y12226912D01*
X40615000Y11911033D01*
X37385000Y11911033D01*
X37322168Y12226912D01*
X37198918Y12524463D01*
X37019987Y12792252D01*
X36792252Y13019987D01*
X36524463Y13198918D01*
X36226912Y13322168D01*
X35911033Y13385000D01*
X35588967Y13385000D01*
X35273088Y13322168D01*
X34975537Y13198918D01*
X34707748Y13019987D01*
X34480013Y12792252D01*
X34301082Y12524463D01*
X34177832Y12226912D01*
X34115000Y11911033D01*
X32885000Y11911033D01*
X32822168Y12226912D01*
X32698918Y12524463D01*
X32519987Y12792252D01*
X32292252Y13019987D01*
X32024463Y13198918D01*
X31726912Y13322168D01*
X31411033Y13385000D01*
X31088967Y13385000D01*
X30773088Y13322168D01*
X30475537Y13198918D01*
X30207748Y13019987D01*
X29980013Y12792252D01*
X29801082Y12524463D01*
X29677832Y12226912D01*
X29615000Y11911033D01*
X26385000Y11911033D01*
X26322168Y12226912D01*
X26198918Y12524463D01*
X26019987Y12792252D01*
X25792252Y13019987D01*
X25524463Y13198918D01*
X25226912Y13322168D01*
X24911033Y13385000D01*
X24588967Y13385000D01*
X24273088Y13322168D01*
X23975537Y13198918D01*
X23707748Y13019987D01*
X23480013Y12792252D01*
X23301082Y12524463D01*
X23177832Y12226912D01*
X23115000Y11911033D01*
X21885000Y11911033D01*
X21822168Y12226912D01*
X21698918Y12524463D01*
X21519987Y12792252D01*
X21292252Y13019987D01*
X21024463Y13198918D01*
X20726912Y13322168D01*
X20411033Y13385000D01*
X20088967Y13385000D01*
X19773088Y13322168D01*
X19475537Y13198918D01*
X19207748Y13019987D01*
X18980013Y12792252D01*
X18801082Y12524463D01*
X18677832Y12226912D01*
X18615000Y11911033D01*
X15385000Y11911033D01*
X15322168Y12226912D01*
X15198918Y12524463D01*
X15019987Y12792252D01*
X14792252Y13019987D01*
X14524463Y13198918D01*
X14226912Y13322168D01*
X13911033Y13385000D01*
X13588967Y13385000D01*
X13273088Y13322168D01*
X12975537Y13198918D01*
X12707748Y13019987D01*
X12480013Y12792252D01*
X12301082Y12524463D01*
X12177832Y12226912D01*
X12115000Y11911033D01*
X10885000Y11911033D01*
X10822168Y12226912D01*
X10698918Y12524463D01*
X10519987Y12792252D01*
X10292252Y13019987D01*
X10024463Y13198918D01*
X9726912Y13322168D01*
X9411033Y13385000D01*
X9088967Y13385000D01*
X8773088Y13322168D01*
X8758625Y13316177D01*
X3579400Y18495401D01*
X3579400Y21500000D01*
X20361928Y21500000D01*
X20361928Y18500000D01*
X20374188Y18375518D01*
X20410498Y18255820D01*
X20469463Y18145506D01*
X20548815Y18048815D01*
X20645506Y17969463D01*
X20755820Y17910498D01*
X20875518Y17874188D01*
X21000000Y17861928D01*
X24000000Y17861928D01*
X24124482Y17874188D01*
X24244180Y17910498D01*
X24354494Y17969463D01*
X24451185Y18048815D01*
X24530537Y18145506D01*
X24589502Y18255820D01*
X24625812Y18375518D01*
X24638072Y18500000D01*
X24638072Y20210279D01*
X40855000Y20210279D01*
X40855000Y19789721D01*
X40937047Y19377244D01*
X41097988Y18988698D01*
X41331637Y18639017D01*
X41629017Y18341637D01*
X41978698Y18107988D01*
X42367244Y17947047D01*
X42779721Y17865000D01*
X43200279Y17865000D01*
X43612756Y17947047D01*
X44001302Y18107988D01*
X44350983Y18341637D01*
X44648363Y18639017D01*
X44882012Y18988698D01*
X45042953Y19377244D01*
X45125000Y19789721D01*
X45125000Y20210279D01*
X45042953Y20622756D01*
X44882012Y21011302D01*
X44648363Y21360983D01*
X44509346Y21500000D01*
X57861928Y21500000D01*
X57861928Y18500000D01*
X57874188Y18375518D01*
X57910498Y18255820D01*
X57969463Y18145506D01*
X58048815Y18048815D01*
X58145506Y17969463D01*
X58255820Y17910498D01*
X58375518Y17874188D01*
X58500000Y17861928D01*
X61500000Y17861928D01*
X61624482Y17874188D01*
X61744180Y17910498D01*
X61854494Y17969463D01*
X61951185Y18048815D01*
X62030537Y18145506D01*
X62089502Y18255820D01*
X62125812Y18375518D01*
X62138072Y18500000D01*
X62138072Y21500000D01*
X62125812Y21624482D01*
X62089502Y21744180D01*
X62030537Y21854494D01*
X61951185Y21951185D01*
X61854494Y22030537D01*
X61744180Y22089502D01*
X61624482Y22125812D01*
X61500000Y22138072D01*
X58500000Y22138072D01*
X58375518Y22125812D01*
X58255820Y22089502D01*
X58145506Y22030537D01*
X58048815Y21951185D01*
X57969463Y21854494D01*
X57910498Y21744180D01*
X57874188Y21624482D01*
X57861928Y21500000D01*
X44509346Y21500000D01*
X44350983Y21658363D01*
X44001302Y21892012D01*
X43612756Y22052953D01*
X43200279Y22135000D01*
X42779721Y22135000D01*
X42367244Y22052953D01*
X41978698Y21892012D01*
X41629017Y21658363D01*
X41331637Y21360983D01*
X41097988Y21011302D01*
X40937047Y20622756D01*
X40855000Y20210279D01*
X24638072Y20210279D01*
X24638072Y21500000D01*
X24625812Y21624482D01*
X24589502Y21744180D01*
X24530537Y21854494D01*
X24451185Y21951185D01*
X24354494Y22030537D01*
X24244180Y22089502D01*
X24124482Y22125812D01*
X24000000Y22138072D01*
X21000000Y22138072D01*
X20875518Y22125812D01*
X20755820Y22089502D01*
X20645506Y22030537D01*
X20548815Y21951185D01*
X20469463Y21854494D01*
X20410498Y21744180D01*
X20374188Y21624482D01*
X20361928Y21500000D01*
X3579400Y21500000D01*
X3579400Y29415767D01*
X3708889Y29376487D01*
X3927050Y29355000D01*
X4072950Y29355000D01*
X4291111Y29376487D01*
X4571034Y29461401D01*
X4829014Y29599294D01*
X5055134Y29784866D01*
X5240706Y30010986D01*
X5277595Y30080000D01*
X20994478Y30080000D01*
X21031800Y30076324D01*
X21069122Y30080000D01*
X21069133Y30080000D01*
X21180786Y30090997D01*
X21324047Y30134454D01*
X21456076Y30205026D01*
X21571801Y30299999D01*
X21595604Y30329003D01*
X31858602Y40592000D01*
X32413850Y40592000D01*
X32139017Y40408363D01*
X31841637Y40110983D01*
X31607988Y39761302D01*
X31447047Y39372756D01*
X31365000Y38960279D01*
X31365000Y38539721D01*
X31447047Y38127244D01*
X31607988Y37738698D01*
X31841637Y37389017D01*
X32139017Y37091637D01*
X32488698Y36857988D01*
X32877244Y36697047D01*
X33289721Y36615000D01*
X33710279Y36615000D01*
X34122756Y36697047D01*
X34511302Y36857988D01*
X34860983Y37091637D01*
X35158363Y37389017D01*
X35392012Y37738698D01*
X35552953Y38127244D01*
X35635000Y38539721D01*
X35635000Y38960279D01*
X35552953Y39372756D01*
X35392012Y39761302D01*
X35158363Y40110983D01*
X34860983Y40408363D01*
X34586150Y40592000D01*
X43413850Y40592000D01*
X43139017Y40408363D01*
X42841637Y40110983D01*
X42607988Y39761302D01*
X42447047Y39372756D01*
X42365000Y38960279D01*
X42365000Y38539721D01*
X42447047Y38127244D01*
X42607988Y37738698D01*
X42841637Y37389017D01*
X43139017Y37091637D01*
X43488698Y36857988D01*
X43877244Y36697047D01*
X44289721Y36615000D01*
X44710279Y36615000D01*
X45122756Y36697047D01*
X45511302Y36857988D01*
X45860983Y37091637D01*
X46158363Y37389017D01*
X46392012Y37738698D01*
X46552953Y38127244D01*
X46635000Y38539721D01*
X46635000Y38960279D01*
X53365000Y38960279D01*
X53365000Y38539721D01*
X53447047Y38127244D01*
X53607988Y37738698D01*
X53841637Y37389017D01*
X54139017Y37091637D01*
X54488698Y36857988D01*
X54877244Y36697047D01*
X55289721Y36615000D01*
X55710279Y36615000D01*
X56122756Y36697047D01*
X56511302Y36857988D01*
X56860983Y37091637D01*
X57158363Y37389017D01*
X57392012Y37738698D01*
X57552953Y38127244D01*
X57635000Y38539721D01*
X57635000Y38960279D01*
X57552953Y39372756D01*
X57392012Y39761302D01*
X57158363Y40110983D01*
X56860983Y40408363D01*
X56511302Y40642012D01*
X56122756Y40802953D01*
X55710279Y40885000D01*
X55289721Y40885000D01*
X54877244Y40802953D01*
X54488698Y40642012D01*
X54139017Y40408363D01*
X53841637Y40110983D01*
X53607988Y39761302D01*
X53447047Y39372756D01*
X53365000Y38960279D01*
X46635000Y38960279D01*
X46552953Y39372756D01*
X46392012Y39761302D01*
X46158363Y40110983D01*
X45860983Y40408363D01*
X45586150Y40592000D01*
X48362889Y40592000D01*
X48406826Y40548063D01*
X48576344Y40434795D01*
X48764702Y40356774D01*
X48964661Y40317000D01*
X49168539Y40317000D01*
X49368498Y40356774D01*
X49556856Y40434795D01*
X49726374Y40548063D01*
X49870537Y40692226D01*
X49983805Y40861744D01*
X50061826Y41050102D01*
X50101600Y41250061D01*
X50101600Y41453939D01*
X50061826Y41653898D01*
X49983805Y41842256D01*
X49870537Y42011774D01*
X49726374Y42155937D01*
X49556856Y42269205D01*
X49368498Y42347226D01*
X49168539Y42387000D01*
X48964661Y42387000D01*
X48764702Y42347226D01*
X48576344Y42269205D01*
X48406826Y42155937D01*
X48362889Y42112000D01*
X31581123Y42112000D01*
X31543800Y42115676D01*
X31506477Y42112000D01*
X31506467Y42112000D01*
X31394814Y42101003D01*
X31266187Y42061985D01*
X31251553Y42057546D01*
X31119523Y41986974D01*
X31035883Y41918332D01*
X31003799Y41892001D01*
X30980001Y41863003D01*
X20716999Y31600000D01*
X5277595Y31600000D01*
X5240706Y31669014D01*
X5055134Y31895134D01*
X4829014Y32080706D01*
X4774209Y32110000D01*
X4829014Y32139294D01*
X5055134Y32324866D01*
X5240706Y32550986D01*
X5277595Y32620000D01*
X20458578Y32620000D01*
X20495900Y32616324D01*
X20533222Y32620000D01*
X20533233Y32620000D01*
X20644886Y32630997D01*
X20788147Y32674454D01*
X20920176Y32745026D01*
X21035901Y32839999D01*
X21059704Y32869003D01*
X30848302Y42657600D01*
X59376289Y42657600D01*
X59420226Y42613663D01*
X59589744Y42500395D01*
X59778102Y42422374D01*
X59978061Y42382600D01*
X60181939Y42382600D01*
X60381898Y42422374D01*
X60570256Y42500395D01*
X60739774Y42613663D01*
X60883937Y42757826D01*
X60997205Y42927344D01*
X61075226Y43115702D01*
X61115000Y43315661D01*
X61115000Y43519539D01*
X61075226Y43719498D01*
X60997205Y43907856D01*
X60883937Y44077374D01*
X60739774Y44221537D01*
X60570256Y44334805D01*
X60381898Y44412826D01*
X60181939Y44452600D01*
X59978061Y44452600D01*
X59778102Y44412826D01*
X59589744Y44334805D01*
X59420226Y44221537D01*
X59376289Y44177600D01*
X30570822Y44177600D01*
X30533499Y44181276D01*
X30496176Y44177600D01*
X30496167Y44177600D01*
X30384514Y44166603D01*
X30241253Y44123146D01*
X30109223Y44052574D01*
X30025583Y43983932D01*
X29993499Y43957601D01*
X29969701Y43928603D01*
X24635000Y38593901D01*
X24635000Y38960279D01*
X24552953Y39372756D01*
X24392012Y39761302D01*
X24158363Y40110983D01*
X23860983Y40408363D01*
X23511302Y40642012D01*
X23122756Y40802953D01*
X22710279Y40885000D01*
X22289721Y40885000D01*
X21877244Y40802953D01*
X21488698Y40642012D01*
X21139017Y40408363D01*
X20841637Y40110983D01*
X20607988Y39761302D01*
X20447047Y39372756D01*
X20365000Y38960279D01*
X20365000Y38539721D01*
X20447047Y38127244D01*
X20607988Y37738698D01*
X20841637Y37389017D01*
X21139017Y37091637D01*
X21488698Y36857988D01*
X21877244Y36697047D01*
X22289721Y36615000D01*
X22656099Y36615000D01*
X20181099Y34140000D01*
X5277595Y34140000D01*
X5240706Y34209014D01*
X5055134Y34435134D01*
X4829014Y34620706D01*
X4774209Y34650000D01*
X4829014Y34679294D01*
X5055134Y34864866D01*
X5240706Y35090986D01*
X5378599Y35348966D01*
X5463513Y35628889D01*
X5492185Y35920000D01*
X5463513Y36211111D01*
X5378599Y36491034D01*
X5240706Y36749014D01*
X5055134Y36975134D01*
X4829014Y37160706D01*
X4774209Y37190000D01*
X4829014Y37219294D01*
X5055134Y37404866D01*
X5240706Y37630986D01*
X5378599Y37888966D01*
X5463513Y38168889D01*
X5492185Y38460000D01*
X5463513Y38751111D01*
X5400063Y38960279D01*
X9365000Y38960279D01*
X9365000Y38539721D01*
X9447047Y38127244D01*
X9607988Y37738698D01*
X9841637Y37389017D01*
X10139017Y37091637D01*
X10488698Y36857988D01*
X10877244Y36697047D01*
X11289721Y36615000D01*
X11710279Y36615000D01*
X12122756Y36697047D01*
X12511302Y36857988D01*
X12860983Y37091637D01*
X13158363Y37389017D01*
X13392012Y37738698D01*
X13552953Y38127244D01*
X13635000Y38539721D01*
X13635000Y38960279D01*
X13552953Y39372756D01*
X13392012Y39761302D01*
X13158363Y40110983D01*
X12860983Y40408363D01*
X12511302Y40642012D01*
X12122756Y40802953D01*
X11710279Y40885000D01*
X11289721Y40885000D01*
X10877244Y40802953D01*
X10488698Y40642012D01*
X10139017Y40408363D01*
X9841637Y40110983D01*
X9607988Y39761302D01*
X9447047Y39372756D01*
X9365000Y38960279D01*
X5400063Y38960279D01*
X5378599Y39031034D01*
X5345393Y39093159D01*
X5348001Y39095299D01*
X5371804Y39124303D01*
X7596703Y41349201D01*
X7625701Y41372999D01*
X7720674Y41488724D01*
X7791246Y41620753D01*
X7834703Y41764014D01*
X7845700Y41875667D01*
X7845700Y41875676D01*
X7849376Y41912999D01*
X7845700Y41950322D01*
X7845700Y50357997D01*
X13005000Y50357997D01*
X13005000Y49642002D01*
X13033867Y49348912D01*
X13147943Y48972853D01*
X13333193Y48626275D01*
X13582498Y48322497D01*
X13886276Y48073193D01*
X14232854Y47887943D01*
X14608913Y47773867D01*
X15000000Y47735348D01*
X15391088Y47773867D01*
X15767147Y47887943D01*
X16113725Y48073193D01*
X16417503Y48322497D01*
X16666807Y48626275D01*
X16852057Y48972853D01*
X16966133Y49348913D01*
X16995000Y49642003D01*
X16995000Y50357997D01*
X18405000Y50357997D01*
X18405000Y49642002D01*
X18433867Y49348912D01*
X18547943Y48972853D01*
X18733193Y48626275D01*
X18982498Y48322497D01*
X19286276Y48073193D01*
X19632854Y47887943D01*
X20008913Y47773867D01*
X20400000Y47735348D01*
X20791088Y47773867D01*
X21167147Y47887943D01*
X21513725Y48073193D01*
X21817503Y48322497D01*
X22066807Y48626275D01*
X22252057Y48972853D01*
X22366133Y49348913D01*
X22395000Y49642003D01*
X22395000Y50357997D01*
X28005000Y50357997D01*
X28005000Y49642002D01*
X28033867Y49348912D01*
X28147943Y48972853D01*
X28333193Y48626275D01*
X28582498Y48322497D01*
X28886276Y48073193D01*
X29232854Y47887943D01*
X29608913Y47773867D01*
X30000000Y47735348D01*
X30391088Y47773867D01*
X30767147Y47887943D01*
X31113725Y48073193D01*
X31417503Y48322497D01*
X31666807Y48626275D01*
X31852057Y48972853D01*
X31966133Y49348913D01*
X31995000Y49642003D01*
X31995000Y50357998D01*
X31966133Y50651088D01*
X31852057Y51027147D01*
X31666807Y51373725D01*
X31417503Y51677503D01*
X31113725Y51926807D01*
X30767146Y52112057D01*
X30391087Y52226133D01*
X30000000Y52264652D01*
X29608912Y52226133D01*
X29232853Y52112057D01*
X28886275Y51926807D01*
X28582497Y51677503D01*
X28333193Y51373725D01*
X28147943Y51027146D01*
X28033867Y50651087D01*
X28005000Y50357997D01*
X22395000Y50357997D01*
X22395000Y50357998D01*
X22366133Y50651088D01*
X22252057Y51027147D01*
X22066807Y51373725D01*
X21817503Y51677503D01*
X21513725Y51926807D01*
X21167146Y52112057D01*
X20791087Y52226133D01*
X20400000Y52264652D01*
X20008912Y52226133D01*
X19632853Y52112057D01*
X19286275Y51926807D01*
X18982497Y51677503D01*
X18733193Y51373725D01*
X18547943Y51027146D01*
X18433867Y50651087D01*
X18405000Y50357997D01*
X16995000Y50357997D01*
X16995000Y50357998D01*
X16966133Y50651088D01*
X16852057Y51027147D01*
X16666807Y51373725D01*
X16417503Y51677503D01*
X16113725Y51926807D01*
X15767146Y52112057D01*
X15391087Y52226133D01*
X15000000Y52264652D01*
X14608912Y52226133D01*
X14232853Y52112057D01*
X13886275Y51926807D01*
X13582497Y51677503D01*
X13333193Y51373725D01*
X13147943Y51027146D01*
X13033867Y50651087D01*
X13005000Y50357997D01*
X7845700Y50357997D01*
X7845700Y52431278D01*
X7849376Y52468601D01*
X7845700Y52505924D01*
X7845700Y52505933D01*
X7834703Y52617586D01*
X7791246Y52760847D01*
X7720674Y52892876D01*
X7625701Y53008601D01*
X7596704Y53032398D01*
X6777400Y53851701D01*
X6777400Y55558399D01*
X9426305Y52909492D01*
X9450099Y52880499D01*
X9479092Y52856705D01*
X9479096Y52856701D01*
X9509982Y52831354D01*
X9565824Y52785526D01*
X9697853Y52714954D01*
X9841114Y52671497D01*
X9952767Y52660500D01*
X9952776Y52660500D01*
X9990099Y52656824D01*
X10027422Y52660500D01*
X34259242Y52660500D01*
X34239200Y52559739D01*
X34239200Y52355861D01*
X34278974Y52155902D01*
X34356995Y51967544D01*
X34358441Y51965380D01*
X34286275Y51926807D01*
X33982497Y51677503D01*
X33733193Y51373725D01*
X33547943Y51027146D01*
X33433867Y50651087D01*
X33405000Y50357997D01*
X33405000Y49642002D01*
X33433867Y49348912D01*
X33547943Y48972853D01*
X33733193Y48626275D01*
X33982498Y48322497D01*
X34286276Y48073193D01*
X34632854Y47887943D01*
X35008913Y47773867D01*
X35400000Y47735348D01*
X35791088Y47773867D01*
X36167147Y47887943D01*
X36513725Y48073193D01*
X36817503Y48322497D01*
X37066807Y48626275D01*
X37252057Y48972853D01*
X37366133Y49348913D01*
X37395000Y49642003D01*
X37395000Y50357998D01*
X37366133Y50651088D01*
X37252057Y51027147D01*
X37066807Y51373725D01*
X36817503Y51677503D01*
X36792771Y51697800D01*
X37466999Y51697800D01*
X44003601Y45161197D01*
X44027399Y45132199D01*
X44056397Y45108401D01*
X44143124Y45037226D01*
X44275153Y44966654D01*
X44418414Y44923197D01*
X44567400Y44908523D01*
X44604733Y44912200D01*
X62690878Y44912200D01*
X62728200Y44908524D01*
X62765522Y44912200D01*
X62765533Y44912200D01*
X62877186Y44923197D01*
X63020447Y44966654D01*
X63152476Y45037226D01*
X63268201Y45132199D01*
X63292004Y45161203D01*
X64267159Y46136357D01*
X64358899Y46061068D01*
X64608192Y45927818D01*
X64878691Y45845764D01*
X65089508Y45825000D01*
X65230492Y45825000D01*
X65441309Y45845764D01*
X65711808Y45927818D01*
X65961101Y46061068D01*
X66179608Y46240392D01*
X66358932Y46458899D01*
X66430000Y46591858D01*
X66501068Y46458899D01*
X66680392Y46240392D01*
X66898899Y46061068D01*
X67148192Y45927818D01*
X67418691Y45845764D01*
X67629508Y45825000D01*
X67770492Y45825000D01*
X67981309Y45845764D01*
X68251808Y45927818D01*
X68501101Y46061068D01*
X68719608Y46240392D01*
X68898932Y46458899D01*
X68970000Y46591858D01*
X69041068Y46458899D01*
X69220392Y46240392D01*
X69438899Y46061068D01*
X69688192Y45927818D01*
X69958691Y45845764D01*
X70169508Y45825000D01*
X70310492Y45825000D01*
X70521309Y45845764D01*
X70791808Y45927818D01*
X71041101Y46061068D01*
X71259608Y46240392D01*
X71438932Y46458899D01*
X71510000Y46591858D01*
X71581068Y46458899D01*
X71760392Y46240392D01*
X71978899Y46061068D01*
X72228192Y45927818D01*
X72498691Y45845764D01*
X72709508Y45825000D01*
X72850492Y45825000D01*
X73061309Y45845764D01*
X73331808Y45927818D01*
X73581101Y46061068D01*
X73799608Y46240392D01*
X73978932Y46458899D01*
X74050000Y46591858D01*
X74121068Y46458899D01*
X74300392Y46240392D01*
X74518899Y46061068D01*
X74768192Y45927818D01*
X75038691Y45845764D01*
X75249508Y45825000D01*
X75390492Y45825000D01*
X75601309Y45845764D01*
X75749600Y45890747D01*
X75749600Y45393402D01*
X68570213Y38214014D01*
X68635000Y38539721D01*
X68635000Y38960279D01*
X68552953Y39372756D01*
X68392012Y39761302D01*
X68158363Y40110983D01*
X67860983Y40408363D01*
X67511302Y40642012D01*
X67122756Y40802953D01*
X66710279Y40885000D01*
X66289721Y40885000D01*
X65877244Y40802953D01*
X65488698Y40642012D01*
X65139017Y40408363D01*
X64841637Y40110983D01*
X64607988Y39761302D01*
X64447047Y39372756D01*
X64365000Y38960279D01*
X64365000Y38539721D01*
X64447047Y38127244D01*
X64607988Y37738698D01*
X64841637Y37389017D01*
X65139017Y37091637D01*
X65488698Y36857988D01*
X65877244Y36697047D01*
X66289721Y36615000D01*
X66710279Y36615000D01*
X67122756Y36697047D01*
X67511302Y36857988D01*
X67860983Y37091637D01*
X68052901Y37283555D01*
X68052900Y23524802D01*
X60816399Y16288300D01*
X60754261Y16288300D01*
X60554302Y16248526D01*
X60365944Y16170505D01*
X60196426Y16057237D01*
X60052263Y15913074D01*
X59938995Y15743556D01*
X59860974Y15555198D01*
X59821200Y15355239D01*
X59821200Y15151361D01*
X59860974Y14951402D01*
X59938995Y14763044D01*
X60052263Y14593526D01*
X60196426Y14449363D01*
X60365944Y14336095D01*
X60554302Y14258074D01*
X60754261Y14218300D01*
X60958139Y14218300D01*
X61158098Y14258074D01*
X61346456Y14336095D01*
X61515974Y14449363D01*
X61660137Y14593526D01*
X61773405Y14763044D01*
X61851426Y14951402D01*
X61891200Y15151361D01*
X61891200Y15213499D01*
X69323904Y22646202D01*
X69352901Y22669999D01*
X69379232Y22702083D01*
X69447874Y22785723D01*
X69518446Y22917753D01*
X69518446Y22917754D01*
X69561903Y23061014D01*
X69572900Y23172667D01*
X69572900Y23172676D01*
X69576576Y23209999D01*
X69572900Y23247322D01*
X69572900Y37067099D01*
X77020604Y44514802D01*
X77049601Y44538599D01*
X77144574Y44654324D01*
X77215146Y44786353D01*
X77258603Y44929614D01*
X77269600Y45041267D01*
X77269600Y45041268D01*
X77273277Y45078600D01*
X77269600Y45115933D01*
X77269600Y45948446D01*
X77308192Y45927818D01*
X77578691Y45845764D01*
X77789508Y45825000D01*
X77930492Y45825000D01*
X78141309Y45845764D01*
X78225300Y45871242D01*
X78225300Y43140702D01*
X70686198Y35601599D01*
X70657200Y35577801D01*
X70633402Y35548803D01*
X70633401Y35548802D01*
X70562226Y35462076D01*
X70491654Y35330046D01*
X70448198Y35186785D01*
X70433524Y35037800D01*
X70437201Y35000467D01*
X70437200Y18414311D01*
X70393263Y18370374D01*
X70279995Y18200856D01*
X70201974Y18012498D01*
X70162200Y17812539D01*
X70162200Y17608661D01*
X70201974Y17408702D01*
X70279995Y17220344D01*
X70393263Y17050826D01*
X70537426Y16906663D01*
X70706944Y16793395D01*
X70895302Y16715374D01*
X71095261Y16675600D01*
X71299139Y16675600D01*
X71499098Y16715374D01*
X71687456Y16793395D01*
X71856974Y16906663D01*
X72001137Y17050826D01*
X72114405Y17220344D01*
X72192426Y17408702D01*
X72232200Y17608661D01*
X72232200Y17812539D01*
X72192426Y18012498D01*
X72114405Y18200856D01*
X72001137Y18370374D01*
X71957200Y18414311D01*
X71957200Y18593156D01*
X79087399Y18593156D01*
X79231435Y18262630D01*
X79594562Y18050479D01*
X79992100Y17913247D01*
X80408773Y17856207D01*
X80828566Y17881553D01*
X81235349Y17988309D01*
X81613489Y18172373D01*
X81748565Y18262630D01*
X81892601Y18593156D01*
X80490000Y19995757D01*
X79087399Y18593156D01*
X71957200Y18593156D01*
X71957200Y20081227D01*
X78346207Y20081227D01*
X78371553Y19661434D01*
X78478309Y19254651D01*
X78662373Y18876511D01*
X78752630Y18741435D01*
X79083156Y18597399D01*
X80485757Y20000000D01*
X80494243Y20000000D01*
X81896844Y18597399D01*
X82227370Y18741435D01*
X82439521Y19104562D01*
X82576753Y19502100D01*
X82633793Y19918773D01*
X82608447Y20338566D01*
X82501691Y20745349D01*
X82317627Y21123489D01*
X82227370Y21258565D01*
X81896844Y21402601D01*
X80494243Y20000000D01*
X80485757Y20000000D01*
X79083156Y21402601D01*
X78752630Y21258565D01*
X78540479Y20895438D01*
X78403247Y20497900D01*
X78346207Y20081227D01*
X71957200Y20081227D01*
X71957200Y21406844D01*
X79087399Y21406844D01*
X80490000Y20004243D01*
X81892601Y21406844D01*
X81748565Y21737370D01*
X81385438Y21949521D01*
X80987900Y22086753D01*
X80571227Y22143793D01*
X80151434Y22118447D01*
X79744651Y22011691D01*
X79366511Y21827627D01*
X79231435Y21737370D01*
X79087399Y21406844D01*
X71957200Y21406844D01*
X71957200Y34722999D01*
X75432845Y38198643D01*
X75447047Y38127244D01*
X75607988Y37738698D01*
X75841637Y37389017D01*
X76139017Y37091637D01*
X76488698Y36857988D01*
X76877244Y36697047D01*
X77289721Y36615000D01*
X77710279Y36615000D01*
X78122756Y36697047D01*
X78511302Y36857988D01*
X78860983Y37091637D01*
X79158363Y37389017D01*
X79392012Y37738698D01*
X79552953Y38127244D01*
X79635000Y38539721D01*
X79635000Y38960279D01*
X86365000Y38960279D01*
X86365000Y38539721D01*
X86447047Y38127244D01*
X86607988Y37738698D01*
X86841637Y37389017D01*
X87139017Y37091637D01*
X87488698Y36857988D01*
X87877244Y36697047D01*
X88289721Y36615000D01*
X88710279Y36615000D01*
X89122756Y36697047D01*
X89511302Y36857988D01*
X89860983Y37091637D01*
X90158363Y37389017D01*
X90392012Y37738698D01*
X90552953Y38127244D01*
X90635000Y38539721D01*
X90635000Y38960279D01*
X90552953Y39372756D01*
X90392012Y39761302D01*
X90158363Y40110983D01*
X89860983Y40408363D01*
X89511302Y40642012D01*
X89122756Y40802953D01*
X88710279Y40885000D01*
X88289721Y40885000D01*
X87877244Y40802953D01*
X87488698Y40642012D01*
X87139017Y40408363D01*
X86841637Y40110983D01*
X86607988Y39761302D01*
X86447047Y39372756D01*
X86365000Y38960279D01*
X79635000Y38960279D01*
X79552953Y39372756D01*
X79392012Y39761302D01*
X79158363Y40110983D01*
X78860983Y40408363D01*
X78511302Y40642012D01*
X78122756Y40802953D01*
X78051357Y40817155D01*
X79496304Y42262102D01*
X79525301Y42285899D01*
X79620274Y42401624D01*
X79690846Y42533653D01*
X79734303Y42676914D01*
X79745300Y42788567D01*
X79745300Y42788575D01*
X79748976Y42825900D01*
X79745300Y42863225D01*
X79745300Y45982815D01*
X79848192Y45927818D01*
X80118691Y45845764D01*
X80329508Y45825000D01*
X80470492Y45825000D01*
X80681309Y45845764D01*
X80951808Y45927818D01*
X81201101Y46061068D01*
X81419608Y46240392D01*
X81598932Y46458899D01*
X81670000Y46591858D01*
X81741068Y46458899D01*
X81920392Y46240392D01*
X82138899Y46061068D01*
X82388192Y45927818D01*
X82658691Y45845764D01*
X82869508Y45825000D01*
X83010492Y45825000D01*
X83221309Y45845764D01*
X83491808Y45927818D01*
X83741101Y46061068D01*
X83959608Y46240392D01*
X84138932Y46458899D01*
X84210000Y46591858D01*
X84281068Y46458899D01*
X84460392Y46240392D01*
X84678899Y46061068D01*
X84928192Y45927818D01*
X85198691Y45845764D01*
X85409508Y45825000D01*
X85550492Y45825000D01*
X85761309Y45845764D01*
X86031808Y45927818D01*
X86281101Y46061068D01*
X86499608Y46240392D01*
X86678932Y46458899D01*
X86750000Y46591858D01*
X86821068Y46458899D01*
X87000392Y46240392D01*
X87218899Y46061068D01*
X87468192Y45927818D01*
X87738691Y45845764D01*
X87949508Y45825000D01*
X88090492Y45825000D01*
X88301309Y45845764D01*
X88530001Y45915136D01*
X88530001Y45574633D01*
X88526324Y45537300D01*
X88540998Y45388315D01*
X88584454Y45245054D01*
X88655026Y45113024D01*
X88713916Y45041267D01*
X88750000Y44997299D01*
X88778998Y44973501D01*
X94628205Y39124292D01*
X94651999Y39095299D01*
X94654607Y39093159D01*
X94621401Y39031034D01*
X94536487Y38751111D01*
X94507815Y38460000D01*
X94536487Y38168889D01*
X94621401Y37888966D01*
X94759294Y37630986D01*
X94944866Y37404866D01*
X95170986Y37219294D01*
X95225791Y37190000D01*
X95170986Y37160706D01*
X94944866Y36975134D01*
X94759294Y36749014D01*
X94621401Y36491034D01*
X94536487Y36211111D01*
X94507815Y35920000D01*
X94536487Y35628889D01*
X94621401Y35348966D01*
X94759294Y35090986D01*
X94944866Y34864866D01*
X95170986Y34679294D01*
X95225791Y34650000D01*
X95170986Y34620706D01*
X94944866Y34435134D01*
X94759294Y34209014D01*
X94621401Y33951034D01*
X94536487Y33671111D01*
X94507815Y33380000D01*
X94536487Y33088889D01*
X94621401Y32808966D01*
X94759294Y32550986D01*
X94944866Y32324866D01*
X95170986Y32139294D01*
X95225791Y32110000D01*
X95170986Y32080706D01*
X94944866Y31895134D01*
X94759294Y31669014D01*
X94621401Y31411034D01*
X94536487Y31131111D01*
X94507815Y30840000D01*
X94536487Y30548889D01*
X94621401Y30268966D01*
X94759294Y30010986D01*
X94944866Y29784866D01*
X95170986Y29599294D01*
X95428966Y29461401D01*
X95708889Y29376487D01*
X95927050Y29355000D01*
X96072950Y29355000D01*
X96291111Y29376487D01*
X96571034Y29461401D01*
X96829014Y29599294D01*
X97055134Y29784866D01*
X97240706Y30010986D01*
X97378599Y30268966D01*
X97463513Y30548889D01*
X97492185Y30840000D01*
X97463513Y31131111D01*
X97378599Y31411034D01*
X97240706Y31669014D01*
X97055134Y31895134D01*
X96829014Y32080706D01*
X96774209Y32110000D01*
X96829014Y32139294D01*
X97055134Y32324866D01*
X97240706Y32550986D01*
X97378599Y32808966D01*
X97463513Y33088889D01*
X97492185Y33380000D01*
X97463513Y33671111D01*
X97378599Y33951034D01*
X97240706Y34209014D01*
X97055134Y34435134D01*
X96829014Y34620706D01*
X96774209Y34650000D01*
X96829014Y34679294D01*
X97055134Y34864866D01*
X97240706Y35090986D01*
X97378599Y35348966D01*
X97463513Y35628889D01*
X97492185Y35920000D01*
X97463513Y36211111D01*
X97378599Y36491034D01*
X97240706Y36749014D01*
X97055134Y36975134D01*
X96829014Y37160706D01*
X96774209Y37190000D01*
X96829014Y37219294D01*
X97055134Y37404866D01*
X97240706Y37630986D01*
X97378599Y37888966D01*
X97463513Y38168889D01*
X97492185Y38460000D01*
X97463513Y38751111D01*
X97378599Y39031034D01*
X97240706Y39289014D01*
X97055134Y39515134D01*
X97025313Y39539607D01*
X97094180Y39560498D01*
X97204494Y39619463D01*
X97301185Y39698815D01*
X97380537Y39795506D01*
X97439502Y39905820D01*
X97475812Y40025518D01*
X97488072Y40150000D01*
X97488072Y41850000D01*
X97475812Y41974482D01*
X97439502Y42094180D01*
X97380537Y42204494D01*
X97301185Y42301185D01*
X97204494Y42380537D01*
X97094180Y42439502D01*
X96974482Y42475812D01*
X96850000Y42488072D01*
X95150000Y42488072D01*
X95025518Y42475812D01*
X94905820Y42439502D01*
X94795506Y42380537D01*
X94698815Y42301185D01*
X94619463Y42204494D01*
X94560498Y42094180D01*
X94524188Y41974482D01*
X94511928Y41850000D01*
X94511928Y41390175D01*
X90050000Y45852101D01*
X90050000Y45915136D01*
X90278691Y45845764D01*
X90489508Y45825000D01*
X90630492Y45825000D01*
X90841309Y45845764D01*
X91111808Y45927818D01*
X91361101Y46061068D01*
X91579608Y46240392D01*
X91758932Y46458899D01*
X91892182Y46708192D01*
X91974236Y46978691D01*
X92001943Y47260000D01*
X91974236Y47541309D01*
X91892182Y47811808D01*
X91758932Y48061101D01*
X91579608Y48279608D01*
X91551872Y48302370D01*
X93611008Y50361505D01*
X93640001Y50385299D01*
X93663795Y50414292D01*
X93663799Y50414296D01*
X93734973Y50501023D01*
X93734974Y50501024D01*
X93805546Y50633053D01*
X93849003Y50776314D01*
X93860000Y50887967D01*
X93860000Y50887976D01*
X93863676Y50925299D01*
X93860000Y50962622D01*
X93860000Y57412405D01*
X93929014Y57449294D01*
X94155134Y57634866D01*
X94340706Y57860986D01*
X94478599Y58118966D01*
X94563513Y58398889D01*
X94592185Y58690000D01*
X94563513Y58981111D01*
X94478599Y59261034D01*
X94340706Y59519014D01*
X94155134Y59745134D01*
X93929014Y59930706D01*
X93860000Y59967595D01*
X93860000Y65032405D01*
X93929014Y65069294D01*
X94155134Y65254866D01*
X94340706Y65480986D01*
X94478599Y65738966D01*
X94563513Y66018889D01*
X94592185Y66310000D01*
X94563513Y66601111D01*
X94478599Y66881034D01*
X94340706Y67139014D01*
X94155134Y67365134D01*
X93929014Y67550706D01*
X93671034Y67688599D01*
X93391111Y67773513D01*
X93172950Y67795000D01*
X93027050Y67795000D01*
X92808889Y67773513D01*
X92528966Y67688599D01*
X92270986Y67550706D01*
X92044866Y67365134D01*
X91859294Y67139014D01*
X91830000Y67084209D01*
X91800706Y67139014D01*
X91615134Y67365134D01*
X91389014Y67550706D01*
X91131034Y67688599D01*
X90851111Y67773513D01*
X90632950Y67795000D01*
X90487050Y67795000D01*
X90268889Y67773513D01*
X89988966Y67688599D01*
X89730986Y67550706D01*
X89633061Y67470341D01*
X85154504Y71948897D01*
X85130701Y71977901D01*
X85014976Y72072874D01*
X84882947Y72143446D01*
X84739686Y72186903D01*
X84628033Y72197900D01*
X84628022Y72197900D01*
X84590700Y72201576D01*
X84553378Y72197900D01*
X20796023Y72197900D01*
X20758700Y72201576D01*
X20721377Y72197900D01*
X20721367Y72197900D01*
X20609714Y72186903D01*
X20466453Y72143446D01*
X20334423Y72072874D01*
X20250783Y72004232D01*
X20218699Y71977901D01*
X20194901Y71948903D01*
X18966275Y70720277D01*
X18858932Y70921101D01*
X18679608Y71139608D01*
X18461101Y71318932D01*
X18211808Y71452182D01*
X17941309Y71534236D01*
X17730492Y71555000D01*
X17589508Y71555000D01*
X17378691Y71534236D01*
X17108192Y71452182D01*
X16858899Y71318932D01*
X16640392Y71139608D01*
X16461068Y70921101D01*
X16390000Y70788142D01*
X16318932Y70921101D01*
X16139608Y71139608D01*
X15921101Y71318932D01*
X15671808Y71452182D01*
X15401309Y71534236D01*
X15190492Y71555000D01*
X15049508Y71555000D01*
X14838691Y71534236D01*
X14568192Y71452182D01*
X14318899Y71318932D01*
X14100392Y71139608D01*
X13921068Y70921101D01*
X13850000Y70788142D01*
X13778932Y70921101D01*
X13599608Y71139608D01*
X13381101Y71318932D01*
X13131808Y71452182D01*
X12861309Y71534236D01*
X12650492Y71555000D01*
X12509508Y71555000D01*
X12298691Y71534236D01*
X12028192Y71452182D01*
X11778899Y71318932D01*
X11560392Y71139608D01*
X11381068Y70921101D01*
X11310000Y70788142D01*
X11238932Y70921101D01*
X11059608Y71139608D01*
X10841101Y71318932D01*
X10591808Y71452182D01*
X10321309Y71534236D01*
X10110492Y71555000D01*
X9969508Y71555000D01*
X9758691Y71534236D01*
X9488192Y71452182D01*
X9238899Y71318932D01*
X9020392Y71139608D01*
X8841068Y70921101D01*
X8770000Y70788142D01*
X8698932Y70921101D01*
X8519608Y71139608D01*
X8301101Y71318932D01*
X8051808Y71452182D01*
X7781309Y71534236D01*
X7570492Y71555000D01*
X7429508Y71555000D01*
X7218691Y71534236D01*
X6948192Y71452182D01*
X6698899Y71318932D01*
X6480392Y71139608D01*
X6301068Y70921101D01*
X6167818Y70671808D01*
X6085764Y70401309D01*
X6058057Y70120000D01*
X6085764Y69838691D01*
X6167818Y69568192D01*
X6301068Y69318899D01*
X6480392Y69100392D01*
X6508128Y69077630D01*
X2308398Y64877899D01*
X2279400Y64854101D01*
X2255602Y64825103D01*
X2255601Y64825102D01*
X2184426Y64738376D01*
X2113854Y64606346D01*
X2102904Y64570246D01*
X2070398Y64463086D01*
X2064648Y64404701D01*
X2055724Y64314100D01*
X1127000Y64314100D01*
X1127000Y73873000D01*
X98873000Y73873000D01*
X98873000Y1127000D01*
X98873000Y1127000D01*
G37*
X98873000Y1127000D02*
X1127000Y1127000D01*
X1127000Y64314100D01*
X2055724Y64314100D01*
X2059401Y64276767D01*
X2059400Y18217922D01*
X2055724Y18180600D01*
X2059400Y18143278D01*
X2059400Y18143268D01*
X2070397Y18031615D01*
X2096050Y17947047D01*
X2113854Y17888354D01*
X2184426Y17756324D01*
X2224271Y17707774D01*
X2279399Y17640599D01*
X2308403Y17616796D01*
X7683823Y12241375D01*
X7677832Y12226912D01*
X7615000Y11911033D01*
X7615000Y11588967D01*
X7677832Y11273088D01*
X7801082Y10975537D01*
X7980013Y10707748D01*
X8207748Y10480013D01*
X8475537Y10301082D01*
X8490001Y10295091D01*
X8490000Y6704909D01*
X8475537Y6698918D01*
X8207748Y6519987D01*
X7980013Y6292252D01*
X7801082Y6024463D01*
X7677832Y5726912D01*
X7615000Y5411033D01*
X7615000Y5088967D01*
X7677832Y4773088D01*
X7801082Y4475537D01*
X7980013Y4207748D01*
X8207748Y3980013D01*
X8475537Y3801082D01*
X8773088Y3677832D01*
X9088967Y3615000D01*
X9411033Y3615000D01*
X9726912Y3677832D01*
X10024463Y3801082D01*
X10292252Y3980013D01*
X10519987Y4207748D01*
X10698918Y4475537D01*
X10822168Y4773088D01*
X10885000Y5088967D01*
X10885000Y5411033D01*
X10822168Y5726912D01*
X10698918Y6024463D01*
X10519987Y6292252D01*
X10292252Y6519987D01*
X10024463Y6698918D01*
X10010000Y6704909D01*
X10010000Y10295091D01*
X10024463Y10301082D01*
X10292252Y10480013D01*
X10519987Y10707748D01*
X10698918Y10975537D01*
X10822168Y11273088D01*
X10885000Y11588967D01*
X10885000Y11911033D01*
X12115000Y11911033D01*
X12115000Y11588967D01*
X12177832Y11273088D01*
X12301082Y10975537D01*
X12480013Y10707748D01*
X12707748Y10480013D01*
X12975537Y10301082D01*
X12990001Y10295091D01*
X12990000Y6704909D01*
X12975537Y6698918D01*
X12707748Y6519987D01*
X12480013Y6292252D01*
X12301082Y6024463D01*
X12177832Y5726912D01*
X12115000Y5411033D01*
X12115000Y5088967D01*
X12177832Y4773088D01*
X12301082Y4475537D01*
X12480013Y4207748D01*
X12707748Y3980013D01*
X12975537Y3801082D01*
X13273088Y3677832D01*
X13588967Y3615000D01*
X13911033Y3615000D01*
X14226912Y3677832D01*
X14524463Y3801082D01*
X14792252Y3980013D01*
X15019987Y4207748D01*
X15198918Y4475537D01*
X15322168Y4773088D01*
X15385000Y5088967D01*
X15385000Y5411033D01*
X15322168Y5726912D01*
X15198918Y6024463D01*
X15019987Y6292252D01*
X14792252Y6519987D01*
X14524463Y6698918D01*
X14510000Y6704909D01*
X14510000Y10295091D01*
X14524463Y10301082D01*
X14792252Y10480013D01*
X15019987Y10707748D01*
X15198918Y10975537D01*
X15322168Y11273088D01*
X15385000Y11588967D01*
X15385000Y11911033D01*
X18615000Y11911033D01*
X18615000Y11588967D01*
X18677832Y11273088D01*
X18801082Y10975537D01*
X18980013Y10707748D01*
X19207748Y10480013D01*
X19475537Y10301082D01*
X19490000Y10295091D01*
X19490001Y6704909D01*
X19475537Y6698918D01*
X19207748Y6519987D01*
X18980013Y6292252D01*
X18801082Y6024463D01*
X18677832Y5726912D01*
X18615000Y5411033D01*
X18615000Y5088967D01*
X18677832Y4773088D01*
X18801082Y4475537D01*
X18980013Y4207748D01*
X19207748Y3980013D01*
X19475537Y3801082D01*
X19773088Y3677832D01*
X20088967Y3615000D01*
X20411033Y3615000D01*
X20726912Y3677832D01*
X21024463Y3801082D01*
X21292252Y3980013D01*
X21519987Y4207748D01*
X21698918Y4475537D01*
X21822168Y4773088D01*
X21885000Y5088967D01*
X21885000Y5411033D01*
X21822168Y5726912D01*
X21698918Y6024463D01*
X21519987Y6292252D01*
X21292252Y6519987D01*
X21024463Y6698918D01*
X21010000Y6704909D01*
X21010000Y10295091D01*
X21024463Y10301082D01*
X21292252Y10480013D01*
X21519987Y10707748D01*
X21698918Y10975537D01*
X21822168Y11273088D01*
X21885000Y11588967D01*
X21885000Y11911033D01*
X23115000Y11911033D01*
X23115000Y11588967D01*
X23177832Y11273088D01*
X23301082Y10975537D01*
X23480013Y10707748D01*
X23707748Y10480013D01*
X23975537Y10301082D01*
X23990000Y10295091D01*
X23990001Y6704909D01*
X23975537Y6698918D01*
X23707748Y6519987D01*
X23480013Y6292252D01*
X23301082Y6024463D01*
X23177832Y5726912D01*
X23115000Y5411033D01*
X23115000Y5088967D01*
X23177832Y4773088D01*
X23301082Y4475537D01*
X23480013Y4207748D01*
X23707748Y3980013D01*
X23975537Y3801082D01*
X24273088Y3677832D01*
X24588967Y3615000D01*
X24911033Y3615000D01*
X25226912Y3677832D01*
X25524463Y3801082D01*
X25792252Y3980013D01*
X26019987Y4207748D01*
X26198918Y4475537D01*
X26322168Y4773088D01*
X26385000Y5088967D01*
X26385000Y5411033D01*
X26322168Y5726912D01*
X26198918Y6024463D01*
X26019987Y6292252D01*
X25792252Y6519987D01*
X25524463Y6698918D01*
X25510000Y6704909D01*
X25510000Y10295091D01*
X25524463Y10301082D01*
X25792252Y10480013D01*
X26019987Y10707748D01*
X26198918Y10975537D01*
X26322168Y11273088D01*
X26385000Y11588967D01*
X26385000Y11911033D01*
X29615000Y11911033D01*
X29615000Y11588967D01*
X29677832Y11273088D01*
X29801082Y10975537D01*
X29980013Y10707748D01*
X30207748Y10480013D01*
X30475537Y10301082D01*
X30490001Y10295091D01*
X30490000Y6704909D01*
X30475537Y6698918D01*
X30207748Y6519987D01*
X29980013Y6292252D01*
X29801082Y6024463D01*
X29677832Y5726912D01*
X29615000Y5411033D01*
X29615000Y5088967D01*
X29677832Y4773088D01*
X29801082Y4475537D01*
X29980013Y4207748D01*
X30207748Y3980013D01*
X30475537Y3801082D01*
X30773088Y3677832D01*
X31088967Y3615000D01*
X31411033Y3615000D01*
X31726912Y3677832D01*
X32024463Y3801082D01*
X32292252Y3980013D01*
X32519987Y4207748D01*
X32698918Y4475537D01*
X32822168Y4773088D01*
X32885000Y5088967D01*
X32885000Y5411033D01*
X32822168Y5726912D01*
X32698918Y6024463D01*
X32519987Y6292252D01*
X32292252Y6519987D01*
X32024463Y6698918D01*
X32010000Y6704909D01*
X32010000Y10295091D01*
X32024463Y10301082D01*
X32292252Y10480013D01*
X32519987Y10707748D01*
X32698918Y10975537D01*
X32822168Y11273088D01*
X32885000Y11588967D01*
X32885000Y11911033D01*
X34115000Y11911033D01*
X34115000Y11588967D01*
X34177832Y11273088D01*
X34301082Y10975537D01*
X34480013Y10707748D01*
X34707748Y10480013D01*
X34975537Y10301082D01*
X34990001Y10295091D01*
X34990000Y6704909D01*
X34975537Y6698918D01*
X34707748Y6519987D01*
X34480013Y6292252D01*
X34301082Y6024463D01*
X34177832Y5726912D01*
X34115000Y5411033D01*
X34115000Y5088967D01*
X34177832Y4773088D01*
X34301082Y4475537D01*
X34480013Y4207748D01*
X34707748Y3980013D01*
X34975537Y3801082D01*
X35273088Y3677832D01*
X35588967Y3615000D01*
X35911033Y3615000D01*
X36226912Y3677832D01*
X36524463Y3801082D01*
X36792252Y3980013D01*
X37019987Y4207748D01*
X37198918Y4475537D01*
X37322168Y4773088D01*
X37385000Y5088967D01*
X37385000Y5411033D01*
X37322168Y5726912D01*
X37198918Y6024463D01*
X37019987Y6292252D01*
X36792252Y6519987D01*
X36524463Y6698918D01*
X36510000Y6704909D01*
X36510000Y10295091D01*
X36524463Y10301082D01*
X36792252Y10480013D01*
X37019987Y10707748D01*
X37198918Y10975537D01*
X37322168Y11273088D01*
X37385000Y11588967D01*
X37385000Y11911033D01*
X40615000Y11911033D01*
X40615000Y11588967D01*
X40677832Y11273088D01*
X40801082Y10975537D01*
X40980013Y10707748D01*
X41207748Y10480013D01*
X41475537Y10301082D01*
X41490000Y10295091D01*
X41490001Y6704909D01*
X41475537Y6698918D01*
X41207748Y6519987D01*
X40980013Y6292252D01*
X40801082Y6024463D01*
X40677832Y5726912D01*
X40615000Y5411033D01*
X40615000Y5088967D01*
X40677832Y4773088D01*
X40801082Y4475537D01*
X40980013Y4207748D01*
X41207748Y3980013D01*
X41475537Y3801082D01*
X41773088Y3677832D01*
X42088967Y3615000D01*
X42411033Y3615000D01*
X42726912Y3677832D01*
X43024463Y3801082D01*
X43292252Y3980013D01*
X43519987Y4207748D01*
X43698918Y4475537D01*
X43822168Y4773088D01*
X43885000Y5088967D01*
X43885000Y5411033D01*
X43822168Y5726912D01*
X43698918Y6024463D01*
X43519987Y6292252D01*
X43292252Y6519987D01*
X43024463Y6698918D01*
X43010000Y6704909D01*
X43010000Y10295091D01*
X43024463Y10301082D01*
X43292252Y10480013D01*
X43519987Y10707748D01*
X43698918Y10975537D01*
X43822168Y11273088D01*
X43885000Y11588967D01*
X43885000Y11911033D01*
X45115000Y11911033D01*
X45115000Y11588967D01*
X45177832Y11273088D01*
X45301082Y10975537D01*
X45480013Y10707748D01*
X45707748Y10480013D01*
X45975537Y10301082D01*
X45990000Y10295091D01*
X45990001Y6704909D01*
X45975537Y6698918D01*
X45707748Y6519987D01*
X45480013Y6292252D01*
X45301082Y6024463D01*
X45177832Y5726912D01*
X45115000Y5411033D01*
X45115000Y5088967D01*
X45177832Y4773088D01*
X45301082Y4475537D01*
X45480013Y4207748D01*
X45707748Y3980013D01*
X45975537Y3801082D01*
X46273088Y3677832D01*
X46588967Y3615000D01*
X46911033Y3615000D01*
X47226912Y3677832D01*
X47524463Y3801082D01*
X47792252Y3980013D01*
X48019987Y4207748D01*
X48198918Y4475537D01*
X48322168Y4773088D01*
X48385000Y5088967D01*
X48385000Y5411033D01*
X48322168Y5726912D01*
X48198918Y6024463D01*
X48019987Y6292252D01*
X47792252Y6519987D01*
X47524463Y6698918D01*
X47510000Y6704909D01*
X47510000Y10295091D01*
X47524463Y10301082D01*
X47792252Y10480013D01*
X48019987Y10707748D01*
X48198918Y10975537D01*
X48322168Y11273088D01*
X48385000Y11588967D01*
X48385000Y11911033D01*
X51615000Y11911033D01*
X51615000Y11588967D01*
X51677832Y11273088D01*
X51801082Y10975537D01*
X51980013Y10707748D01*
X52207748Y10480013D01*
X52475537Y10301082D01*
X52490001Y10295091D01*
X52490000Y6704909D01*
X52475537Y6698918D01*
X52207748Y6519987D01*
X51980013Y6292252D01*
X51801082Y6024463D01*
X51677832Y5726912D01*
X51615000Y5411033D01*
X51615000Y5088967D01*
X51677832Y4773088D01*
X51801082Y4475537D01*
X51980013Y4207748D01*
X52207748Y3980013D01*
X52475537Y3801082D01*
X52773088Y3677832D01*
X53088967Y3615000D01*
X53411033Y3615000D01*
X53726912Y3677832D01*
X54024463Y3801082D01*
X54292252Y3980013D01*
X54519987Y4207748D01*
X54698918Y4475537D01*
X54822168Y4773088D01*
X54885000Y5088967D01*
X54885000Y5411033D01*
X54822168Y5726912D01*
X54698918Y6024463D01*
X54519987Y6292252D01*
X54292252Y6519987D01*
X54024463Y6698918D01*
X54010000Y6704909D01*
X54010000Y10295091D01*
X54024463Y10301082D01*
X54292252Y10480013D01*
X54519987Y10707748D01*
X54698918Y10975537D01*
X54822168Y11273088D01*
X54885000Y11588967D01*
X54885000Y11911033D01*
X56115000Y11911033D01*
X56115000Y11588967D01*
X56177832Y11273088D01*
X56301082Y10975537D01*
X56480013Y10707748D01*
X56707748Y10480013D01*
X56975537Y10301082D01*
X56990001Y10295091D01*
X56990000Y6704909D01*
X56975537Y6698918D01*
X56707748Y6519987D01*
X56480013Y6292252D01*
X56301082Y6024463D01*
X56177832Y5726912D01*
X56115000Y5411033D01*
X56115000Y5088967D01*
X56177832Y4773088D01*
X56301082Y4475537D01*
X56480013Y4207748D01*
X56707748Y3980013D01*
X56975537Y3801082D01*
X57273088Y3677832D01*
X57588967Y3615000D01*
X57911033Y3615000D01*
X58226912Y3677832D01*
X58524463Y3801082D01*
X58792252Y3980013D01*
X59019987Y4207748D01*
X59198918Y4475537D01*
X59322168Y4773088D01*
X59385000Y5088967D01*
X59385000Y5411033D01*
X62615000Y5411033D01*
X62615000Y5088967D01*
X62677832Y4773088D01*
X62801082Y4475537D01*
X62980013Y4207748D01*
X63207748Y3980013D01*
X63475537Y3801082D01*
X63773088Y3677832D01*
X64088967Y3615000D01*
X64411033Y3615000D01*
X64726912Y3677832D01*
X65024463Y3801082D01*
X65292252Y3980013D01*
X65519987Y4207748D01*
X65698918Y4475537D01*
X65822168Y4773088D01*
X65885000Y5088967D01*
X65885000Y5411033D01*
X65822168Y5726912D01*
X65698918Y6024463D01*
X65519987Y6292252D01*
X65292252Y6519987D01*
X65024463Y6698918D01*
X64726912Y6822168D01*
X64411033Y6885000D01*
X64088967Y6885000D01*
X63773088Y6822168D01*
X63475537Y6698918D01*
X63207748Y6519987D01*
X62980013Y6292252D01*
X62801082Y6024463D01*
X62677832Y5726912D01*
X62615000Y5411033D01*
X59385000Y5411033D01*
X59322168Y5726912D01*
X59198918Y6024463D01*
X59019987Y6292252D01*
X58792252Y6519987D01*
X58524463Y6698918D01*
X58510000Y6704909D01*
X58510000Y10295091D01*
X58524463Y10301082D01*
X58792252Y10480013D01*
X59019987Y10707748D01*
X59198918Y10975537D01*
X59322168Y11273088D01*
X59385000Y11588967D01*
X59385000Y11911033D01*
X62615000Y11911033D01*
X62615000Y11588967D01*
X62677832Y11273088D01*
X62801082Y10975537D01*
X62980013Y10707748D01*
X63207748Y10480013D01*
X63475537Y10301082D01*
X63773088Y10177832D01*
X64088967Y10115000D01*
X64411033Y10115000D01*
X64726912Y10177832D01*
X65024463Y10301082D01*
X65292252Y10480013D01*
X65519987Y10707748D01*
X65698918Y10975537D01*
X65822168Y11273088D01*
X65885000Y11588967D01*
X65885000Y11911033D01*
X67115000Y11911033D01*
X67115000Y11588967D01*
X67177832Y11273088D01*
X67301082Y10975537D01*
X67480013Y10707748D01*
X67707748Y10480013D01*
X67975537Y10301082D01*
X67990000Y10295091D01*
X67990001Y6704909D01*
X67975537Y6698918D01*
X67707748Y6519987D01*
X67480013Y6292252D01*
X67301082Y6024463D01*
X67177832Y5726912D01*
X67115000Y5411033D01*
X67115000Y5088967D01*
X67177832Y4773088D01*
X67301082Y4475537D01*
X67480013Y4207748D01*
X67707748Y3980013D01*
X67975537Y3801082D01*
X68273088Y3677832D01*
X68588967Y3615000D01*
X68911033Y3615000D01*
X69226912Y3677832D01*
X69524463Y3801082D01*
X69792252Y3980013D01*
X70019987Y4207748D01*
X70198918Y4475537D01*
X70322168Y4773088D01*
X70385000Y5088967D01*
X70385000Y5411033D01*
X73615000Y5411033D01*
X73615000Y5088967D01*
X73677832Y4773088D01*
X73801082Y4475537D01*
X73980013Y4207748D01*
X74207748Y3980013D01*
X74475537Y3801082D01*
X74773088Y3677832D01*
X75088967Y3615000D01*
X75411033Y3615000D01*
X75726912Y3677832D01*
X76024463Y3801082D01*
X76292252Y3980013D01*
X76519987Y4207748D01*
X76698918Y4475537D01*
X76822168Y4773088D01*
X76885000Y5088967D01*
X76885000Y5411033D01*
X76822168Y5726912D01*
X76698918Y6024463D01*
X76519987Y6292252D01*
X76292252Y6519987D01*
X76024463Y6698918D01*
X75726912Y6822168D01*
X75411033Y6885000D01*
X75088967Y6885000D01*
X74773088Y6822168D01*
X74475537Y6698918D01*
X74207748Y6519987D01*
X73980013Y6292252D01*
X73801082Y6024463D01*
X73677832Y5726912D01*
X73615000Y5411033D01*
X70385000Y5411033D01*
X70322168Y5726912D01*
X70198918Y6024463D01*
X70019987Y6292252D01*
X69792252Y6519987D01*
X69524463Y6698918D01*
X69510000Y6704909D01*
X69510000Y10295091D01*
X69524463Y10301082D01*
X69792252Y10480013D01*
X70019987Y10707748D01*
X70198918Y10975537D01*
X70322168Y11273088D01*
X70385000Y11588967D01*
X70385000Y11911033D01*
X73615000Y11911033D01*
X73615000Y11588967D01*
X73677832Y11273088D01*
X73801082Y10975537D01*
X73980013Y10707748D01*
X74207748Y10480013D01*
X74475537Y10301082D01*
X74773088Y10177832D01*
X75088967Y10115000D01*
X75411033Y10115000D01*
X75726912Y10177832D01*
X76024463Y10301082D01*
X76292252Y10480013D01*
X76519987Y10707748D01*
X76698918Y10975537D01*
X76822168Y11273088D01*
X76885000Y11588967D01*
X76885000Y11911033D01*
X78115000Y11911033D01*
X78115000Y11588967D01*
X78177832Y11273088D01*
X78301082Y10975537D01*
X78480013Y10707748D01*
X78707748Y10480013D01*
X78975537Y10301082D01*
X78990001Y10295091D01*
X78990000Y6704909D01*
X78975537Y6698918D01*
X78707748Y6519987D01*
X78480013Y6292252D01*
X78301082Y6024463D01*
X78177832Y5726912D01*
X78115000Y5411033D01*
X78115000Y5088967D01*
X78177832Y4773088D01*
X78301082Y4475537D01*
X78480013Y4207748D01*
X78707748Y3980013D01*
X78975537Y3801082D01*
X79273088Y3677832D01*
X79588967Y3615000D01*
X79911033Y3615000D01*
X80226912Y3677832D01*
X80524463Y3801082D01*
X80792252Y3980013D01*
X81019987Y4207748D01*
X81198918Y4475537D01*
X81322168Y4773088D01*
X81385000Y5088967D01*
X81385000Y5411033D01*
X84615000Y5411033D01*
X84615000Y5088967D01*
X84677832Y4773088D01*
X84801082Y4475537D01*
X84980013Y4207748D01*
X85207748Y3980013D01*
X85475537Y3801082D01*
X85773088Y3677832D01*
X86088967Y3615000D01*
X86411033Y3615000D01*
X86726912Y3677832D01*
X87024463Y3801082D01*
X87292252Y3980013D01*
X87519987Y4207748D01*
X87698918Y4475537D01*
X87822168Y4773088D01*
X87885000Y5088967D01*
X87885000Y5411033D01*
X87822168Y5726912D01*
X87698918Y6024463D01*
X87519987Y6292252D01*
X87292252Y6519987D01*
X87024463Y6698918D01*
X86726912Y6822168D01*
X86411033Y6885000D01*
X86088967Y6885000D01*
X85773088Y6822168D01*
X85475537Y6698918D01*
X85207748Y6519987D01*
X84980013Y6292252D01*
X84801082Y6024463D01*
X84677832Y5726912D01*
X84615000Y5411033D01*
X81385000Y5411033D01*
X81322168Y5726912D01*
X81198918Y6024463D01*
X81019987Y6292252D01*
X80792252Y6519987D01*
X80524463Y6698918D01*
X80510000Y6704909D01*
X80510000Y10295091D01*
X80524463Y10301082D01*
X80792252Y10480013D01*
X81019987Y10707748D01*
X81198918Y10975537D01*
X81322168Y11273088D01*
X81385000Y11588967D01*
X81385000Y11911033D01*
X84615000Y11911033D01*
X84615000Y11588967D01*
X84677832Y11273088D01*
X84801082Y10975537D01*
X84980013Y10707748D01*
X85207748Y10480013D01*
X85475537Y10301082D01*
X85773088Y10177832D01*
X86088967Y10115000D01*
X86411033Y10115000D01*
X86726912Y10177832D01*
X87024463Y10301082D01*
X87292252Y10480013D01*
X87519987Y10707748D01*
X87698918Y10975537D01*
X87822168Y11273088D01*
X87885000Y11588967D01*
X87885000Y11911033D01*
X89115000Y11911033D01*
X89115000Y11588967D01*
X89177832Y11273088D01*
X89301082Y10975537D01*
X89480013Y10707748D01*
X89707748Y10480013D01*
X89975537Y10301082D01*
X89990000Y10295091D01*
X89990001Y6704909D01*
X89975537Y6698918D01*
X89707748Y6519987D01*
X89480013Y6292252D01*
X89301082Y6024463D01*
X89177832Y5726912D01*
X89115000Y5411033D01*
X89115000Y5088967D01*
X89177832Y4773088D01*
X89301082Y4475537D01*
X89480013Y4207748D01*
X89707748Y3980013D01*
X89975537Y3801082D01*
X90273088Y3677832D01*
X90588967Y3615000D01*
X90911033Y3615000D01*
X91226912Y3677832D01*
X91524463Y3801082D01*
X91792252Y3980013D01*
X92019987Y4207748D01*
X92198918Y4475537D01*
X92322168Y4773088D01*
X92385000Y5088967D01*
X92385000Y5411033D01*
X92322168Y5726912D01*
X92198918Y6024463D01*
X92019987Y6292252D01*
X91792252Y6519987D01*
X91524463Y6698918D01*
X91510000Y6704909D01*
X91510000Y10295091D01*
X91524463Y10301082D01*
X91792252Y10480013D01*
X92019987Y10707748D01*
X92198918Y10975537D01*
X92322168Y11273088D01*
X92385000Y11588967D01*
X92385000Y11911033D01*
X92322168Y12226912D01*
X92198918Y12524463D01*
X92019987Y12792252D01*
X91792252Y13019987D01*
X91524463Y13198918D01*
X91226912Y13322168D01*
X90911033Y13385000D01*
X90588967Y13385000D01*
X90273088Y13322168D01*
X89975537Y13198918D01*
X89707748Y13019987D01*
X89480013Y12792252D01*
X89301082Y12524463D01*
X89177832Y12226912D01*
X89115000Y11911033D01*
X87885000Y11911033D01*
X87822168Y12226912D01*
X87698918Y12524463D01*
X87519987Y12792252D01*
X87292252Y13019987D01*
X87024463Y13198918D01*
X86726912Y13322168D01*
X86411033Y13385000D01*
X86088967Y13385000D01*
X85773088Y13322168D01*
X85475537Y13198918D01*
X85207748Y13019987D01*
X84980013Y12792252D01*
X84801082Y12524463D01*
X84677832Y12226912D01*
X84615000Y11911033D01*
X81385000Y11911033D01*
X81322168Y12226912D01*
X81198918Y12524463D01*
X81019987Y12792252D01*
X80792252Y13019987D01*
X80524463Y13198918D01*
X80226912Y13322168D01*
X79911033Y13385000D01*
X79588967Y13385000D01*
X79273088Y13322168D01*
X78975537Y13198918D01*
X78707748Y13019987D01*
X78480013Y12792252D01*
X78301082Y12524463D01*
X78177832Y12226912D01*
X78115000Y11911033D01*
X76885000Y11911033D01*
X76822168Y12226912D01*
X76698918Y12524463D01*
X76519987Y12792252D01*
X76292252Y13019987D01*
X76024463Y13198918D01*
X75726912Y13322168D01*
X75411033Y13385000D01*
X75088967Y13385000D01*
X74773088Y13322168D01*
X74475537Y13198918D01*
X74207748Y13019987D01*
X73980013Y12792252D01*
X73801082Y12524463D01*
X73677832Y12226912D01*
X73615000Y11911033D01*
X70385000Y11911033D01*
X70322168Y12226912D01*
X70198918Y12524463D01*
X70019987Y12792252D01*
X69792252Y13019987D01*
X69524463Y13198918D01*
X69226912Y13322168D01*
X68911033Y13385000D01*
X68588967Y13385000D01*
X68273088Y13322168D01*
X67975537Y13198918D01*
X67707748Y13019987D01*
X67480013Y12792252D01*
X67301082Y12524463D01*
X67177832Y12226912D01*
X67115000Y11911033D01*
X65885000Y11911033D01*
X65822168Y12226912D01*
X65698918Y12524463D01*
X65519987Y12792252D01*
X65292252Y13019987D01*
X65024463Y13198918D01*
X64726912Y13322168D01*
X64411033Y13385000D01*
X64088967Y13385000D01*
X63773088Y13322168D01*
X63475537Y13198918D01*
X63207748Y13019987D01*
X62980013Y12792252D01*
X62801082Y12524463D01*
X62677832Y12226912D01*
X62615000Y11911033D01*
X59385000Y11911033D01*
X59322168Y12226912D01*
X59198918Y12524463D01*
X59019987Y12792252D01*
X58792252Y13019987D01*
X58524463Y13198918D01*
X58226912Y13322168D01*
X57911033Y13385000D01*
X57588967Y13385000D01*
X57273088Y13322168D01*
X56975537Y13198918D01*
X56707748Y13019987D01*
X56480013Y12792252D01*
X56301082Y12524463D01*
X56177832Y12226912D01*
X56115000Y11911033D01*
X54885000Y11911033D01*
X54822168Y12226912D01*
X54698918Y12524463D01*
X54519987Y12792252D01*
X54292252Y13019987D01*
X54024463Y13198918D01*
X53726912Y13322168D01*
X53411033Y13385000D01*
X53088967Y13385000D01*
X52773088Y13322168D01*
X52475537Y13198918D01*
X52207748Y13019987D01*
X51980013Y12792252D01*
X51801082Y12524463D01*
X51677832Y12226912D01*
X51615000Y11911033D01*
X48385000Y11911033D01*
X48322168Y12226912D01*
X48198918Y12524463D01*
X48019987Y12792252D01*
X47792252Y13019987D01*
X47524463Y13198918D01*
X47226912Y13322168D01*
X46911033Y13385000D01*
X46588967Y13385000D01*
X46273088Y13322168D01*
X45975537Y13198918D01*
X45707748Y13019987D01*
X45480013Y12792252D01*
X45301082Y12524463D01*
X45177832Y12226912D01*
X45115000Y11911033D01*
X43885000Y11911033D01*
X43822168Y12226912D01*
X43698918Y12524463D01*
X43519987Y12792252D01*
X43292252Y13019987D01*
X43024463Y13198918D01*
X42726912Y13322168D01*
X42411033Y13385000D01*
X42088967Y13385000D01*
X41773088Y13322168D01*
X41475537Y13198918D01*
X41207748Y13019987D01*
X40980013Y12792252D01*
X40801082Y12524463D01*
X40677832Y12226912D01*
X40615000Y11911033D01*
X37385000Y11911033D01*
X37322168Y12226912D01*
X37198918Y12524463D01*
X37019987Y12792252D01*
X36792252Y13019987D01*
X36524463Y13198918D01*
X36226912Y13322168D01*
X35911033Y13385000D01*
X35588967Y13385000D01*
X35273088Y13322168D01*
X34975537Y13198918D01*
X34707748Y13019987D01*
X34480013Y12792252D01*
X34301082Y12524463D01*
X34177832Y12226912D01*
X34115000Y11911033D01*
X32885000Y11911033D01*
X32822168Y12226912D01*
X32698918Y12524463D01*
X32519987Y12792252D01*
X32292252Y13019987D01*
X32024463Y13198918D01*
X31726912Y13322168D01*
X31411033Y13385000D01*
X31088967Y13385000D01*
X30773088Y13322168D01*
X30475537Y13198918D01*
X30207748Y13019987D01*
X29980013Y12792252D01*
X29801082Y12524463D01*
X29677832Y12226912D01*
X29615000Y11911033D01*
X26385000Y11911033D01*
X26322168Y12226912D01*
X26198918Y12524463D01*
X26019987Y12792252D01*
X25792252Y13019987D01*
X25524463Y13198918D01*
X25226912Y13322168D01*
X24911033Y13385000D01*
X24588967Y13385000D01*
X24273088Y13322168D01*
X23975537Y13198918D01*
X23707748Y13019987D01*
X23480013Y12792252D01*
X23301082Y12524463D01*
X23177832Y12226912D01*
X23115000Y11911033D01*
X21885000Y11911033D01*
X21822168Y12226912D01*
X21698918Y12524463D01*
X21519987Y12792252D01*
X21292252Y13019987D01*
X21024463Y13198918D01*
X20726912Y13322168D01*
X20411033Y13385000D01*
X20088967Y13385000D01*
X19773088Y13322168D01*
X19475537Y13198918D01*
X19207748Y13019987D01*
X18980013Y12792252D01*
X18801082Y12524463D01*
X18677832Y12226912D01*
X18615000Y11911033D01*
X15385000Y11911033D01*
X15322168Y12226912D01*
X15198918Y12524463D01*
X15019987Y12792252D01*
X14792252Y13019987D01*
X14524463Y13198918D01*
X14226912Y13322168D01*
X13911033Y13385000D01*
X13588967Y13385000D01*
X13273088Y13322168D01*
X12975537Y13198918D01*
X12707748Y13019987D01*
X12480013Y12792252D01*
X12301082Y12524463D01*
X12177832Y12226912D01*
X12115000Y11911033D01*
X10885000Y11911033D01*
X10822168Y12226912D01*
X10698918Y12524463D01*
X10519987Y12792252D01*
X10292252Y13019987D01*
X10024463Y13198918D01*
X9726912Y13322168D01*
X9411033Y13385000D01*
X9088967Y13385000D01*
X8773088Y13322168D01*
X8758625Y13316177D01*
X3579400Y18495401D01*
X3579400Y21500000D01*
X20361928Y21500000D01*
X20361928Y18500000D01*
X20374188Y18375518D01*
X20410498Y18255820D01*
X20469463Y18145506D01*
X20548815Y18048815D01*
X20645506Y17969463D01*
X20755820Y17910498D01*
X20875518Y17874188D01*
X21000000Y17861928D01*
X24000000Y17861928D01*
X24124482Y17874188D01*
X24244180Y17910498D01*
X24354494Y17969463D01*
X24451185Y18048815D01*
X24530537Y18145506D01*
X24589502Y18255820D01*
X24625812Y18375518D01*
X24638072Y18500000D01*
X24638072Y20210279D01*
X40855000Y20210279D01*
X40855000Y19789721D01*
X40937047Y19377244D01*
X41097988Y18988698D01*
X41331637Y18639017D01*
X41629017Y18341637D01*
X41978698Y18107988D01*
X42367244Y17947047D01*
X42779721Y17865000D01*
X43200279Y17865000D01*
X43612756Y17947047D01*
X44001302Y18107988D01*
X44350983Y18341637D01*
X44648363Y18639017D01*
X44882012Y18988698D01*
X45042953Y19377244D01*
X45125000Y19789721D01*
X45125000Y20210279D01*
X45042953Y20622756D01*
X44882012Y21011302D01*
X44648363Y21360983D01*
X44509346Y21500000D01*
X57861928Y21500000D01*
X57861928Y18500000D01*
X57874188Y18375518D01*
X57910498Y18255820D01*
X57969463Y18145506D01*
X58048815Y18048815D01*
X58145506Y17969463D01*
X58255820Y17910498D01*
X58375518Y17874188D01*
X58500000Y17861928D01*
X61500000Y17861928D01*
X61624482Y17874188D01*
X61744180Y17910498D01*
X61854494Y17969463D01*
X61951185Y18048815D01*
X62030537Y18145506D01*
X62089502Y18255820D01*
X62125812Y18375518D01*
X62138072Y18500000D01*
X62138072Y21500000D01*
X62125812Y21624482D01*
X62089502Y21744180D01*
X62030537Y21854494D01*
X61951185Y21951185D01*
X61854494Y22030537D01*
X61744180Y22089502D01*
X61624482Y22125812D01*
X61500000Y22138072D01*
X58500000Y22138072D01*
X58375518Y22125812D01*
X58255820Y22089502D01*
X58145506Y22030537D01*
X58048815Y21951185D01*
X57969463Y21854494D01*
X57910498Y21744180D01*
X57874188Y21624482D01*
X57861928Y21500000D01*
X44509346Y21500000D01*
X44350983Y21658363D01*
X44001302Y21892012D01*
X43612756Y22052953D01*
X43200279Y22135000D01*
X42779721Y22135000D01*
X42367244Y22052953D01*
X41978698Y21892012D01*
X41629017Y21658363D01*
X41331637Y21360983D01*
X41097988Y21011302D01*
X40937047Y20622756D01*
X40855000Y20210279D01*
X24638072Y20210279D01*
X24638072Y21500000D01*
X24625812Y21624482D01*
X24589502Y21744180D01*
X24530537Y21854494D01*
X24451185Y21951185D01*
X24354494Y22030537D01*
X24244180Y22089502D01*
X24124482Y22125812D01*
X24000000Y22138072D01*
X21000000Y22138072D01*
X20875518Y22125812D01*
X20755820Y22089502D01*
X20645506Y22030537D01*
X20548815Y21951185D01*
X20469463Y21854494D01*
X20410498Y21744180D01*
X20374188Y21624482D01*
X20361928Y21500000D01*
X3579400Y21500000D01*
X3579400Y29415767D01*
X3708889Y29376487D01*
X3927050Y29355000D01*
X4072950Y29355000D01*
X4291111Y29376487D01*
X4571034Y29461401D01*
X4829014Y29599294D01*
X5055134Y29784866D01*
X5240706Y30010986D01*
X5277595Y30080000D01*
X20994478Y30080000D01*
X21031800Y30076324D01*
X21069122Y30080000D01*
X21069133Y30080000D01*
X21180786Y30090997D01*
X21324047Y30134454D01*
X21456076Y30205026D01*
X21571801Y30299999D01*
X21595604Y30329003D01*
X31858602Y40592000D01*
X32413850Y40592000D01*
X32139017Y40408363D01*
X31841637Y40110983D01*
X31607988Y39761302D01*
X31447047Y39372756D01*
X31365000Y38960279D01*
X31365000Y38539721D01*
X31447047Y38127244D01*
X31607988Y37738698D01*
X31841637Y37389017D01*
X32139017Y37091637D01*
X32488698Y36857988D01*
X32877244Y36697047D01*
X33289721Y36615000D01*
X33710279Y36615000D01*
X34122756Y36697047D01*
X34511302Y36857988D01*
X34860983Y37091637D01*
X35158363Y37389017D01*
X35392012Y37738698D01*
X35552953Y38127244D01*
X35635000Y38539721D01*
X35635000Y38960279D01*
X35552953Y39372756D01*
X35392012Y39761302D01*
X35158363Y40110983D01*
X34860983Y40408363D01*
X34586150Y40592000D01*
X43413850Y40592000D01*
X43139017Y40408363D01*
X42841637Y40110983D01*
X42607988Y39761302D01*
X42447047Y39372756D01*
X42365000Y38960279D01*
X42365000Y38539721D01*
X42447047Y38127244D01*
X42607988Y37738698D01*
X42841637Y37389017D01*
X43139017Y37091637D01*
X43488698Y36857988D01*
X43877244Y36697047D01*
X44289721Y36615000D01*
X44710279Y36615000D01*
X45122756Y36697047D01*
X45511302Y36857988D01*
X45860983Y37091637D01*
X46158363Y37389017D01*
X46392012Y37738698D01*
X46552953Y38127244D01*
X46635000Y38539721D01*
X46635000Y38960279D01*
X53365000Y38960279D01*
X53365000Y38539721D01*
X53447047Y38127244D01*
X53607988Y37738698D01*
X53841637Y37389017D01*
X54139017Y37091637D01*
X54488698Y36857988D01*
X54877244Y36697047D01*
X55289721Y36615000D01*
X55710279Y36615000D01*
X56122756Y36697047D01*
X56511302Y36857988D01*
X56860983Y37091637D01*
X57158363Y37389017D01*
X57392012Y37738698D01*
X57552953Y38127244D01*
X57635000Y38539721D01*
X57635000Y38960279D01*
X57552953Y39372756D01*
X57392012Y39761302D01*
X57158363Y40110983D01*
X56860983Y40408363D01*
X56511302Y40642012D01*
X56122756Y40802953D01*
X55710279Y40885000D01*
X55289721Y40885000D01*
X54877244Y40802953D01*
X54488698Y40642012D01*
X54139017Y40408363D01*
X53841637Y40110983D01*
X53607988Y39761302D01*
X53447047Y39372756D01*
X53365000Y38960279D01*
X46635000Y38960279D01*
X46552953Y39372756D01*
X46392012Y39761302D01*
X46158363Y40110983D01*
X45860983Y40408363D01*
X45586150Y40592000D01*
X48362889Y40592000D01*
X48406826Y40548063D01*
X48576344Y40434795D01*
X48764702Y40356774D01*
X48964661Y40317000D01*
X49168539Y40317000D01*
X49368498Y40356774D01*
X49556856Y40434795D01*
X49726374Y40548063D01*
X49870537Y40692226D01*
X49983805Y40861744D01*
X50061826Y41050102D01*
X50101600Y41250061D01*
X50101600Y41453939D01*
X50061826Y41653898D01*
X49983805Y41842256D01*
X49870537Y42011774D01*
X49726374Y42155937D01*
X49556856Y42269205D01*
X49368498Y42347226D01*
X49168539Y42387000D01*
X48964661Y42387000D01*
X48764702Y42347226D01*
X48576344Y42269205D01*
X48406826Y42155937D01*
X48362889Y42112000D01*
X31581123Y42112000D01*
X31543800Y42115676D01*
X31506477Y42112000D01*
X31506467Y42112000D01*
X31394814Y42101003D01*
X31266187Y42061985D01*
X31251553Y42057546D01*
X31119523Y41986974D01*
X31035883Y41918332D01*
X31003799Y41892001D01*
X30980001Y41863003D01*
X20716999Y31600000D01*
X5277595Y31600000D01*
X5240706Y31669014D01*
X5055134Y31895134D01*
X4829014Y32080706D01*
X4774209Y32110000D01*
X4829014Y32139294D01*
X5055134Y32324866D01*
X5240706Y32550986D01*
X5277595Y32620000D01*
X20458578Y32620000D01*
X20495900Y32616324D01*
X20533222Y32620000D01*
X20533233Y32620000D01*
X20644886Y32630997D01*
X20788147Y32674454D01*
X20920176Y32745026D01*
X21035901Y32839999D01*
X21059704Y32869003D01*
X30848302Y42657600D01*
X59376289Y42657600D01*
X59420226Y42613663D01*
X59589744Y42500395D01*
X59778102Y42422374D01*
X59978061Y42382600D01*
X60181939Y42382600D01*
X60381898Y42422374D01*
X60570256Y42500395D01*
X60739774Y42613663D01*
X60883937Y42757826D01*
X60997205Y42927344D01*
X61075226Y43115702D01*
X61115000Y43315661D01*
X61115000Y43519539D01*
X61075226Y43719498D01*
X60997205Y43907856D01*
X60883937Y44077374D01*
X60739774Y44221537D01*
X60570256Y44334805D01*
X60381898Y44412826D01*
X60181939Y44452600D01*
X59978061Y44452600D01*
X59778102Y44412826D01*
X59589744Y44334805D01*
X59420226Y44221537D01*
X59376289Y44177600D01*
X30570822Y44177600D01*
X30533499Y44181276D01*
X30496176Y44177600D01*
X30496167Y44177600D01*
X30384514Y44166603D01*
X30241253Y44123146D01*
X30109223Y44052574D01*
X30025583Y43983932D01*
X29993499Y43957601D01*
X29969701Y43928603D01*
X24635000Y38593901D01*
X24635000Y38960279D01*
X24552953Y39372756D01*
X24392012Y39761302D01*
X24158363Y40110983D01*
X23860983Y40408363D01*
X23511302Y40642012D01*
X23122756Y40802953D01*
X22710279Y40885000D01*
X22289721Y40885000D01*
X21877244Y40802953D01*
X21488698Y40642012D01*
X21139017Y40408363D01*
X20841637Y40110983D01*
X20607988Y39761302D01*
X20447047Y39372756D01*
X20365000Y38960279D01*
X20365000Y38539721D01*
X20447047Y38127244D01*
X20607988Y37738698D01*
X20841637Y37389017D01*
X21139017Y37091637D01*
X21488698Y36857988D01*
X21877244Y36697047D01*
X22289721Y36615000D01*
X22656099Y36615000D01*
X20181099Y34140000D01*
X5277595Y34140000D01*
X5240706Y34209014D01*
X5055134Y34435134D01*
X4829014Y34620706D01*
X4774209Y34650000D01*
X4829014Y34679294D01*
X5055134Y34864866D01*
X5240706Y35090986D01*
X5378599Y35348966D01*
X5463513Y35628889D01*
X5492185Y35920000D01*
X5463513Y36211111D01*
X5378599Y36491034D01*
X5240706Y36749014D01*
X5055134Y36975134D01*
X4829014Y37160706D01*
X4774209Y37190000D01*
X4829014Y37219294D01*
X5055134Y37404866D01*
X5240706Y37630986D01*
X5378599Y37888966D01*
X5463513Y38168889D01*
X5492185Y38460000D01*
X5463513Y38751111D01*
X5400063Y38960279D01*
X9365000Y38960279D01*
X9365000Y38539721D01*
X9447047Y38127244D01*
X9607988Y37738698D01*
X9841637Y37389017D01*
X10139017Y37091637D01*
X10488698Y36857988D01*
X10877244Y36697047D01*
X11289721Y36615000D01*
X11710279Y36615000D01*
X12122756Y36697047D01*
X12511302Y36857988D01*
X12860983Y37091637D01*
X13158363Y37389017D01*
X13392012Y37738698D01*
X13552953Y38127244D01*
X13635000Y38539721D01*
X13635000Y38960279D01*
X13552953Y39372756D01*
X13392012Y39761302D01*
X13158363Y40110983D01*
X12860983Y40408363D01*
X12511302Y40642012D01*
X12122756Y40802953D01*
X11710279Y40885000D01*
X11289721Y40885000D01*
X10877244Y40802953D01*
X10488698Y40642012D01*
X10139017Y40408363D01*
X9841637Y40110983D01*
X9607988Y39761302D01*
X9447047Y39372756D01*
X9365000Y38960279D01*
X5400063Y38960279D01*
X5378599Y39031034D01*
X5345393Y39093159D01*
X5348001Y39095299D01*
X5371804Y39124303D01*
X7596703Y41349201D01*
X7625701Y41372999D01*
X7720674Y41488724D01*
X7791246Y41620753D01*
X7834703Y41764014D01*
X7845700Y41875667D01*
X7845700Y41875676D01*
X7849376Y41912999D01*
X7845700Y41950322D01*
X7845700Y50357997D01*
X13005000Y50357997D01*
X13005000Y49642002D01*
X13033867Y49348912D01*
X13147943Y48972853D01*
X13333193Y48626275D01*
X13582498Y48322497D01*
X13886276Y48073193D01*
X14232854Y47887943D01*
X14608913Y47773867D01*
X15000000Y47735348D01*
X15391088Y47773867D01*
X15767147Y47887943D01*
X16113725Y48073193D01*
X16417503Y48322497D01*
X16666807Y48626275D01*
X16852057Y48972853D01*
X16966133Y49348913D01*
X16995000Y49642003D01*
X16995000Y50357997D01*
X18405000Y50357997D01*
X18405000Y49642002D01*
X18433867Y49348912D01*
X18547943Y48972853D01*
X18733193Y48626275D01*
X18982498Y48322497D01*
X19286276Y48073193D01*
X19632854Y47887943D01*
X20008913Y47773867D01*
X20400000Y47735348D01*
X20791088Y47773867D01*
X21167147Y47887943D01*
X21513725Y48073193D01*
X21817503Y48322497D01*
X22066807Y48626275D01*
X22252057Y48972853D01*
X22366133Y49348913D01*
X22395000Y49642003D01*
X22395000Y50357997D01*
X28005000Y50357997D01*
X28005000Y49642002D01*
X28033867Y49348912D01*
X28147943Y48972853D01*
X28333193Y48626275D01*
X28582498Y48322497D01*
X28886276Y48073193D01*
X29232854Y47887943D01*
X29608913Y47773867D01*
X30000000Y47735348D01*
X30391088Y47773867D01*
X30767147Y47887943D01*
X31113725Y48073193D01*
X31417503Y48322497D01*
X31666807Y48626275D01*
X31852057Y48972853D01*
X31966133Y49348913D01*
X31995000Y49642003D01*
X31995000Y50357998D01*
X31966133Y50651088D01*
X31852057Y51027147D01*
X31666807Y51373725D01*
X31417503Y51677503D01*
X31113725Y51926807D01*
X30767146Y52112057D01*
X30391087Y52226133D01*
X30000000Y52264652D01*
X29608912Y52226133D01*
X29232853Y52112057D01*
X28886275Y51926807D01*
X28582497Y51677503D01*
X28333193Y51373725D01*
X28147943Y51027146D01*
X28033867Y50651087D01*
X28005000Y50357997D01*
X22395000Y50357997D01*
X22395000Y50357998D01*
X22366133Y50651088D01*
X22252057Y51027147D01*
X22066807Y51373725D01*
X21817503Y51677503D01*
X21513725Y51926807D01*
X21167146Y52112057D01*
X20791087Y52226133D01*
X20400000Y52264652D01*
X20008912Y52226133D01*
X19632853Y52112057D01*
X19286275Y51926807D01*
X18982497Y51677503D01*
X18733193Y51373725D01*
X18547943Y51027146D01*
X18433867Y50651087D01*
X18405000Y50357997D01*
X16995000Y50357997D01*
X16995000Y50357998D01*
X16966133Y50651088D01*
X16852057Y51027147D01*
X16666807Y51373725D01*
X16417503Y51677503D01*
X16113725Y51926807D01*
X15767146Y52112057D01*
X15391087Y52226133D01*
X15000000Y52264652D01*
X14608912Y52226133D01*
X14232853Y52112057D01*
X13886275Y51926807D01*
X13582497Y51677503D01*
X13333193Y51373725D01*
X13147943Y51027146D01*
X13033867Y50651087D01*
X13005000Y50357997D01*
X7845700Y50357997D01*
X7845700Y52431278D01*
X7849376Y52468601D01*
X7845700Y52505924D01*
X7845700Y52505933D01*
X7834703Y52617586D01*
X7791246Y52760847D01*
X7720674Y52892876D01*
X7625701Y53008601D01*
X7596704Y53032398D01*
X6777400Y53851701D01*
X6777400Y55558399D01*
X9426305Y52909492D01*
X9450099Y52880499D01*
X9479092Y52856705D01*
X9479096Y52856701D01*
X9509982Y52831354D01*
X9565824Y52785526D01*
X9697853Y52714954D01*
X9841114Y52671497D01*
X9952767Y52660500D01*
X9952776Y52660500D01*
X9990099Y52656824D01*
X10027422Y52660500D01*
X34259242Y52660500D01*
X34239200Y52559739D01*
X34239200Y52355861D01*
X34278974Y52155902D01*
X34356995Y51967544D01*
X34358441Y51965380D01*
X34286275Y51926807D01*
X33982497Y51677503D01*
X33733193Y51373725D01*
X33547943Y51027146D01*
X33433867Y50651087D01*
X33405000Y50357997D01*
X33405000Y49642002D01*
X33433867Y49348912D01*
X33547943Y48972853D01*
X33733193Y48626275D01*
X33982498Y48322497D01*
X34286276Y48073193D01*
X34632854Y47887943D01*
X35008913Y47773867D01*
X35400000Y47735348D01*
X35791088Y47773867D01*
X36167147Y47887943D01*
X36513725Y48073193D01*
X36817503Y48322497D01*
X37066807Y48626275D01*
X37252057Y48972853D01*
X37366133Y49348913D01*
X37395000Y49642003D01*
X37395000Y50357998D01*
X37366133Y50651088D01*
X37252057Y51027147D01*
X37066807Y51373725D01*
X36817503Y51677503D01*
X36792771Y51697800D01*
X37466999Y51697800D01*
X44003601Y45161197D01*
X44027399Y45132199D01*
X44056397Y45108401D01*
X44143124Y45037226D01*
X44275153Y44966654D01*
X44418414Y44923197D01*
X44567400Y44908523D01*
X44604733Y44912200D01*
X62690878Y44912200D01*
X62728200Y44908524D01*
X62765522Y44912200D01*
X62765533Y44912200D01*
X62877186Y44923197D01*
X63020447Y44966654D01*
X63152476Y45037226D01*
X63268201Y45132199D01*
X63292004Y45161203D01*
X64267159Y46136357D01*
X64358899Y46061068D01*
X64608192Y45927818D01*
X64878691Y45845764D01*
X65089508Y45825000D01*
X65230492Y45825000D01*
X65441309Y45845764D01*
X65711808Y45927818D01*
X65961101Y46061068D01*
X66179608Y46240392D01*
X66358932Y46458899D01*
X66430000Y46591858D01*
X66501068Y46458899D01*
X66680392Y46240392D01*
X66898899Y46061068D01*
X67148192Y45927818D01*
X67418691Y45845764D01*
X67629508Y45825000D01*
X67770492Y45825000D01*
X67981309Y45845764D01*
X68251808Y45927818D01*
X68501101Y46061068D01*
X68719608Y46240392D01*
X68898932Y46458899D01*
X68970000Y46591858D01*
X69041068Y46458899D01*
X69220392Y46240392D01*
X69438899Y46061068D01*
X69688192Y45927818D01*
X69958691Y45845764D01*
X70169508Y45825000D01*
X70310492Y45825000D01*
X70521309Y45845764D01*
X70791808Y45927818D01*
X71041101Y46061068D01*
X71259608Y46240392D01*
X71438932Y46458899D01*
X71510000Y46591858D01*
X71581068Y46458899D01*
X71760392Y46240392D01*
X71978899Y46061068D01*
X72228192Y45927818D01*
X72498691Y45845764D01*
X72709508Y45825000D01*
X72850492Y45825000D01*
X73061309Y45845764D01*
X73331808Y45927818D01*
X73581101Y46061068D01*
X73799608Y46240392D01*
X73978932Y46458899D01*
X74050000Y46591858D01*
X74121068Y46458899D01*
X74300392Y46240392D01*
X74518899Y46061068D01*
X74768192Y45927818D01*
X75038691Y45845764D01*
X75249508Y45825000D01*
X75390492Y45825000D01*
X75601309Y45845764D01*
X75749600Y45890747D01*
X75749600Y45393402D01*
X68570213Y38214014D01*
X68635000Y38539721D01*
X68635000Y38960279D01*
X68552953Y39372756D01*
X68392012Y39761302D01*
X68158363Y40110983D01*
X67860983Y40408363D01*
X67511302Y40642012D01*
X67122756Y40802953D01*
X66710279Y40885000D01*
X66289721Y40885000D01*
X65877244Y40802953D01*
X65488698Y40642012D01*
X65139017Y40408363D01*
X64841637Y40110983D01*
X64607988Y39761302D01*
X64447047Y39372756D01*
X64365000Y38960279D01*
X64365000Y38539721D01*
X64447047Y38127244D01*
X64607988Y37738698D01*
X64841637Y37389017D01*
X65139017Y37091637D01*
X65488698Y36857988D01*
X65877244Y36697047D01*
X66289721Y36615000D01*
X66710279Y36615000D01*
X67122756Y36697047D01*
X67511302Y36857988D01*
X67860983Y37091637D01*
X68052901Y37283555D01*
X68052900Y23524802D01*
X60816399Y16288300D01*
X60754261Y16288300D01*
X60554302Y16248526D01*
X60365944Y16170505D01*
X60196426Y16057237D01*
X60052263Y15913074D01*
X59938995Y15743556D01*
X59860974Y15555198D01*
X59821200Y15355239D01*
X59821200Y15151361D01*
X59860974Y14951402D01*
X59938995Y14763044D01*
X60052263Y14593526D01*
X60196426Y14449363D01*
X60365944Y14336095D01*
X60554302Y14258074D01*
X60754261Y14218300D01*
X60958139Y14218300D01*
X61158098Y14258074D01*
X61346456Y14336095D01*
X61515974Y14449363D01*
X61660137Y14593526D01*
X61773405Y14763044D01*
X61851426Y14951402D01*
X61891200Y15151361D01*
X61891200Y15213499D01*
X69323904Y22646202D01*
X69352901Y22669999D01*
X69379232Y22702083D01*
X69447874Y22785723D01*
X69518446Y22917753D01*
X69518446Y22917754D01*
X69561903Y23061014D01*
X69572900Y23172667D01*
X69572900Y23172676D01*
X69576576Y23209999D01*
X69572900Y23247322D01*
X69572900Y37067099D01*
X77020604Y44514802D01*
X77049601Y44538599D01*
X77144574Y44654324D01*
X77215146Y44786353D01*
X77258603Y44929614D01*
X77269600Y45041267D01*
X77269600Y45041268D01*
X77273277Y45078600D01*
X77269600Y45115933D01*
X77269600Y45948446D01*
X77308192Y45927818D01*
X77578691Y45845764D01*
X77789508Y45825000D01*
X77930492Y45825000D01*
X78141309Y45845764D01*
X78225300Y45871242D01*
X78225300Y43140702D01*
X70686198Y35601599D01*
X70657200Y35577801D01*
X70633402Y35548803D01*
X70633401Y35548802D01*
X70562226Y35462076D01*
X70491654Y35330046D01*
X70448198Y35186785D01*
X70433524Y35037800D01*
X70437201Y35000467D01*
X70437200Y18414311D01*
X70393263Y18370374D01*
X70279995Y18200856D01*
X70201974Y18012498D01*
X70162200Y17812539D01*
X70162200Y17608661D01*
X70201974Y17408702D01*
X70279995Y17220344D01*
X70393263Y17050826D01*
X70537426Y16906663D01*
X70706944Y16793395D01*
X70895302Y16715374D01*
X71095261Y16675600D01*
X71299139Y16675600D01*
X71499098Y16715374D01*
X71687456Y16793395D01*
X71856974Y16906663D01*
X72001137Y17050826D01*
X72114405Y17220344D01*
X72192426Y17408702D01*
X72232200Y17608661D01*
X72232200Y17812539D01*
X72192426Y18012498D01*
X72114405Y18200856D01*
X72001137Y18370374D01*
X71957200Y18414311D01*
X71957200Y18593156D01*
X79087399Y18593156D01*
X79231435Y18262630D01*
X79594562Y18050479D01*
X79992100Y17913247D01*
X80408773Y17856207D01*
X80828566Y17881553D01*
X81235349Y17988309D01*
X81613489Y18172373D01*
X81748565Y18262630D01*
X81892601Y18593156D01*
X80490000Y19995757D01*
X79087399Y18593156D01*
X71957200Y18593156D01*
X71957200Y20081227D01*
X78346207Y20081227D01*
X78371553Y19661434D01*
X78478309Y19254651D01*
X78662373Y18876511D01*
X78752630Y18741435D01*
X79083156Y18597399D01*
X80485757Y20000000D01*
X80494243Y20000000D01*
X81896844Y18597399D01*
X82227370Y18741435D01*
X82439521Y19104562D01*
X82576753Y19502100D01*
X82633793Y19918773D01*
X82608447Y20338566D01*
X82501691Y20745349D01*
X82317627Y21123489D01*
X82227370Y21258565D01*
X81896844Y21402601D01*
X80494243Y20000000D01*
X80485757Y20000000D01*
X79083156Y21402601D01*
X78752630Y21258565D01*
X78540479Y20895438D01*
X78403247Y20497900D01*
X78346207Y20081227D01*
X71957200Y20081227D01*
X71957200Y21406844D01*
X79087399Y21406844D01*
X80490000Y20004243D01*
X81892601Y21406844D01*
X81748565Y21737370D01*
X81385438Y21949521D01*
X80987900Y22086753D01*
X80571227Y22143793D01*
X80151434Y22118447D01*
X79744651Y22011691D01*
X79366511Y21827627D01*
X79231435Y21737370D01*
X79087399Y21406844D01*
X71957200Y21406844D01*
X71957200Y34722999D01*
X75432845Y38198643D01*
X75447047Y38127244D01*
X75607988Y37738698D01*
X75841637Y37389017D01*
X76139017Y37091637D01*
X76488698Y36857988D01*
X76877244Y36697047D01*
X77289721Y36615000D01*
X77710279Y36615000D01*
X78122756Y36697047D01*
X78511302Y36857988D01*
X78860983Y37091637D01*
X79158363Y37389017D01*
X79392012Y37738698D01*
X79552953Y38127244D01*
X79635000Y38539721D01*
X79635000Y38960279D01*
X86365000Y38960279D01*
X86365000Y38539721D01*
X86447047Y38127244D01*
X86607988Y37738698D01*
X86841637Y37389017D01*
X87139017Y37091637D01*
X87488698Y36857988D01*
X87877244Y36697047D01*
X88289721Y36615000D01*
X88710279Y36615000D01*
X89122756Y36697047D01*
X89511302Y36857988D01*
X89860983Y37091637D01*
X90158363Y37389017D01*
X90392012Y37738698D01*
X90552953Y38127244D01*
X90635000Y38539721D01*
X90635000Y38960279D01*
X90552953Y39372756D01*
X90392012Y39761302D01*
X90158363Y40110983D01*
X89860983Y40408363D01*
X89511302Y40642012D01*
X89122756Y40802953D01*
X88710279Y40885000D01*
X88289721Y40885000D01*
X87877244Y40802953D01*
X87488698Y40642012D01*
X87139017Y40408363D01*
X86841637Y40110983D01*
X86607988Y39761302D01*
X86447047Y39372756D01*
X86365000Y38960279D01*
X79635000Y38960279D01*
X79552953Y39372756D01*
X79392012Y39761302D01*
X79158363Y40110983D01*
X78860983Y40408363D01*
X78511302Y40642012D01*
X78122756Y40802953D01*
X78051357Y40817155D01*
X79496304Y42262102D01*
X79525301Y42285899D01*
X79620274Y42401624D01*
X79690846Y42533653D01*
X79734303Y42676914D01*
X79745300Y42788567D01*
X79745300Y42788575D01*
X79748976Y42825900D01*
X79745300Y42863225D01*
X79745300Y45982815D01*
X79848192Y45927818D01*
X80118691Y45845764D01*
X80329508Y45825000D01*
X80470492Y45825000D01*
X80681309Y45845764D01*
X80951808Y45927818D01*
X81201101Y46061068D01*
X81419608Y46240392D01*
X81598932Y46458899D01*
X81670000Y46591858D01*
X81741068Y46458899D01*
X81920392Y46240392D01*
X82138899Y46061068D01*
X82388192Y45927818D01*
X82658691Y45845764D01*
X82869508Y45825000D01*
X83010492Y45825000D01*
X83221309Y45845764D01*
X83491808Y45927818D01*
X83741101Y46061068D01*
X83959608Y46240392D01*
X84138932Y46458899D01*
X84210000Y46591858D01*
X84281068Y46458899D01*
X84460392Y46240392D01*
X84678899Y46061068D01*
X84928192Y45927818D01*
X85198691Y45845764D01*
X85409508Y45825000D01*
X85550492Y45825000D01*
X85761309Y45845764D01*
X86031808Y45927818D01*
X86281101Y46061068D01*
X86499608Y46240392D01*
X86678932Y46458899D01*
X86750000Y46591858D01*
X86821068Y46458899D01*
X87000392Y46240392D01*
X87218899Y46061068D01*
X87468192Y45927818D01*
X87738691Y45845764D01*
X87949508Y45825000D01*
X88090492Y45825000D01*
X88301309Y45845764D01*
X88530001Y45915136D01*
X88530001Y45574633D01*
X88526324Y45537300D01*
X88540998Y45388315D01*
X88584454Y45245054D01*
X88655026Y45113024D01*
X88713916Y45041267D01*
X88750000Y44997299D01*
X88778998Y44973501D01*
X94628205Y39124292D01*
X94651999Y39095299D01*
X94654607Y39093159D01*
X94621401Y39031034D01*
X94536487Y38751111D01*
X94507815Y38460000D01*
X94536487Y38168889D01*
X94621401Y37888966D01*
X94759294Y37630986D01*
X94944866Y37404866D01*
X95170986Y37219294D01*
X95225791Y37190000D01*
X95170986Y37160706D01*
X94944866Y36975134D01*
X94759294Y36749014D01*
X94621401Y36491034D01*
X94536487Y36211111D01*
X94507815Y35920000D01*
X94536487Y35628889D01*
X94621401Y35348966D01*
X94759294Y35090986D01*
X94944866Y34864866D01*
X95170986Y34679294D01*
X95225791Y34650000D01*
X95170986Y34620706D01*
X94944866Y34435134D01*
X94759294Y34209014D01*
X94621401Y33951034D01*
X94536487Y33671111D01*
X94507815Y33380000D01*
X94536487Y33088889D01*
X94621401Y32808966D01*
X94759294Y32550986D01*
X94944866Y32324866D01*
X95170986Y32139294D01*
X95225791Y32110000D01*
X95170986Y32080706D01*
X94944866Y31895134D01*
X94759294Y31669014D01*
X94621401Y31411034D01*
X94536487Y31131111D01*
X94507815Y30840000D01*
X94536487Y30548889D01*
X94621401Y30268966D01*
X94759294Y30010986D01*
X94944866Y29784866D01*
X95170986Y29599294D01*
X95428966Y29461401D01*
X95708889Y29376487D01*
X95927050Y29355000D01*
X96072950Y29355000D01*
X96291111Y29376487D01*
X96571034Y29461401D01*
X96829014Y29599294D01*
X97055134Y29784866D01*
X97240706Y30010986D01*
X97378599Y30268966D01*
X97463513Y30548889D01*
X97492185Y30840000D01*
X97463513Y31131111D01*
X97378599Y31411034D01*
X97240706Y31669014D01*
X97055134Y31895134D01*
X96829014Y32080706D01*
X96774209Y32110000D01*
X96829014Y32139294D01*
X97055134Y32324866D01*
X97240706Y32550986D01*
X97378599Y32808966D01*
X97463513Y33088889D01*
X97492185Y33380000D01*
X97463513Y33671111D01*
X97378599Y33951034D01*
X97240706Y34209014D01*
X97055134Y34435134D01*
X96829014Y34620706D01*
X96774209Y34650000D01*
X96829014Y34679294D01*
X97055134Y34864866D01*
X97240706Y35090986D01*
X97378599Y35348966D01*
X97463513Y35628889D01*
X97492185Y35920000D01*
X97463513Y36211111D01*
X97378599Y36491034D01*
X97240706Y36749014D01*
X97055134Y36975134D01*
X96829014Y37160706D01*
X96774209Y37190000D01*
X96829014Y37219294D01*
X97055134Y37404866D01*
X97240706Y37630986D01*
X97378599Y37888966D01*
X97463513Y38168889D01*
X97492185Y38460000D01*
X97463513Y38751111D01*
X97378599Y39031034D01*
X97240706Y39289014D01*
X97055134Y39515134D01*
X97025313Y39539607D01*
X97094180Y39560498D01*
X97204494Y39619463D01*
X97301185Y39698815D01*
X97380537Y39795506D01*
X97439502Y39905820D01*
X97475812Y40025518D01*
X97488072Y40150000D01*
X97488072Y41850000D01*
X97475812Y41974482D01*
X97439502Y42094180D01*
X97380537Y42204494D01*
X97301185Y42301185D01*
X97204494Y42380537D01*
X97094180Y42439502D01*
X96974482Y42475812D01*
X96850000Y42488072D01*
X95150000Y42488072D01*
X95025518Y42475812D01*
X94905820Y42439502D01*
X94795506Y42380537D01*
X94698815Y42301185D01*
X94619463Y42204494D01*
X94560498Y42094180D01*
X94524188Y41974482D01*
X94511928Y41850000D01*
X94511928Y41390175D01*
X90050000Y45852101D01*
X90050000Y45915136D01*
X90278691Y45845764D01*
X90489508Y45825000D01*
X90630492Y45825000D01*
X90841309Y45845764D01*
X91111808Y45927818D01*
X91361101Y46061068D01*
X91579608Y46240392D01*
X91758932Y46458899D01*
X91892182Y46708192D01*
X91974236Y46978691D01*
X92001943Y47260000D01*
X91974236Y47541309D01*
X91892182Y47811808D01*
X91758932Y48061101D01*
X91579608Y48279608D01*
X91551872Y48302370D01*
X93611008Y50361505D01*
X93640001Y50385299D01*
X93663795Y50414292D01*
X93663799Y50414296D01*
X93734973Y50501023D01*
X93734974Y50501024D01*
X93805546Y50633053D01*
X93849003Y50776314D01*
X93860000Y50887967D01*
X93860000Y50887976D01*
X93863676Y50925299D01*
X93860000Y50962622D01*
X93860000Y57412405D01*
X93929014Y57449294D01*
X94155134Y57634866D01*
X94340706Y57860986D01*
X94478599Y58118966D01*
X94563513Y58398889D01*
X94592185Y58690000D01*
X94563513Y58981111D01*
X94478599Y59261034D01*
X94340706Y59519014D01*
X94155134Y59745134D01*
X93929014Y59930706D01*
X93860000Y59967595D01*
X93860000Y65032405D01*
X93929014Y65069294D01*
X94155134Y65254866D01*
X94340706Y65480986D01*
X94478599Y65738966D01*
X94563513Y66018889D01*
X94592185Y66310000D01*
X94563513Y66601111D01*
X94478599Y66881034D01*
X94340706Y67139014D01*
X94155134Y67365134D01*
X93929014Y67550706D01*
X93671034Y67688599D01*
X93391111Y67773513D01*
X93172950Y67795000D01*
X93027050Y67795000D01*
X92808889Y67773513D01*
X92528966Y67688599D01*
X92270986Y67550706D01*
X92044866Y67365134D01*
X91859294Y67139014D01*
X91830000Y67084209D01*
X91800706Y67139014D01*
X91615134Y67365134D01*
X91389014Y67550706D01*
X91131034Y67688599D01*
X90851111Y67773513D01*
X90632950Y67795000D01*
X90487050Y67795000D01*
X90268889Y67773513D01*
X89988966Y67688599D01*
X89730986Y67550706D01*
X89633061Y67470341D01*
X85154504Y71948897D01*
X85130701Y71977901D01*
X85014976Y72072874D01*
X84882947Y72143446D01*
X84739686Y72186903D01*
X84628033Y72197900D01*
X84628022Y72197900D01*
X84590700Y72201576D01*
X84553378Y72197900D01*
X20796023Y72197900D01*
X20758700Y72201576D01*
X20721377Y72197900D01*
X20721367Y72197900D01*
X20609714Y72186903D01*
X20466453Y72143446D01*
X20334423Y72072874D01*
X20250783Y72004232D01*
X20218699Y71977901D01*
X20194901Y71948903D01*
X18966275Y70720277D01*
X18858932Y70921101D01*
X18679608Y71139608D01*
X18461101Y71318932D01*
X18211808Y71452182D01*
X17941309Y71534236D01*
X17730492Y71555000D01*
X17589508Y71555000D01*
X17378691Y71534236D01*
X17108192Y71452182D01*
X16858899Y71318932D01*
X16640392Y71139608D01*
X16461068Y70921101D01*
X16390000Y70788142D01*
X16318932Y70921101D01*
X16139608Y71139608D01*
X15921101Y71318932D01*
X15671808Y71452182D01*
X15401309Y71534236D01*
X15190492Y71555000D01*
X15049508Y71555000D01*
X14838691Y71534236D01*
X14568192Y71452182D01*
X14318899Y71318932D01*
X14100392Y71139608D01*
X13921068Y70921101D01*
X13850000Y70788142D01*
X13778932Y70921101D01*
X13599608Y71139608D01*
X13381101Y71318932D01*
X13131808Y71452182D01*
X12861309Y71534236D01*
X12650492Y71555000D01*
X12509508Y71555000D01*
X12298691Y71534236D01*
X12028192Y71452182D01*
X11778899Y71318932D01*
X11560392Y71139608D01*
X11381068Y70921101D01*
X11310000Y70788142D01*
X11238932Y70921101D01*
X11059608Y71139608D01*
X10841101Y71318932D01*
X10591808Y71452182D01*
X10321309Y71534236D01*
X10110492Y71555000D01*
X9969508Y71555000D01*
X9758691Y71534236D01*
X9488192Y71452182D01*
X9238899Y71318932D01*
X9020392Y71139608D01*
X8841068Y70921101D01*
X8770000Y70788142D01*
X8698932Y70921101D01*
X8519608Y71139608D01*
X8301101Y71318932D01*
X8051808Y71452182D01*
X7781309Y71534236D01*
X7570492Y71555000D01*
X7429508Y71555000D01*
X7218691Y71534236D01*
X6948192Y71452182D01*
X6698899Y71318932D01*
X6480392Y71139608D01*
X6301068Y70921101D01*
X6167818Y70671808D01*
X6085764Y70401309D01*
X6058057Y70120000D01*
X6085764Y69838691D01*
X6167818Y69568192D01*
X6301068Y69318899D01*
X6480392Y69100392D01*
X6508128Y69077630D01*
X2308398Y64877899D01*
X2279400Y64854101D01*
X2255602Y64825103D01*
X2255601Y64825102D01*
X2184426Y64738376D01*
X2113854Y64606346D01*
X2102904Y64570246D01*
X2070398Y64463086D01*
X2064648Y64404701D01*
X2055724Y64314100D01*
X1127000Y64314100D01*
X1127000Y73873000D01*
X98873000Y73873000D01*
X98873000Y1127000D01*
G36*
X57543000Y47263000D02*
G01*
X57563000Y47263000D01*
X57563000Y47257000D01*
X57543000Y47257000D01*
X57543000Y47237000D01*
X57537000Y47237000D01*
X57537000Y47257000D01*
X57517000Y47257000D01*
X57517000Y47263000D01*
X57537000Y47263000D01*
X57537000Y47283000D01*
X57543000Y47283000D01*
X57543000Y47263000D01*
X57543000Y47263000D01*
G37*
X57543000Y47263000D02*
X57563000Y47263000D01*
X57563000Y47257000D01*
X57543000Y47257000D01*
X57543000Y47237000D01*
X57537000Y47237000D01*
X57537000Y47257000D01*
X57517000Y47257000D01*
X57517000Y47263000D01*
X57537000Y47263000D01*
X57537000Y47283000D01*
X57543000Y47283000D01*
X57543000Y47263000D01*
G36*
X84281068Y61698899D02*
G01*
X84460392Y61480392D01*
X84678899Y61301068D01*
X84720001Y61279099D01*
X84720000Y60178072D01*
X84630000Y60178072D01*
X84505518Y60165812D01*
X84385820Y60129502D01*
X84275506Y60070537D01*
X84178815Y59991185D01*
X84099463Y59894494D01*
X84040498Y59784180D01*
X84004188Y59664482D01*
X83991928Y59540000D01*
X83991928Y57840000D01*
X84004188Y57715518D01*
X84040498Y57595820D01*
X84099463Y57485506D01*
X84178815Y57388815D01*
X84275506Y57309463D01*
X84385820Y57250498D01*
X84505518Y57214188D01*
X84630000Y57201928D01*
X86330000Y57201928D01*
X86454482Y57214188D01*
X86574180Y57250498D01*
X86684494Y57309463D01*
X86781185Y57388815D01*
X86860537Y57485506D01*
X86919502Y57595820D01*
X86940393Y57664687D01*
X86964866Y57634866D01*
X87190986Y57449294D01*
X87260001Y57412405D01*
X87260000Y56098044D01*
X87105241Y55994637D01*
X86905363Y55794759D01*
X86769562Y55591519D01*
X86747888Y55635969D01*
X86688317Y55725124D01*
X86429473Y55785230D01*
X85524243Y54880000D01*
X86429473Y53974770D01*
X86688317Y54034876D01*
X86767795Y54171127D01*
X86905363Y53965241D01*
X87105241Y53765363D01*
X87340273Y53608320D01*
X87601426Y53500147D01*
X87878665Y53445000D01*
X88161335Y53445000D01*
X88438574Y53500147D01*
X88530001Y53538017D01*
X88530001Y48604864D01*
X88301309Y48674236D01*
X88090492Y48695000D01*
X87949508Y48695000D01*
X87738691Y48674236D01*
X87468192Y48592182D01*
X87218899Y48458932D01*
X87000392Y48279608D01*
X86821068Y48061101D01*
X86750000Y47928142D01*
X86678932Y48061101D01*
X86499608Y48279608D01*
X86281101Y48458932D01*
X86031808Y48592182D01*
X85761309Y48674236D01*
X85550492Y48695000D01*
X85409508Y48695000D01*
X85198691Y48674236D01*
X84928192Y48592182D01*
X84678899Y48458932D01*
X84460392Y48279608D01*
X84281068Y48061101D01*
X84210000Y47928142D01*
X84138932Y48061101D01*
X83959608Y48279608D01*
X83741101Y48458932D01*
X83491808Y48592182D01*
X83221309Y48674236D01*
X83010492Y48695000D01*
X82869508Y48695000D01*
X82658691Y48674236D01*
X82388192Y48592182D01*
X82138899Y48458932D01*
X81920392Y48279608D01*
X81741068Y48061101D01*
X81670000Y47928142D01*
X81598932Y48061101D01*
X81419608Y48279608D01*
X81201101Y48458932D01*
X80951808Y48592182D01*
X80681309Y48674236D01*
X80470492Y48695000D01*
X80329508Y48695000D01*
X80118691Y48674236D01*
X79848192Y48592182D01*
X79745300Y48537185D01*
X79745300Y50851928D01*
X81250000Y50851928D01*
X81374482Y50864188D01*
X81494180Y50900498D01*
X81604494Y50959463D01*
X81701185Y51038815D01*
X81780537Y51135506D01*
X81839502Y51245820D01*
X81875812Y51365518D01*
X81888072Y51490000D01*
X81888072Y53190000D01*
X81875812Y53314482D01*
X81839502Y53434180D01*
X81780537Y53544494D01*
X81701185Y53641185D01*
X81604494Y53720537D01*
X81494180Y53779502D01*
X81425313Y53800393D01*
X81455134Y53824866D01*
X81574674Y53970527D01*
X84614770Y53970527D01*
X84674876Y53711683D01*
X84919042Y53569257D01*
X85186303Y53477201D01*
X85466387Y53439055D01*
X85748531Y53456283D01*
X86021894Y53528223D01*
X86275969Y53652112D01*
X86365124Y53711683D01*
X86425230Y53970527D01*
X85520000Y54875757D01*
X84614770Y53970527D01*
X81574674Y53970527D01*
X81640706Y54050986D01*
X81778599Y54308966D01*
X81863513Y54588889D01*
X81892185Y54880000D01*
X81886905Y54933613D01*
X84079055Y54933613D01*
X84096283Y54651469D01*
X84168223Y54378106D01*
X84292112Y54124031D01*
X84351683Y54034876D01*
X84610527Y53974770D01*
X85515757Y54880000D01*
X84610527Y55785230D01*
X84351683Y55725124D01*
X84209257Y55480958D01*
X84117201Y55213697D01*
X84079055Y54933613D01*
X81886905Y54933613D01*
X81863513Y55171111D01*
X81778599Y55451034D01*
X81640706Y55709014D01*
X81574675Y55789473D01*
X84614770Y55789473D01*
X85520000Y54884243D01*
X86425230Y55789473D01*
X86365124Y56048317D01*
X86120958Y56190743D01*
X85853697Y56282799D01*
X85573613Y56320945D01*
X85291469Y56303717D01*
X85018106Y56231777D01*
X84764031Y56107888D01*
X84674876Y56048317D01*
X84614770Y55789473D01*
X81574675Y55789473D01*
X81455134Y55935134D01*
X81229014Y56120706D01*
X81170956Y56151738D01*
X81178467Y56155400D01*
X81410220Y56331570D01*
X81603151Y56549568D01*
X81749846Y56801016D01*
X81844667Y57076251D01*
X81866245Y57184732D01*
X81726247Y57417000D01*
X80403000Y57417000D01*
X80403000Y57397000D01*
X80397000Y57397000D01*
X80397000Y57417000D01*
X80377000Y57417000D01*
X80377000Y57423000D01*
X80397000Y57423000D01*
X80397000Y58746247D01*
X80403000Y58746247D01*
X80403000Y57423000D01*
X81726247Y57423000D01*
X81866245Y57655268D01*
X81844667Y57763749D01*
X81749846Y58038984D01*
X81603151Y58290432D01*
X81410220Y58508430D01*
X81178467Y58684600D01*
X80916798Y58812173D01*
X80635268Y58886245D01*
X80403000Y58746247D01*
X80397000Y58746247D01*
X80164732Y58886245D01*
X79883202Y58812173D01*
X79745300Y58744941D01*
X79745300Y60212067D01*
X79748977Y60249400D01*
X79734303Y60398386D01*
X79690846Y60541647D01*
X79620274Y60673676D01*
X79549099Y60760403D01*
X79525301Y60789401D01*
X79496303Y60813199D01*
X78851872Y61457630D01*
X78879608Y61480392D01*
X79058932Y61698899D01*
X79130000Y61831858D01*
X79201068Y61698899D01*
X79380392Y61480392D01*
X79598899Y61301068D01*
X79848192Y61167818D01*
X80118691Y61085764D01*
X80329508Y61065000D01*
X80470492Y61065000D01*
X80681309Y61085764D01*
X80951808Y61167818D01*
X81201101Y61301068D01*
X81419608Y61480392D01*
X81598932Y61698899D01*
X81670000Y61831858D01*
X81741068Y61698899D01*
X81920392Y61480392D01*
X82138899Y61301068D01*
X82388192Y61167818D01*
X82658691Y61085764D01*
X82869508Y61065000D01*
X83010492Y61065000D01*
X83221309Y61085764D01*
X83491808Y61167818D01*
X83741101Y61301068D01*
X83959608Y61480392D01*
X84138932Y61698899D01*
X84210000Y61831858D01*
X84281068Y61698899D01*
X84281068Y61698899D01*
G37*
X84281068Y61698899D02*
X84460392Y61480392D01*
X84678899Y61301068D01*
X84720001Y61279099D01*
X84720000Y60178072D01*
X84630000Y60178072D01*
X84505518Y60165812D01*
X84385820Y60129502D01*
X84275506Y60070537D01*
X84178815Y59991185D01*
X84099463Y59894494D01*
X84040498Y59784180D01*
X84004188Y59664482D01*
X83991928Y59540000D01*
X83991928Y57840000D01*
X84004188Y57715518D01*
X84040498Y57595820D01*
X84099463Y57485506D01*
X84178815Y57388815D01*
X84275506Y57309463D01*
X84385820Y57250498D01*
X84505518Y57214188D01*
X84630000Y57201928D01*
X86330000Y57201928D01*
X86454482Y57214188D01*
X86574180Y57250498D01*
X86684494Y57309463D01*
X86781185Y57388815D01*
X86860537Y57485506D01*
X86919502Y57595820D01*
X86940393Y57664687D01*
X86964866Y57634866D01*
X87190986Y57449294D01*
X87260001Y57412405D01*
X87260000Y56098044D01*
X87105241Y55994637D01*
X86905363Y55794759D01*
X86769562Y55591519D01*
X86747888Y55635969D01*
X86688317Y55725124D01*
X86429473Y55785230D01*
X85524243Y54880000D01*
X86429473Y53974770D01*
X86688317Y54034876D01*
X86767795Y54171127D01*
X86905363Y53965241D01*
X87105241Y53765363D01*
X87340273Y53608320D01*
X87601426Y53500147D01*
X87878665Y53445000D01*
X88161335Y53445000D01*
X88438574Y53500147D01*
X88530001Y53538017D01*
X88530001Y48604864D01*
X88301309Y48674236D01*
X88090492Y48695000D01*
X87949508Y48695000D01*
X87738691Y48674236D01*
X87468192Y48592182D01*
X87218899Y48458932D01*
X87000392Y48279608D01*
X86821068Y48061101D01*
X86750000Y47928142D01*
X86678932Y48061101D01*
X86499608Y48279608D01*
X86281101Y48458932D01*
X86031808Y48592182D01*
X85761309Y48674236D01*
X85550492Y48695000D01*
X85409508Y48695000D01*
X85198691Y48674236D01*
X84928192Y48592182D01*
X84678899Y48458932D01*
X84460392Y48279608D01*
X84281068Y48061101D01*
X84210000Y47928142D01*
X84138932Y48061101D01*
X83959608Y48279608D01*
X83741101Y48458932D01*
X83491808Y48592182D01*
X83221309Y48674236D01*
X83010492Y48695000D01*
X82869508Y48695000D01*
X82658691Y48674236D01*
X82388192Y48592182D01*
X82138899Y48458932D01*
X81920392Y48279608D01*
X81741068Y48061101D01*
X81670000Y47928142D01*
X81598932Y48061101D01*
X81419608Y48279608D01*
X81201101Y48458932D01*
X80951808Y48592182D01*
X80681309Y48674236D01*
X80470492Y48695000D01*
X80329508Y48695000D01*
X80118691Y48674236D01*
X79848192Y48592182D01*
X79745300Y48537185D01*
X79745300Y50851928D01*
X81250000Y50851928D01*
X81374482Y50864188D01*
X81494180Y50900498D01*
X81604494Y50959463D01*
X81701185Y51038815D01*
X81780537Y51135506D01*
X81839502Y51245820D01*
X81875812Y51365518D01*
X81888072Y51490000D01*
X81888072Y53190000D01*
X81875812Y53314482D01*
X81839502Y53434180D01*
X81780537Y53544494D01*
X81701185Y53641185D01*
X81604494Y53720537D01*
X81494180Y53779502D01*
X81425313Y53800393D01*
X81455134Y53824866D01*
X81574674Y53970527D01*
X84614770Y53970527D01*
X84674876Y53711683D01*
X84919042Y53569257D01*
X85186303Y53477201D01*
X85466387Y53439055D01*
X85748531Y53456283D01*
X86021894Y53528223D01*
X86275969Y53652112D01*
X86365124Y53711683D01*
X86425230Y53970527D01*
X85520000Y54875757D01*
X84614770Y53970527D01*
X81574674Y53970527D01*
X81640706Y54050986D01*
X81778599Y54308966D01*
X81863513Y54588889D01*
X81892185Y54880000D01*
X81886905Y54933613D01*
X84079055Y54933613D01*
X84096283Y54651469D01*
X84168223Y54378106D01*
X84292112Y54124031D01*
X84351683Y54034876D01*
X84610527Y53974770D01*
X85515757Y54880000D01*
X84610527Y55785230D01*
X84351683Y55725124D01*
X84209257Y55480958D01*
X84117201Y55213697D01*
X84079055Y54933613D01*
X81886905Y54933613D01*
X81863513Y55171111D01*
X81778599Y55451034D01*
X81640706Y55709014D01*
X81574675Y55789473D01*
X84614770Y55789473D01*
X85520000Y54884243D01*
X86425230Y55789473D01*
X86365124Y56048317D01*
X86120958Y56190743D01*
X85853697Y56282799D01*
X85573613Y56320945D01*
X85291469Y56303717D01*
X85018106Y56231777D01*
X84764031Y56107888D01*
X84674876Y56048317D01*
X84614770Y55789473D01*
X81574675Y55789473D01*
X81455134Y55935134D01*
X81229014Y56120706D01*
X81170956Y56151738D01*
X81178467Y56155400D01*
X81410220Y56331570D01*
X81603151Y56549568D01*
X81749846Y56801016D01*
X81844667Y57076251D01*
X81866245Y57184732D01*
X81726247Y57417000D01*
X80403000Y57417000D01*
X80403000Y57397000D01*
X80397000Y57397000D01*
X80397000Y57417000D01*
X80377000Y57417000D01*
X80377000Y57423000D01*
X80397000Y57423000D01*
X80397000Y58746247D01*
X80403000Y58746247D01*
X80403000Y57423000D01*
X81726247Y57423000D01*
X81866245Y57655268D01*
X81844667Y57763749D01*
X81749846Y58038984D01*
X81603151Y58290432D01*
X81410220Y58508430D01*
X81178467Y58684600D01*
X80916798Y58812173D01*
X80635268Y58886245D01*
X80403000Y58746247D01*
X80397000Y58746247D01*
X80164732Y58886245D01*
X79883202Y58812173D01*
X79745300Y58744941D01*
X79745300Y60212067D01*
X79748977Y60249400D01*
X79734303Y60398386D01*
X79690846Y60541647D01*
X79620274Y60673676D01*
X79549099Y60760403D01*
X79525301Y60789401D01*
X79496303Y60813199D01*
X78851872Y61457630D01*
X78879608Y61480392D01*
X79058932Y61698899D01*
X79130000Y61831858D01*
X79201068Y61698899D01*
X79380392Y61480392D01*
X79598899Y61301068D01*
X79848192Y61167818D01*
X80118691Y61085764D01*
X80329508Y61065000D01*
X80470492Y61065000D01*
X80681309Y61085764D01*
X80951808Y61167818D01*
X81201101Y61301068D01*
X81419608Y61480392D01*
X81598932Y61698899D01*
X81670000Y61831858D01*
X81741068Y61698899D01*
X81920392Y61480392D01*
X82138899Y61301068D01*
X82388192Y61167818D01*
X82658691Y61085764D01*
X82869508Y61065000D01*
X83010492Y61065000D01*
X83221309Y61085764D01*
X83491808Y61167818D01*
X83741101Y61301068D01*
X83959608Y61480392D01*
X84138932Y61698899D01*
X84210000Y61831858D01*
X84281068Y61698899D01*
G36*
X91859294Y57860986D02*
G01*
X92044866Y57634866D01*
X92270986Y57449294D01*
X92340000Y57412405D01*
X92340001Y51240104D01*
X90050000Y48950101D01*
X90050000Y57292886D01*
X90268889Y57226487D01*
X90487050Y57205000D01*
X90632950Y57205000D01*
X90851111Y57226487D01*
X91131034Y57311401D01*
X91389014Y57449294D01*
X91615134Y57634866D01*
X91800706Y57860986D01*
X91830000Y57915791D01*
X91859294Y57860986D01*
X91859294Y57860986D01*
G37*
X91859294Y57860986D02*
X92044866Y57634866D01*
X92270986Y57449294D01*
X92340000Y57412405D01*
X92340001Y51240104D01*
X90050000Y48950101D01*
X90050000Y57292886D01*
X90268889Y57226487D01*
X90487050Y57205000D01*
X90632950Y57205000D01*
X90851111Y57226487D01*
X91131034Y57311401D01*
X91389014Y57449294D01*
X91615134Y57634866D01*
X91800706Y57860986D01*
X91830000Y57915791D01*
X91859294Y57860986D01*
G36*
X68049315Y70167168D02*
G01*
X67950105Y69840119D01*
X67925000Y69585225D01*
X67925000Y68114776D01*
X67950105Y67859882D01*
X68049314Y67532833D01*
X68210421Y67231423D01*
X68427234Y66967234D01*
X68691422Y66750421D01*
X68992832Y66589314D01*
X69319881Y66490105D01*
X69660000Y66456606D01*
X70000118Y66490105D01*
X70327167Y66589314D01*
X70625001Y66748510D01*
X70625001Y63882782D01*
X70521309Y63914236D01*
X70310492Y63935000D01*
X70169508Y63935000D01*
X69958691Y63914236D01*
X69688192Y63832182D01*
X69438899Y63698932D01*
X69220392Y63519608D01*
X69041068Y63301101D01*
X68970000Y63168142D01*
X68898932Y63301101D01*
X68719608Y63519608D01*
X68501101Y63698932D01*
X68251808Y63832182D01*
X67981309Y63914236D01*
X67770492Y63935000D01*
X67629508Y63935000D01*
X67418691Y63914236D01*
X67148192Y63832182D01*
X66898899Y63698932D01*
X66680392Y63519608D01*
X66501068Y63301101D01*
X66430000Y63168142D01*
X66358932Y63301101D01*
X66179608Y63519608D01*
X65961101Y63698932D01*
X65711808Y63832182D01*
X65441309Y63914236D01*
X65230492Y63935000D01*
X65089508Y63935000D01*
X64878691Y63914236D01*
X64608192Y63832182D01*
X64358899Y63698932D01*
X64140392Y63519608D01*
X63961068Y63301101D01*
X63886353Y63161320D01*
X63841969Y63252342D01*
X63671715Y63476280D01*
X63461044Y63662700D01*
X63218052Y63804439D01*
X62952077Y63896049D01*
X62847446Y63916861D01*
X62623000Y63776246D01*
X62623000Y62503000D01*
X62643000Y62503000D01*
X62643000Y62497000D01*
X62623000Y62497000D01*
X62623000Y61223754D01*
X62847446Y61083139D01*
X62952077Y61103951D01*
X63218052Y61195561D01*
X63461044Y61337300D01*
X63671715Y61523720D01*
X63841969Y61747658D01*
X63886353Y61838680D01*
X63961068Y61698899D01*
X64140392Y61480392D01*
X64358899Y61301068D01*
X64608192Y61167818D01*
X64878691Y61085764D01*
X65089508Y61065000D01*
X65230492Y61065000D01*
X65441309Y61085764D01*
X65711808Y61167818D01*
X65961101Y61301068D01*
X66179608Y61480392D01*
X66358932Y61698899D01*
X66430000Y61831858D01*
X66501068Y61698899D01*
X66680392Y61480392D01*
X66898899Y61301068D01*
X67148192Y61167818D01*
X67418691Y61085764D01*
X67629508Y61065000D01*
X67770492Y61065000D01*
X67981309Y61085764D01*
X68251808Y61167818D01*
X68501101Y61301068D01*
X68719608Y61480392D01*
X68898932Y61698899D01*
X68970000Y61831858D01*
X69041068Y61698899D01*
X69220392Y61480392D01*
X69438899Y61301068D01*
X69688192Y61167818D01*
X69958691Y61085764D01*
X70169508Y61065000D01*
X70310492Y61065000D01*
X70521309Y61085764D01*
X70625000Y61117218D01*
X70625000Y54975000D01*
X69844369Y54975000D01*
X69826623Y54996623D01*
X69693942Y55105512D01*
X69542567Y55186423D01*
X69378316Y55236248D01*
X69207500Y55253072D01*
X68732500Y55253072D01*
X68561684Y55236248D01*
X68397433Y55186423D01*
X68246058Y55105512D01*
X68113377Y54996623D01*
X68004488Y54863942D01*
X67923577Y54712567D01*
X67873752Y54548316D01*
X67856928Y54377500D01*
X67856928Y54228507D01*
X64513422Y50885000D01*
X56043469Y50885000D01*
X56000000Y50889281D01*
X55956531Y50885000D01*
X55956523Y50885000D01*
X55826510Y50872195D01*
X55659686Y50821589D01*
X55505941Y50739411D01*
X55404953Y50656532D01*
X55404951Y50656530D01*
X55371183Y50628817D01*
X55343470Y50595049D01*
X54404951Y49656529D01*
X54371184Y49628817D01*
X54343471Y49595049D01*
X54343468Y49595046D01*
X54260590Y49494059D01*
X54178412Y49340313D01*
X54127805Y49173490D01*
X54123348Y49128231D01*
X51146847Y52104732D01*
X53533755Y52104732D01*
X53555333Y51996251D01*
X53650154Y51721016D01*
X53796849Y51469568D01*
X53989780Y51251570D01*
X54221533Y51075400D01*
X54483202Y50947827D01*
X54764732Y50873755D01*
X54997000Y51013753D01*
X54997000Y52337000D01*
X55003000Y52337000D01*
X55003000Y51013753D01*
X55235268Y50873755D01*
X55516798Y50947827D01*
X55778467Y51075400D01*
X56010220Y51251570D01*
X56203151Y51469568D01*
X56349846Y51721016D01*
X56444667Y51996251D01*
X56466245Y52104732D01*
X56326247Y52337000D01*
X55003000Y52337000D01*
X54997000Y52337000D01*
X53673753Y52337000D01*
X53533755Y52104732D01*
X51146847Y52104732D01*
X47794178Y55457400D01*
X49318999Y55457400D01*
X51582800Y53193598D01*
X51606599Y53164599D01*
X51722324Y53069626D01*
X51854353Y52999054D01*
X51997614Y52955597D01*
X52109267Y52944600D01*
X52109277Y52944600D01*
X52146600Y52940924D01*
X52183923Y52944600D01*
X53645199Y52944600D01*
X53555333Y52683749D01*
X53533755Y52575268D01*
X53673753Y52343000D01*
X54997000Y52343000D01*
X54997000Y52363000D01*
X55003000Y52363000D01*
X55003000Y52343000D01*
X56326247Y52343000D01*
X56466245Y52575268D01*
X56444667Y52683749D01*
X56354801Y52944600D01*
X58895699Y52944600D01*
X59809400Y52030898D01*
X59809400Y51968761D01*
X59849174Y51768802D01*
X59927195Y51580444D01*
X60040463Y51410926D01*
X60184626Y51266763D01*
X60354144Y51153495D01*
X60542502Y51075474D01*
X60742461Y51035700D01*
X60946339Y51035700D01*
X61146298Y51075474D01*
X61334656Y51153495D01*
X61504174Y51266763D01*
X61648337Y51410926D01*
X61761605Y51580444D01*
X61839626Y51768802D01*
X61879400Y51968761D01*
X61879400Y52172639D01*
X61839626Y52372598D01*
X61761605Y52560956D01*
X61648337Y52730474D01*
X61504174Y52874637D01*
X61334656Y52987905D01*
X61146298Y53065926D01*
X60946339Y53105700D01*
X60884202Y53105700D01*
X59774304Y54215597D01*
X59750501Y54244601D01*
X59634776Y54339574D01*
X59502747Y54410146D01*
X59359486Y54453603D01*
X59247833Y54464600D01*
X59247822Y54464600D01*
X59210500Y54468276D01*
X59173178Y54464600D01*
X56488072Y54464600D01*
X56488072Y55730000D01*
X56475812Y55854482D01*
X56439502Y55974180D01*
X56380537Y56084494D01*
X56301185Y56181185D01*
X56204494Y56260537D01*
X56094180Y56319502D01*
X55974482Y56355812D01*
X55850000Y56368072D01*
X54150000Y56368072D01*
X54025518Y56355812D01*
X53905820Y56319502D01*
X53795506Y56260537D01*
X53698815Y56181185D01*
X53653515Y56125987D01*
X49813304Y59966197D01*
X49789501Y59995201D01*
X49673776Y60090174D01*
X49541747Y60160746D01*
X49398486Y60204203D01*
X49286833Y60215200D01*
X49286822Y60215200D01*
X49249500Y60218876D01*
X49212178Y60215200D01*
X39214810Y60215200D01*
X39346623Y60323377D01*
X39455512Y60456058D01*
X39462964Y60470000D01*
X47540778Y60470000D01*
X47578100Y60466324D01*
X47615422Y60470000D01*
X47615433Y60470000D01*
X47727086Y60480997D01*
X47870347Y60524454D01*
X48002376Y60595026D01*
X48118101Y60689999D01*
X48141904Y60719003D01*
X55607502Y68184600D01*
X56179342Y68184600D01*
X56161401Y68151034D01*
X56076487Y67871111D01*
X56047815Y67580000D01*
X56076487Y67288889D01*
X56161401Y67008966D01*
X56299294Y66750986D01*
X56484866Y66524866D01*
X56540064Y66479566D01*
X54489003Y64428504D01*
X54459999Y64404701D01*
X54404871Y64337526D01*
X54365026Y64288976D01*
X54311640Y64189099D01*
X54294454Y64156946D01*
X54250997Y64013685D01*
X54243550Y63938072D01*
X54200000Y63938072D01*
X54075518Y63925812D01*
X53955820Y63889502D01*
X53845506Y63830537D01*
X53748815Y63751185D01*
X53669463Y63654494D01*
X53610498Y63544180D01*
X53574188Y63424482D01*
X53561928Y63300000D01*
X53561928Y61700000D01*
X53574188Y61575518D01*
X53610498Y61455820D01*
X53669463Y61345506D01*
X53748815Y61248815D01*
X53845506Y61169463D01*
X53955820Y61110498D01*
X54075518Y61074188D01*
X54200000Y61061928D01*
X55800000Y61061928D01*
X55924482Y61074188D01*
X56044180Y61110498D01*
X56154494Y61169463D01*
X56251185Y61248815D01*
X56330537Y61345506D01*
X56389502Y61455820D01*
X56425812Y61575518D01*
X56427581Y61593482D01*
X56520392Y61480392D01*
X56738899Y61301068D01*
X56988192Y61167818D01*
X57258691Y61085764D01*
X57469508Y61065000D01*
X57610492Y61065000D01*
X57821309Y61085764D01*
X58091808Y61167818D01*
X58341101Y61301068D01*
X58559608Y61480392D01*
X58738932Y61698899D01*
X58810000Y61831858D01*
X58881068Y61698899D01*
X59060392Y61480392D01*
X59278899Y61301068D01*
X59528192Y61167818D01*
X59798691Y61085764D01*
X60009508Y61065000D01*
X60150492Y61065000D01*
X60361309Y61085764D01*
X60631808Y61167818D01*
X60881101Y61301068D01*
X61099608Y61480392D01*
X61278932Y61698899D01*
X61353647Y61838680D01*
X61398031Y61747658D01*
X61568285Y61523720D01*
X61778956Y61337300D01*
X62021948Y61195561D01*
X62287923Y61103951D01*
X62392554Y61083139D01*
X62617000Y61223754D01*
X62617000Y62497000D01*
X62597000Y62497000D01*
X62597000Y62503000D01*
X62617000Y62503000D01*
X62617000Y63776246D01*
X62392554Y63916861D01*
X62287923Y63896049D01*
X62021948Y63804439D01*
X61778956Y63662700D01*
X61568285Y63476280D01*
X61398031Y63252342D01*
X61353647Y63161320D01*
X61278932Y63301101D01*
X61099608Y63519608D01*
X60881101Y63698932D01*
X60631808Y63832182D01*
X60361309Y63914236D01*
X60150492Y63935000D01*
X60009508Y63935000D01*
X59798691Y63914236D01*
X59528192Y63832182D01*
X59278899Y63698932D01*
X59060392Y63519608D01*
X58881068Y63301101D01*
X58810000Y63168142D01*
X58738932Y63301101D01*
X58559608Y63519608D01*
X58341101Y63698932D01*
X58091808Y63832182D01*
X57821309Y63914236D01*
X57610492Y63935000D01*
X57469508Y63935000D01*
X57258691Y63914236D01*
X56988192Y63832182D01*
X56738899Y63698932D01*
X56520392Y63519608D01*
X56427581Y63406518D01*
X56425812Y63424482D01*
X56389502Y63544180D01*
X56330537Y63654494D01*
X56251185Y63751185D01*
X56154494Y63830537D01*
X56080298Y63870196D01*
X58051008Y65840905D01*
X58080001Y65864699D01*
X58103795Y65893692D01*
X58103799Y65893696D01*
X58174973Y65980423D01*
X58179877Y65989597D01*
X58245546Y66112453D01*
X58289003Y66255714D01*
X58293246Y66298795D01*
X58369014Y66339294D01*
X58595134Y66524866D01*
X58780706Y66750986D01*
X58918599Y67008966D01*
X59003513Y67288889D01*
X59032185Y67580000D01*
X59003513Y67871111D01*
X58918599Y68151034D01*
X58900658Y68184600D01*
X61259342Y68184600D01*
X61241401Y68151034D01*
X61156487Y67871111D01*
X61127815Y67580000D01*
X61156487Y67288889D01*
X61241401Y67008966D01*
X61379294Y66750986D01*
X61564866Y66524866D01*
X61790986Y66339294D01*
X62048966Y66201401D01*
X62328889Y66116487D01*
X62547050Y66095000D01*
X62692950Y66095000D01*
X62911111Y66116487D01*
X63191034Y66201401D01*
X63449014Y66339294D01*
X63675134Y66524866D01*
X63860706Y66750986D01*
X63998599Y67008966D01*
X64083513Y67288889D01*
X64112185Y67580000D01*
X64083513Y67871111D01*
X63998599Y68151034D01*
X63980658Y68184600D01*
X65205378Y68184600D01*
X65242700Y68180924D01*
X65280022Y68184600D01*
X65280033Y68184600D01*
X65391686Y68195597D01*
X65534947Y68239054D01*
X65666976Y68309626D01*
X65782701Y68404599D01*
X65806504Y68433602D01*
X67555203Y70182300D01*
X68057403Y70182300D01*
X68049315Y70167168D01*
X68049315Y70167168D01*
G37*
X68049315Y70167168D02*
X67950105Y69840119D01*
X67925000Y69585225D01*
X67925000Y68114776D01*
X67950105Y67859882D01*
X68049314Y67532833D01*
X68210421Y67231423D01*
X68427234Y66967234D01*
X68691422Y66750421D01*
X68992832Y66589314D01*
X69319881Y66490105D01*
X69660000Y66456606D01*
X70000118Y66490105D01*
X70327167Y66589314D01*
X70625001Y66748510D01*
X70625001Y63882782D01*
X70521309Y63914236D01*
X70310492Y63935000D01*
X70169508Y63935000D01*
X69958691Y63914236D01*
X69688192Y63832182D01*
X69438899Y63698932D01*
X69220392Y63519608D01*
X69041068Y63301101D01*
X68970000Y63168142D01*
X68898932Y63301101D01*
X68719608Y63519608D01*
X68501101Y63698932D01*
X68251808Y63832182D01*
X67981309Y63914236D01*
X67770492Y63935000D01*
X67629508Y63935000D01*
X67418691Y63914236D01*
X67148192Y63832182D01*
X66898899Y63698932D01*
X66680392Y63519608D01*
X66501068Y63301101D01*
X66430000Y63168142D01*
X66358932Y63301101D01*
X66179608Y63519608D01*
X65961101Y63698932D01*
X65711808Y63832182D01*
X65441309Y63914236D01*
X65230492Y63935000D01*
X65089508Y63935000D01*
X64878691Y63914236D01*
X64608192Y63832182D01*
X64358899Y63698932D01*
X64140392Y63519608D01*
X63961068Y63301101D01*
X63886353Y63161320D01*
X63841969Y63252342D01*
X63671715Y63476280D01*
X63461044Y63662700D01*
X63218052Y63804439D01*
X62952077Y63896049D01*
X62847446Y63916861D01*
X62623000Y63776246D01*
X62623000Y62503000D01*
X62643000Y62503000D01*
X62643000Y62497000D01*
X62623000Y62497000D01*
X62623000Y61223754D01*
X62847446Y61083139D01*
X62952077Y61103951D01*
X63218052Y61195561D01*
X63461044Y61337300D01*
X63671715Y61523720D01*
X63841969Y61747658D01*
X63886353Y61838680D01*
X63961068Y61698899D01*
X64140392Y61480392D01*
X64358899Y61301068D01*
X64608192Y61167818D01*
X64878691Y61085764D01*
X65089508Y61065000D01*
X65230492Y61065000D01*
X65441309Y61085764D01*
X65711808Y61167818D01*
X65961101Y61301068D01*
X66179608Y61480392D01*
X66358932Y61698899D01*
X66430000Y61831858D01*
X66501068Y61698899D01*
X66680392Y61480392D01*
X66898899Y61301068D01*
X67148192Y61167818D01*
X67418691Y61085764D01*
X67629508Y61065000D01*
X67770492Y61065000D01*
X67981309Y61085764D01*
X68251808Y61167818D01*
X68501101Y61301068D01*
X68719608Y61480392D01*
X68898932Y61698899D01*
X68970000Y61831858D01*
X69041068Y61698899D01*
X69220392Y61480392D01*
X69438899Y61301068D01*
X69688192Y61167818D01*
X69958691Y61085764D01*
X70169508Y61065000D01*
X70310492Y61065000D01*
X70521309Y61085764D01*
X70625000Y61117218D01*
X70625000Y54975000D01*
X69844369Y54975000D01*
X69826623Y54996623D01*
X69693942Y55105512D01*
X69542567Y55186423D01*
X69378316Y55236248D01*
X69207500Y55253072D01*
X68732500Y55253072D01*
X68561684Y55236248D01*
X68397433Y55186423D01*
X68246058Y55105512D01*
X68113377Y54996623D01*
X68004488Y54863942D01*
X67923577Y54712567D01*
X67873752Y54548316D01*
X67856928Y54377500D01*
X67856928Y54228507D01*
X64513422Y50885000D01*
X56043469Y50885000D01*
X56000000Y50889281D01*
X55956531Y50885000D01*
X55956523Y50885000D01*
X55826510Y50872195D01*
X55659686Y50821589D01*
X55505941Y50739411D01*
X55404953Y50656532D01*
X55404951Y50656530D01*
X55371183Y50628817D01*
X55343470Y50595049D01*
X54404951Y49656529D01*
X54371184Y49628817D01*
X54343471Y49595049D01*
X54343468Y49595046D01*
X54260590Y49494059D01*
X54178412Y49340313D01*
X54127805Y49173490D01*
X54123348Y49128231D01*
X51146847Y52104732D01*
X53533755Y52104732D01*
X53555333Y51996251D01*
X53650154Y51721016D01*
X53796849Y51469568D01*
X53989780Y51251570D01*
X54221533Y51075400D01*
X54483202Y50947827D01*
X54764732Y50873755D01*
X54997000Y51013753D01*
X54997000Y52337000D01*
X55003000Y52337000D01*
X55003000Y51013753D01*
X55235268Y50873755D01*
X55516798Y50947827D01*
X55778467Y51075400D01*
X56010220Y51251570D01*
X56203151Y51469568D01*
X56349846Y51721016D01*
X56444667Y51996251D01*
X56466245Y52104732D01*
X56326247Y52337000D01*
X55003000Y52337000D01*
X54997000Y52337000D01*
X53673753Y52337000D01*
X53533755Y52104732D01*
X51146847Y52104732D01*
X47794178Y55457400D01*
X49318999Y55457400D01*
X51582800Y53193598D01*
X51606599Y53164599D01*
X51722324Y53069626D01*
X51854353Y52999054D01*
X51997614Y52955597D01*
X52109267Y52944600D01*
X52109277Y52944600D01*
X52146600Y52940924D01*
X52183923Y52944600D01*
X53645199Y52944600D01*
X53555333Y52683749D01*
X53533755Y52575268D01*
X53673753Y52343000D01*
X54997000Y52343000D01*
X54997000Y52363000D01*
X55003000Y52363000D01*
X55003000Y52343000D01*
X56326247Y52343000D01*
X56466245Y52575268D01*
X56444667Y52683749D01*
X56354801Y52944600D01*
X58895699Y52944600D01*
X59809400Y52030898D01*
X59809400Y51968761D01*
X59849174Y51768802D01*
X59927195Y51580444D01*
X60040463Y51410926D01*
X60184626Y51266763D01*
X60354144Y51153495D01*
X60542502Y51075474D01*
X60742461Y51035700D01*
X60946339Y51035700D01*
X61146298Y51075474D01*
X61334656Y51153495D01*
X61504174Y51266763D01*
X61648337Y51410926D01*
X61761605Y51580444D01*
X61839626Y51768802D01*
X61879400Y51968761D01*
X61879400Y52172639D01*
X61839626Y52372598D01*
X61761605Y52560956D01*
X61648337Y52730474D01*
X61504174Y52874637D01*
X61334656Y52987905D01*
X61146298Y53065926D01*
X60946339Y53105700D01*
X60884202Y53105700D01*
X59774304Y54215597D01*
X59750501Y54244601D01*
X59634776Y54339574D01*
X59502747Y54410146D01*
X59359486Y54453603D01*
X59247833Y54464600D01*
X59247822Y54464600D01*
X59210500Y54468276D01*
X59173178Y54464600D01*
X56488072Y54464600D01*
X56488072Y55730000D01*
X56475812Y55854482D01*
X56439502Y55974180D01*
X56380537Y56084494D01*
X56301185Y56181185D01*
X56204494Y56260537D01*
X56094180Y56319502D01*
X55974482Y56355812D01*
X55850000Y56368072D01*
X54150000Y56368072D01*
X54025518Y56355812D01*
X53905820Y56319502D01*
X53795506Y56260537D01*
X53698815Y56181185D01*
X53653515Y56125987D01*
X49813304Y59966197D01*
X49789501Y59995201D01*
X49673776Y60090174D01*
X49541747Y60160746D01*
X49398486Y60204203D01*
X49286833Y60215200D01*
X49286822Y60215200D01*
X49249500Y60218876D01*
X49212178Y60215200D01*
X39214810Y60215200D01*
X39346623Y60323377D01*
X39455512Y60456058D01*
X39462964Y60470000D01*
X47540778Y60470000D01*
X47578100Y60466324D01*
X47615422Y60470000D01*
X47615433Y60470000D01*
X47727086Y60480997D01*
X47870347Y60524454D01*
X48002376Y60595026D01*
X48118101Y60689999D01*
X48141904Y60719003D01*
X55607502Y68184600D01*
X56179342Y68184600D01*
X56161401Y68151034D01*
X56076487Y67871111D01*
X56047815Y67580000D01*
X56076487Y67288889D01*
X56161401Y67008966D01*
X56299294Y66750986D01*
X56484866Y66524866D01*
X56540064Y66479566D01*
X54489003Y64428504D01*
X54459999Y64404701D01*
X54404871Y64337526D01*
X54365026Y64288976D01*
X54311640Y64189099D01*
X54294454Y64156946D01*
X54250997Y64013685D01*
X54243550Y63938072D01*
X54200000Y63938072D01*
X54075518Y63925812D01*
X53955820Y63889502D01*
X53845506Y63830537D01*
X53748815Y63751185D01*
X53669463Y63654494D01*
X53610498Y63544180D01*
X53574188Y63424482D01*
X53561928Y63300000D01*
X53561928Y61700000D01*
X53574188Y61575518D01*
X53610498Y61455820D01*
X53669463Y61345506D01*
X53748815Y61248815D01*
X53845506Y61169463D01*
X53955820Y61110498D01*
X54075518Y61074188D01*
X54200000Y61061928D01*
X55800000Y61061928D01*
X55924482Y61074188D01*
X56044180Y61110498D01*
X56154494Y61169463D01*
X56251185Y61248815D01*
X56330537Y61345506D01*
X56389502Y61455820D01*
X56425812Y61575518D01*
X56427581Y61593482D01*
X56520392Y61480392D01*
X56738899Y61301068D01*
X56988192Y61167818D01*
X57258691Y61085764D01*
X57469508Y61065000D01*
X57610492Y61065000D01*
X57821309Y61085764D01*
X58091808Y61167818D01*
X58341101Y61301068D01*
X58559608Y61480392D01*
X58738932Y61698899D01*
X58810000Y61831858D01*
X58881068Y61698899D01*
X59060392Y61480392D01*
X59278899Y61301068D01*
X59528192Y61167818D01*
X59798691Y61085764D01*
X60009508Y61065000D01*
X60150492Y61065000D01*
X60361309Y61085764D01*
X60631808Y61167818D01*
X60881101Y61301068D01*
X61099608Y61480392D01*
X61278932Y61698899D01*
X61353647Y61838680D01*
X61398031Y61747658D01*
X61568285Y61523720D01*
X61778956Y61337300D01*
X62021948Y61195561D01*
X62287923Y61103951D01*
X62392554Y61083139D01*
X62617000Y61223754D01*
X62617000Y62497000D01*
X62597000Y62497000D01*
X62597000Y62503000D01*
X62617000Y62503000D01*
X62617000Y63776246D01*
X62392554Y63916861D01*
X62287923Y63896049D01*
X62021948Y63804439D01*
X61778956Y63662700D01*
X61568285Y63476280D01*
X61398031Y63252342D01*
X61353647Y63161320D01*
X61278932Y63301101D01*
X61099608Y63519608D01*
X60881101Y63698932D01*
X60631808Y63832182D01*
X60361309Y63914236D01*
X60150492Y63935000D01*
X60009508Y63935000D01*
X59798691Y63914236D01*
X59528192Y63832182D01*
X59278899Y63698932D01*
X59060392Y63519608D01*
X58881068Y63301101D01*
X58810000Y63168142D01*
X58738932Y63301101D01*
X58559608Y63519608D01*
X58341101Y63698932D01*
X58091808Y63832182D01*
X57821309Y63914236D01*
X57610492Y63935000D01*
X57469508Y63935000D01*
X57258691Y63914236D01*
X56988192Y63832182D01*
X56738899Y63698932D01*
X56520392Y63519608D01*
X56427581Y63406518D01*
X56425812Y63424482D01*
X56389502Y63544180D01*
X56330537Y63654494D01*
X56251185Y63751185D01*
X56154494Y63830537D01*
X56080298Y63870196D01*
X58051008Y65840905D01*
X58080001Y65864699D01*
X58103795Y65893692D01*
X58103799Y65893696D01*
X58174973Y65980423D01*
X58179877Y65989597D01*
X58245546Y66112453D01*
X58289003Y66255714D01*
X58293246Y66298795D01*
X58369014Y66339294D01*
X58595134Y66524866D01*
X58780706Y66750986D01*
X58918599Y67008966D01*
X59003513Y67288889D01*
X59032185Y67580000D01*
X59003513Y67871111D01*
X58918599Y68151034D01*
X58900658Y68184600D01*
X61259342Y68184600D01*
X61241401Y68151034D01*
X61156487Y67871111D01*
X61127815Y67580000D01*
X61156487Y67288889D01*
X61241401Y67008966D01*
X61379294Y66750986D01*
X61564866Y66524866D01*
X61790986Y66339294D01*
X62048966Y66201401D01*
X62328889Y66116487D01*
X62547050Y66095000D01*
X62692950Y66095000D01*
X62911111Y66116487D01*
X63191034Y66201401D01*
X63449014Y66339294D01*
X63675134Y66524866D01*
X63860706Y66750986D01*
X63998599Y67008966D01*
X64083513Y67288889D01*
X64112185Y67580000D01*
X64083513Y67871111D01*
X63998599Y68151034D01*
X63980658Y68184600D01*
X65205378Y68184600D01*
X65242700Y68180924D01*
X65280022Y68184600D01*
X65280033Y68184600D01*
X65391686Y68195597D01*
X65534947Y68239054D01*
X65666976Y68309626D01*
X65782701Y68404599D01*
X65806504Y68433602D01*
X67555203Y70182300D01*
X68057403Y70182300D01*
X68049315Y70167168D01*
G36*
X74121068Y61698899D02*
G01*
X74300392Y61480392D01*
X74518899Y61301068D01*
X74566059Y61275860D01*
X74570998Y61225714D01*
X74571593Y61223754D01*
X74614454Y61082454D01*
X74685026Y60950424D01*
X74756201Y60863698D01*
X74780000Y60834699D01*
X74808998Y60810901D01*
X75749601Y59870296D01*
X75749601Y58835115D01*
X75555268Y58886245D01*
X75323000Y58746247D01*
X75323000Y57423000D01*
X75343000Y57423000D01*
X75343000Y57417000D01*
X75323000Y57417000D01*
X75323000Y57397000D01*
X75317000Y57397000D01*
X75317000Y57417000D01*
X73993753Y57417000D01*
X73853755Y57184732D01*
X73875333Y57076251D01*
X73970154Y56801016D01*
X74116849Y56549568D01*
X74309780Y56331570D01*
X74541533Y56155400D01*
X74549044Y56151738D01*
X74490986Y56120706D01*
X74264866Y55935134D01*
X74079294Y55709014D01*
X74038795Y55633246D01*
X73995714Y55629003D01*
X73852453Y55585546D01*
X73720424Y55514974D01*
X73604699Y55420001D01*
X73580901Y55391003D01*
X72618080Y54428182D01*
X72606248Y54548316D01*
X72556423Y54712567D01*
X72475512Y54863942D01*
X72395000Y54962046D01*
X72395000Y57655268D01*
X73853755Y57655268D01*
X73993753Y57423000D01*
X75317000Y57423000D01*
X75317000Y58746247D01*
X75084732Y58886245D01*
X74803202Y58812173D01*
X74541533Y58684600D01*
X74309780Y58508430D01*
X74116849Y58290432D01*
X73970154Y58038984D01*
X73875333Y57763749D01*
X73853755Y57655268D01*
X72395000Y57655268D01*
X72395000Y61117218D01*
X72498691Y61085764D01*
X72709508Y61065000D01*
X72850492Y61065000D01*
X73061309Y61085764D01*
X73331808Y61167818D01*
X73581101Y61301068D01*
X73799608Y61480392D01*
X73978932Y61698899D01*
X74050000Y61831858D01*
X74121068Y61698899D01*
X74121068Y61698899D01*
G37*
X74121068Y61698899D02*
X74300392Y61480392D01*
X74518899Y61301068D01*
X74566059Y61275860D01*
X74570998Y61225714D01*
X74571593Y61223754D01*
X74614454Y61082454D01*
X74685026Y60950424D01*
X74756201Y60863698D01*
X74780000Y60834699D01*
X74808998Y60810901D01*
X75749601Y59870296D01*
X75749601Y58835115D01*
X75555268Y58886245D01*
X75323000Y58746247D01*
X75323000Y57423000D01*
X75343000Y57423000D01*
X75343000Y57417000D01*
X75323000Y57417000D01*
X75323000Y57397000D01*
X75317000Y57397000D01*
X75317000Y57417000D01*
X73993753Y57417000D01*
X73853755Y57184732D01*
X73875333Y57076251D01*
X73970154Y56801016D01*
X74116849Y56549568D01*
X74309780Y56331570D01*
X74541533Y56155400D01*
X74549044Y56151738D01*
X74490986Y56120706D01*
X74264866Y55935134D01*
X74079294Y55709014D01*
X74038795Y55633246D01*
X73995714Y55629003D01*
X73852453Y55585546D01*
X73720424Y55514974D01*
X73604699Y55420001D01*
X73580901Y55391003D01*
X72618080Y54428182D01*
X72606248Y54548316D01*
X72556423Y54712567D01*
X72475512Y54863942D01*
X72395000Y54962046D01*
X72395000Y57655268D01*
X73853755Y57655268D01*
X73993753Y57423000D01*
X75317000Y57423000D01*
X75317000Y58746247D01*
X75084732Y58886245D01*
X74803202Y58812173D01*
X74541533Y58684600D01*
X74309780Y58508430D01*
X74116849Y58290432D01*
X73970154Y58038984D01*
X73875333Y57763749D01*
X73853755Y57655268D01*
X72395000Y57655268D01*
X72395000Y61117218D01*
X72498691Y61085764D01*
X72709508Y61065000D01*
X72850492Y61065000D01*
X73061309Y61085764D01*
X73331808Y61167818D01*
X73581101Y61301068D01*
X73799608Y61480392D01*
X73978932Y61698899D01*
X74050000Y61831858D01*
X74121068Y61698899D01*
G36*
X53165298Y54464600D02*
G01*
X52461402Y54464600D01*
X50197604Y56728397D01*
X50173801Y56757401D01*
X50058076Y56852374D01*
X49926047Y56922946D01*
X49782786Y56966403D01*
X49671133Y56977400D01*
X49671122Y56977400D01*
X49633800Y56981076D01*
X49596478Y56977400D01*
X44236502Y56977400D01*
X44235000Y57338250D01*
X44076250Y57497000D01*
X42703000Y57497000D01*
X42703000Y57477000D01*
X42697000Y57477000D01*
X42697000Y57497000D01*
X42677000Y57497000D01*
X42677000Y57503000D01*
X42697000Y57503000D01*
X42697000Y57523000D01*
X42703000Y57523000D01*
X42703000Y57503000D01*
X44076250Y57503000D01*
X44235000Y57661750D01*
X44238072Y58400000D01*
X44225812Y58524482D01*
X44189502Y58644180D01*
X44162231Y58695200D01*
X48934699Y58695200D01*
X53165298Y54464600D01*
X53165298Y54464600D01*
G37*
X53165298Y54464600D02*
X52461402Y54464600D01*
X50197604Y56728397D01*
X50173801Y56757401D01*
X50058076Y56852374D01*
X49926047Y56922946D01*
X49782786Y56966403D01*
X49671133Y56977400D01*
X49671122Y56977400D01*
X49633800Y56981076D01*
X49596478Y56977400D01*
X44236502Y56977400D01*
X44235000Y57338250D01*
X44076250Y57497000D01*
X42703000Y57497000D01*
X42703000Y57477000D01*
X42697000Y57477000D01*
X42697000Y57497000D01*
X42677000Y57497000D01*
X42677000Y57503000D01*
X42697000Y57503000D01*
X42697000Y57523000D01*
X42703000Y57523000D01*
X42703000Y57503000D01*
X44076250Y57503000D01*
X44235000Y57661750D01*
X44238072Y58400000D01*
X44225812Y58524482D01*
X44189502Y58644180D01*
X44162231Y58695200D01*
X48934699Y58695200D01*
X53165298Y54464600D01*
G36*
X56051928Y69704600D02*
G01*
X55330023Y69704600D01*
X55292700Y69708276D01*
X55255377Y69704600D01*
X55255367Y69704600D01*
X55143714Y69693603D01*
X55000453Y69650146D01*
X54868423Y69579574D01*
X54813746Y69534701D01*
X54752699Y69484601D01*
X54728901Y69455603D01*
X47263299Y61990000D01*
X39462964Y61990000D01*
X39455512Y62003942D01*
X39372575Y62105000D01*
X39455512Y62206058D01*
X39536423Y62357433D01*
X39586248Y62521684D01*
X39603072Y62692500D01*
X39603072Y63267500D01*
X39586248Y63438316D01*
X39536423Y63602567D01*
X39455512Y63753942D01*
X39346623Y63886623D01*
X39213942Y63995512D01*
X39062567Y64076423D01*
X38898316Y64126248D01*
X38727500Y64143072D01*
X38401729Y64143072D01*
X37808504Y64736297D01*
X37784701Y64765301D01*
X37668976Y64860274D01*
X37536947Y64930846D01*
X37393686Y64974303D01*
X37282033Y64985300D01*
X37282022Y64985300D01*
X37244700Y64988976D01*
X37207378Y64985300D01*
X25037333Y64985300D01*
X25000000Y64988977D01*
X24962667Y64985300D01*
X24851014Y64974303D01*
X24707753Y64930846D01*
X24575724Y64860274D01*
X24459999Y64765301D01*
X24365026Y64649576D01*
X24294454Y64517547D01*
X24250997Y64374286D01*
X24247450Y64338271D01*
X24143074Y64282481D01*
X23909340Y64090661D01*
X23717519Y63856927D01*
X23574983Y63590261D01*
X23487210Y63300913D01*
X23465000Y63075408D01*
X23465000Y61924593D01*
X23487210Y61699088D01*
X23574983Y61409740D01*
X23717519Y61143074D01*
X23909339Y60909339D01*
X24143073Y60717519D01*
X24409739Y60574983D01*
X24699087Y60487210D01*
X25000000Y60457573D01*
X25300912Y60487210D01*
X25590260Y60574983D01*
X25856926Y60717519D01*
X26090661Y60909339D01*
X26250000Y61103495D01*
X26409339Y60909339D01*
X26643073Y60717519D01*
X26747451Y60661728D01*
X26750998Y60625714D01*
X26760307Y60595026D01*
X26794454Y60482454D01*
X26865026Y60350424D01*
X26936201Y60263698D01*
X26960000Y60234699D01*
X26988998Y60210901D01*
X28163642Y59036256D01*
X27861750Y59035000D01*
X27703000Y58876250D01*
X27703000Y57503000D01*
X29076250Y57503000D01*
X29235000Y57661750D01*
X29238072Y58400000D01*
X29225812Y58524482D01*
X29189502Y58644180D01*
X29162231Y58695200D01*
X36725817Y58695200D01*
X36721495Y58692312D01*
X36507688Y58478505D01*
X36339701Y58227095D01*
X36223989Y57947743D01*
X36165000Y57651184D01*
X36165000Y57348816D01*
X36223989Y57052257D01*
X36339701Y56772905D01*
X36507688Y56521495D01*
X36721495Y56307688D01*
X36972905Y56139701D01*
X37252257Y56023989D01*
X37548816Y55965000D01*
X37851184Y55965000D01*
X37961482Y55986940D01*
X38063422Y55885000D01*
X25566579Y55885000D01*
X25464116Y55987463D01*
X25647743Y56023989D01*
X25927095Y56139701D01*
X26178505Y56307688D01*
X26216120Y56345303D01*
X26269463Y56245506D01*
X26348815Y56148815D01*
X26445506Y56069463D01*
X26555820Y56010498D01*
X26675518Y55974188D01*
X26800000Y55961928D01*
X27538250Y55965000D01*
X27697000Y56123750D01*
X27697000Y57497000D01*
X27703000Y57497000D01*
X27703000Y56123750D01*
X27861750Y55965000D01*
X28600000Y55961928D01*
X28724482Y55974188D01*
X28844180Y56010498D01*
X28954494Y56069463D01*
X29051185Y56148815D01*
X29130537Y56245506D01*
X29189502Y56355820D01*
X29225812Y56475518D01*
X29238072Y56600000D01*
X29235000Y57338250D01*
X29076250Y57497000D01*
X27703000Y57497000D01*
X27697000Y57497000D01*
X27677000Y57497000D01*
X27677000Y57503000D01*
X27697000Y57503000D01*
X27697000Y58876250D01*
X27538250Y59035000D01*
X26800000Y59038072D01*
X26675518Y59025812D01*
X26555820Y58989502D01*
X26445506Y58930537D01*
X26348815Y58851185D01*
X26269463Y58754494D01*
X26216120Y58654697D01*
X26178505Y58692312D01*
X25927095Y58860299D01*
X25647743Y58976011D01*
X25351184Y59035000D01*
X25048816Y59035000D01*
X24752257Y58976011D01*
X24472905Y58860299D01*
X24221495Y58692312D01*
X24007688Y58478505D01*
X23950000Y58392169D01*
X23892312Y58478505D01*
X23678505Y58692312D01*
X23427095Y58860299D01*
X23147743Y58976011D01*
X22851184Y59035000D01*
X22548816Y59035000D01*
X22252257Y58976011D01*
X21972905Y58860299D01*
X21721495Y58692312D01*
X21507688Y58478505D01*
X21339701Y58227095D01*
X21223989Y57947743D01*
X21165000Y57651184D01*
X21165000Y57348816D01*
X21223989Y57052257D01*
X21339701Y56772905D01*
X21507688Y56521495D01*
X21721495Y56307688D01*
X21972905Y56139701D01*
X22252257Y56023989D01*
X22548816Y55965000D01*
X22851184Y55965000D01*
X22961482Y55986940D01*
X23063422Y55885000D01*
X10566579Y55885000D01*
X10464115Y55987463D01*
X10647743Y56023989D01*
X10927095Y56139701D01*
X11178505Y56307688D01*
X11216120Y56345303D01*
X11269463Y56245506D01*
X11348815Y56148815D01*
X11445506Y56069463D01*
X11555820Y56010498D01*
X11675518Y55974188D01*
X11800000Y55961928D01*
X12538250Y55965000D01*
X12697000Y56123750D01*
X12697000Y57497000D01*
X12703000Y57497000D01*
X12703000Y56123750D01*
X12861750Y55965000D01*
X13600000Y55961928D01*
X13724482Y55974188D01*
X13844180Y56010498D01*
X13954494Y56069463D01*
X14051185Y56148815D01*
X14130537Y56245506D01*
X14189502Y56355820D01*
X14225812Y56475518D01*
X14238072Y56600000D01*
X14235000Y57338250D01*
X14076250Y57497000D01*
X12703000Y57497000D01*
X12697000Y57497000D01*
X12677000Y57497000D01*
X12677000Y57503000D01*
X12697000Y57503000D01*
X12697000Y58876250D01*
X12703000Y58876250D01*
X12703000Y57503000D01*
X14076250Y57503000D01*
X14235000Y57661750D01*
X14238072Y58400000D01*
X14225812Y58524482D01*
X14189502Y58644180D01*
X14130537Y58754494D01*
X14051185Y58851185D01*
X13954494Y58930537D01*
X13844180Y58989502D01*
X13724482Y59025812D01*
X13600000Y59038072D01*
X12861750Y59035000D01*
X12703000Y58876250D01*
X12697000Y58876250D01*
X12538250Y59035000D01*
X11800000Y59038072D01*
X11675518Y59025812D01*
X11555820Y58989502D01*
X11445506Y58930537D01*
X11348815Y58851185D01*
X11269463Y58754494D01*
X11216120Y58654697D01*
X11178505Y58692312D01*
X10927095Y58860299D01*
X10647743Y58976011D01*
X10351184Y59035000D01*
X10048816Y59035000D01*
X9791070Y58983731D01*
X9526804Y59247997D01*
X9503001Y59277001D01*
X9387276Y59371974D01*
X9255247Y59442546D01*
X9111986Y59486003D01*
X9000333Y59497000D01*
X9000322Y59497000D01*
X8963000Y59500676D01*
X8925678Y59497000D01*
X8375602Y59497000D01*
X9493303Y60614700D01*
X10002667Y60614700D01*
X10040000Y60611023D01*
X10188986Y60625697D01*
X10332247Y60669154D01*
X10464276Y60739726D01*
X10580001Y60834699D01*
X10674974Y60950424D01*
X10745546Y61082453D01*
X10789003Y61225714D01*
X10793942Y61275861D01*
X10841101Y61301068D01*
X11059608Y61480392D01*
X11238932Y61698899D01*
X11264139Y61746058D01*
X11314286Y61750997D01*
X11347789Y61761160D01*
X11381068Y61698899D01*
X11560392Y61480392D01*
X11778899Y61301068D01*
X12028192Y61167818D01*
X12298691Y61085764D01*
X12509508Y61065000D01*
X12650492Y61065000D01*
X12861309Y61085764D01*
X13131808Y61167818D01*
X13381101Y61301068D01*
X13599608Y61480392D01*
X13778932Y61698899D01*
X13850000Y61831858D01*
X13921068Y61698899D01*
X14100392Y61480392D01*
X14318899Y61301068D01*
X14568192Y61167818D01*
X14838691Y61085764D01*
X15049508Y61065000D01*
X15190492Y61065000D01*
X15401309Y61085764D01*
X15671808Y61167818D01*
X15921101Y61301068D01*
X16139608Y61480392D01*
X16318932Y61698899D01*
X16390000Y61831858D01*
X16461068Y61698899D01*
X16640392Y61480392D01*
X16858899Y61301068D01*
X17108192Y61167818D01*
X17378691Y61085764D01*
X17589508Y61065000D01*
X17730492Y61065000D01*
X17941309Y61085764D01*
X18211808Y61167818D01*
X18461101Y61301068D01*
X18679608Y61480392D01*
X18858932Y61698899D01*
X18992182Y61948192D01*
X19074236Y62218691D01*
X19101943Y62500000D01*
X19074236Y62781309D01*
X18992182Y63051808D01*
X18858932Y63301101D01*
X18679608Y63519608D01*
X18461101Y63698932D01*
X18211808Y63832182D01*
X17941309Y63914236D01*
X17730492Y63935000D01*
X17589508Y63935000D01*
X17378691Y63914236D01*
X17108192Y63832182D01*
X16858899Y63698932D01*
X16640392Y63519608D01*
X16461068Y63301101D01*
X16390000Y63168142D01*
X16318932Y63301101D01*
X16139608Y63519608D01*
X15921101Y63698932D01*
X15671808Y63832182D01*
X15401309Y63914236D01*
X15190492Y63935000D01*
X15049508Y63935000D01*
X14838691Y63914236D01*
X14568192Y63832182D01*
X14318899Y63698932D01*
X14100392Y63519608D01*
X13921068Y63301101D01*
X13850000Y63168142D01*
X13778932Y63301101D01*
X13741866Y63346265D01*
X17558651Y67163050D01*
X27391757Y67163050D01*
X27405439Y67086425D01*
X27526370Y66685743D01*
X27723146Y66316353D01*
X27988206Y65992449D01*
X28311363Y65726480D01*
X28680199Y65528666D01*
X29080540Y65406609D01*
X29497000Y65365000D01*
X29997000Y65365000D01*
X29997000Y67497000D01*
X30003000Y67497000D01*
X30003000Y65365000D01*
X30503000Y65365000D01*
X30919460Y65406609D01*
X31319801Y65528666D01*
X31688637Y65726480D01*
X32011794Y65992449D01*
X32276854Y66316353D01*
X32473630Y66685743D01*
X32594561Y67086425D01*
X32608243Y67163050D01*
X32476248Y67497000D01*
X30003000Y67497000D01*
X29997000Y67497000D01*
X27523752Y67497000D01*
X27391757Y67163050D01*
X17558651Y67163050D01*
X18232551Y67836950D01*
X27391757Y67836950D01*
X27523752Y67503000D01*
X29997000Y67503000D01*
X29997000Y69635000D01*
X30003000Y69635000D01*
X30003000Y67503000D01*
X32476248Y67503000D01*
X32608243Y67836950D01*
X32594561Y67913575D01*
X32473630Y68314257D01*
X32313566Y68614732D01*
X40833755Y68614732D01*
X40907827Y68333202D01*
X41035400Y68071533D01*
X41211570Y67839780D01*
X41429568Y67646849D01*
X41681016Y67500154D01*
X41956251Y67405333D01*
X42064732Y67383755D01*
X42297000Y67523753D01*
X42297000Y68847000D01*
X40973753Y68847000D01*
X40833755Y68614732D01*
X32313566Y68614732D01*
X32276854Y68683647D01*
X32011794Y69007551D01*
X31917367Y69085268D01*
X40833755Y69085268D01*
X40973753Y68853000D01*
X42297000Y68853000D01*
X42297000Y70176247D01*
X42303000Y70176247D01*
X42303000Y68853000D01*
X42323000Y68853000D01*
X42323000Y68847000D01*
X42303000Y68847000D01*
X42303000Y67523753D01*
X42535268Y67383755D01*
X42643749Y67405333D01*
X42918984Y67500154D01*
X43170432Y67646849D01*
X43377865Y67830430D01*
X43400498Y67755820D01*
X43459463Y67645506D01*
X43538815Y67548815D01*
X43635506Y67469463D01*
X43745820Y67410498D01*
X43865518Y67374188D01*
X43990000Y67361928D01*
X45690000Y67361928D01*
X45814482Y67374188D01*
X45934180Y67410498D01*
X46044494Y67469463D01*
X46141185Y67548815D01*
X46220537Y67645506D01*
X46279502Y67755820D01*
X46315812Y67875518D01*
X46328072Y68000000D01*
X46328072Y69700000D01*
X46315812Y69824482D01*
X46279502Y69944180D01*
X46220537Y70054494D01*
X46141185Y70151185D01*
X46044494Y70230537D01*
X45934180Y70289502D01*
X45814482Y70325812D01*
X45690000Y70338072D01*
X43990000Y70338072D01*
X43865518Y70325812D01*
X43745820Y70289502D01*
X43635506Y70230537D01*
X43538815Y70151185D01*
X43459463Y70054494D01*
X43400498Y69944180D01*
X43377865Y69869570D01*
X43170432Y70053151D01*
X42918984Y70199846D01*
X42643749Y70294667D01*
X42535268Y70316245D01*
X42303000Y70176247D01*
X42297000Y70176247D01*
X42064732Y70316245D01*
X41956251Y70294667D01*
X41681016Y70199846D01*
X41429568Y70053151D01*
X41211570Y69860220D01*
X41035400Y69628467D01*
X40907827Y69366798D01*
X40833755Y69085268D01*
X31917367Y69085268D01*
X31688637Y69273520D01*
X31319801Y69471334D01*
X30919460Y69593391D01*
X30503000Y69635000D01*
X30003000Y69635000D01*
X29997000Y69635000D01*
X29497000Y69635000D01*
X29080540Y69593391D01*
X28680199Y69471334D01*
X28311363Y69273520D01*
X27988206Y69007551D01*
X27723146Y68683647D01*
X27526370Y68314257D01*
X27405439Y67913575D01*
X27391757Y67836950D01*
X18232551Y67836950D01*
X21073502Y70677900D01*
X56051928Y70677900D01*
X56051928Y69704600D01*
X56051928Y69704600D01*
G37*
X56051928Y69704600D02*
X55330023Y69704600D01*
X55292700Y69708276D01*
X55255377Y69704600D01*
X55255367Y69704600D01*
X55143714Y69693603D01*
X55000453Y69650146D01*
X54868423Y69579574D01*
X54813746Y69534701D01*
X54752699Y69484601D01*
X54728901Y69455603D01*
X47263299Y61990000D01*
X39462964Y61990000D01*
X39455512Y62003942D01*
X39372575Y62105000D01*
X39455512Y62206058D01*
X39536423Y62357433D01*
X39586248Y62521684D01*
X39603072Y62692500D01*
X39603072Y63267500D01*
X39586248Y63438316D01*
X39536423Y63602567D01*
X39455512Y63753942D01*
X39346623Y63886623D01*
X39213942Y63995512D01*
X39062567Y64076423D01*
X38898316Y64126248D01*
X38727500Y64143072D01*
X38401729Y64143072D01*
X37808504Y64736297D01*
X37784701Y64765301D01*
X37668976Y64860274D01*
X37536947Y64930846D01*
X37393686Y64974303D01*
X37282033Y64985300D01*
X37282022Y64985300D01*
X37244700Y64988976D01*
X37207378Y64985300D01*
X25037333Y64985300D01*
X25000000Y64988977D01*
X24962667Y64985300D01*
X24851014Y64974303D01*
X24707753Y64930846D01*
X24575724Y64860274D01*
X24459999Y64765301D01*
X24365026Y64649576D01*
X24294454Y64517547D01*
X24250997Y64374286D01*
X24247450Y64338271D01*
X24143074Y64282481D01*
X23909340Y64090661D01*
X23717519Y63856927D01*
X23574983Y63590261D01*
X23487210Y63300913D01*
X23465000Y63075408D01*
X23465000Y61924593D01*
X23487210Y61699088D01*
X23574983Y61409740D01*
X23717519Y61143074D01*
X23909339Y60909339D01*
X24143073Y60717519D01*
X24409739Y60574983D01*
X24699087Y60487210D01*
X25000000Y60457573D01*
X25300912Y60487210D01*
X25590260Y60574983D01*
X25856926Y60717519D01*
X26090661Y60909339D01*
X26250000Y61103495D01*
X26409339Y60909339D01*
X26643073Y60717519D01*
X26747451Y60661728D01*
X26750998Y60625714D01*
X26760307Y60595026D01*
X26794454Y60482454D01*
X26865026Y60350424D01*
X26936201Y60263698D01*
X26960000Y60234699D01*
X26988998Y60210901D01*
X28163642Y59036256D01*
X27861750Y59035000D01*
X27703000Y58876250D01*
X27703000Y57503000D01*
X29076250Y57503000D01*
X29235000Y57661750D01*
X29238072Y58400000D01*
X29225812Y58524482D01*
X29189502Y58644180D01*
X29162231Y58695200D01*
X36725817Y58695200D01*
X36721495Y58692312D01*
X36507688Y58478505D01*
X36339701Y58227095D01*
X36223989Y57947743D01*
X36165000Y57651184D01*
X36165000Y57348816D01*
X36223989Y57052257D01*
X36339701Y56772905D01*
X36507688Y56521495D01*
X36721495Y56307688D01*
X36972905Y56139701D01*
X37252257Y56023989D01*
X37548816Y55965000D01*
X37851184Y55965000D01*
X37961482Y55986940D01*
X38063422Y55885000D01*
X25566579Y55885000D01*
X25464116Y55987463D01*
X25647743Y56023989D01*
X25927095Y56139701D01*
X26178505Y56307688D01*
X26216120Y56345303D01*
X26269463Y56245506D01*
X26348815Y56148815D01*
X26445506Y56069463D01*
X26555820Y56010498D01*
X26675518Y55974188D01*
X26800000Y55961928D01*
X27538250Y55965000D01*
X27697000Y56123750D01*
X27697000Y57497000D01*
X27703000Y57497000D01*
X27703000Y56123750D01*
X27861750Y55965000D01*
X28600000Y55961928D01*
X28724482Y55974188D01*
X28844180Y56010498D01*
X28954494Y56069463D01*
X29051185Y56148815D01*
X29130537Y56245506D01*
X29189502Y56355820D01*
X29225812Y56475518D01*
X29238072Y56600000D01*
X29235000Y57338250D01*
X29076250Y57497000D01*
X27703000Y57497000D01*
X27697000Y57497000D01*
X27677000Y57497000D01*
X27677000Y57503000D01*
X27697000Y57503000D01*
X27697000Y58876250D01*
X27538250Y59035000D01*
X26800000Y59038072D01*
X26675518Y59025812D01*
X26555820Y58989502D01*
X26445506Y58930537D01*
X26348815Y58851185D01*
X26269463Y58754494D01*
X26216120Y58654697D01*
X26178505Y58692312D01*
X25927095Y58860299D01*
X25647743Y58976011D01*
X25351184Y59035000D01*
X25048816Y59035000D01*
X24752257Y58976011D01*
X24472905Y58860299D01*
X24221495Y58692312D01*
X24007688Y58478505D01*
X23950000Y58392169D01*
X23892312Y58478505D01*
X23678505Y58692312D01*
X23427095Y58860299D01*
X23147743Y58976011D01*
X22851184Y59035000D01*
X22548816Y59035000D01*
X22252257Y58976011D01*
X21972905Y58860299D01*
X21721495Y58692312D01*
X21507688Y58478505D01*
X21339701Y58227095D01*
X21223989Y57947743D01*
X21165000Y57651184D01*
X21165000Y57348816D01*
X21223989Y57052257D01*
X21339701Y56772905D01*
X21507688Y56521495D01*
X21721495Y56307688D01*
X21972905Y56139701D01*
X22252257Y56023989D01*
X22548816Y55965000D01*
X22851184Y55965000D01*
X22961482Y55986940D01*
X23063422Y55885000D01*
X10566579Y55885000D01*
X10464115Y55987463D01*
X10647743Y56023989D01*
X10927095Y56139701D01*
X11178505Y56307688D01*
X11216120Y56345303D01*
X11269463Y56245506D01*
X11348815Y56148815D01*
X11445506Y56069463D01*
X11555820Y56010498D01*
X11675518Y55974188D01*
X11800000Y55961928D01*
X12538250Y55965000D01*
X12697000Y56123750D01*
X12697000Y57497000D01*
X12703000Y57497000D01*
X12703000Y56123750D01*
X12861750Y55965000D01*
X13600000Y55961928D01*
X13724482Y55974188D01*
X13844180Y56010498D01*
X13954494Y56069463D01*
X14051185Y56148815D01*
X14130537Y56245506D01*
X14189502Y56355820D01*
X14225812Y56475518D01*
X14238072Y56600000D01*
X14235000Y57338250D01*
X14076250Y57497000D01*
X12703000Y57497000D01*
X12697000Y57497000D01*
X12677000Y57497000D01*
X12677000Y57503000D01*
X12697000Y57503000D01*
X12697000Y58876250D01*
X12703000Y58876250D01*
X12703000Y57503000D01*
X14076250Y57503000D01*
X14235000Y57661750D01*
X14238072Y58400000D01*
X14225812Y58524482D01*
X14189502Y58644180D01*
X14130537Y58754494D01*
X14051185Y58851185D01*
X13954494Y58930537D01*
X13844180Y58989502D01*
X13724482Y59025812D01*
X13600000Y59038072D01*
X12861750Y59035000D01*
X12703000Y58876250D01*
X12697000Y58876250D01*
X12538250Y59035000D01*
X11800000Y59038072D01*
X11675518Y59025812D01*
X11555820Y58989502D01*
X11445506Y58930537D01*
X11348815Y58851185D01*
X11269463Y58754494D01*
X11216120Y58654697D01*
X11178505Y58692312D01*
X10927095Y58860299D01*
X10647743Y58976011D01*
X10351184Y59035000D01*
X10048816Y59035000D01*
X9791070Y58983731D01*
X9526804Y59247997D01*
X9503001Y59277001D01*
X9387276Y59371974D01*
X9255247Y59442546D01*
X9111986Y59486003D01*
X9000333Y59497000D01*
X9000322Y59497000D01*
X8963000Y59500676D01*
X8925678Y59497000D01*
X8375602Y59497000D01*
X9493303Y60614700D01*
X10002667Y60614700D01*
X10040000Y60611023D01*
X10188986Y60625697D01*
X10332247Y60669154D01*
X10464276Y60739726D01*
X10580001Y60834699D01*
X10674974Y60950424D01*
X10745546Y61082453D01*
X10789003Y61225714D01*
X10793942Y61275861D01*
X10841101Y61301068D01*
X11059608Y61480392D01*
X11238932Y61698899D01*
X11264139Y61746058D01*
X11314286Y61750997D01*
X11347789Y61761160D01*
X11381068Y61698899D01*
X11560392Y61480392D01*
X11778899Y61301068D01*
X12028192Y61167818D01*
X12298691Y61085764D01*
X12509508Y61065000D01*
X12650492Y61065000D01*
X12861309Y61085764D01*
X13131808Y61167818D01*
X13381101Y61301068D01*
X13599608Y61480392D01*
X13778932Y61698899D01*
X13850000Y61831858D01*
X13921068Y61698899D01*
X14100392Y61480392D01*
X14318899Y61301068D01*
X14568192Y61167818D01*
X14838691Y61085764D01*
X15049508Y61065000D01*
X15190492Y61065000D01*
X15401309Y61085764D01*
X15671808Y61167818D01*
X15921101Y61301068D01*
X16139608Y61480392D01*
X16318932Y61698899D01*
X16390000Y61831858D01*
X16461068Y61698899D01*
X16640392Y61480392D01*
X16858899Y61301068D01*
X17108192Y61167818D01*
X17378691Y61085764D01*
X17589508Y61065000D01*
X17730492Y61065000D01*
X17941309Y61085764D01*
X18211808Y61167818D01*
X18461101Y61301068D01*
X18679608Y61480392D01*
X18858932Y61698899D01*
X18992182Y61948192D01*
X19074236Y62218691D01*
X19101943Y62500000D01*
X19074236Y62781309D01*
X18992182Y63051808D01*
X18858932Y63301101D01*
X18679608Y63519608D01*
X18461101Y63698932D01*
X18211808Y63832182D01*
X17941309Y63914236D01*
X17730492Y63935000D01*
X17589508Y63935000D01*
X17378691Y63914236D01*
X17108192Y63832182D01*
X16858899Y63698932D01*
X16640392Y63519608D01*
X16461068Y63301101D01*
X16390000Y63168142D01*
X16318932Y63301101D01*
X16139608Y63519608D01*
X15921101Y63698932D01*
X15671808Y63832182D01*
X15401309Y63914236D01*
X15190492Y63935000D01*
X15049508Y63935000D01*
X14838691Y63914236D01*
X14568192Y63832182D01*
X14318899Y63698932D01*
X14100392Y63519608D01*
X13921068Y63301101D01*
X13850000Y63168142D01*
X13778932Y63301101D01*
X13741866Y63346265D01*
X17558651Y67163050D01*
X27391757Y67163050D01*
X27405439Y67086425D01*
X27526370Y66685743D01*
X27723146Y66316353D01*
X27988206Y65992449D01*
X28311363Y65726480D01*
X28680199Y65528666D01*
X29080540Y65406609D01*
X29497000Y65365000D01*
X29997000Y65365000D01*
X29997000Y67497000D01*
X30003000Y67497000D01*
X30003000Y65365000D01*
X30503000Y65365000D01*
X30919460Y65406609D01*
X31319801Y65528666D01*
X31688637Y65726480D01*
X32011794Y65992449D01*
X32276854Y66316353D01*
X32473630Y66685743D01*
X32594561Y67086425D01*
X32608243Y67163050D01*
X32476248Y67497000D01*
X30003000Y67497000D01*
X29997000Y67497000D01*
X27523752Y67497000D01*
X27391757Y67163050D01*
X17558651Y67163050D01*
X18232551Y67836950D01*
X27391757Y67836950D01*
X27523752Y67503000D01*
X29997000Y67503000D01*
X29997000Y69635000D01*
X30003000Y69635000D01*
X30003000Y67503000D01*
X32476248Y67503000D01*
X32608243Y67836950D01*
X32594561Y67913575D01*
X32473630Y68314257D01*
X32313566Y68614732D01*
X40833755Y68614732D01*
X40907827Y68333202D01*
X41035400Y68071533D01*
X41211570Y67839780D01*
X41429568Y67646849D01*
X41681016Y67500154D01*
X41956251Y67405333D01*
X42064732Y67383755D01*
X42297000Y67523753D01*
X42297000Y68847000D01*
X40973753Y68847000D01*
X40833755Y68614732D01*
X32313566Y68614732D01*
X32276854Y68683647D01*
X32011794Y69007551D01*
X31917367Y69085268D01*
X40833755Y69085268D01*
X40973753Y68853000D01*
X42297000Y68853000D01*
X42297000Y70176247D01*
X42303000Y70176247D01*
X42303000Y68853000D01*
X42323000Y68853000D01*
X42323000Y68847000D01*
X42303000Y68847000D01*
X42303000Y67523753D01*
X42535268Y67383755D01*
X42643749Y67405333D01*
X42918984Y67500154D01*
X43170432Y67646849D01*
X43377865Y67830430D01*
X43400498Y67755820D01*
X43459463Y67645506D01*
X43538815Y67548815D01*
X43635506Y67469463D01*
X43745820Y67410498D01*
X43865518Y67374188D01*
X43990000Y67361928D01*
X45690000Y67361928D01*
X45814482Y67374188D01*
X45934180Y67410498D01*
X46044494Y67469463D01*
X46141185Y67548815D01*
X46220537Y67645506D01*
X46279502Y67755820D01*
X46315812Y67875518D01*
X46328072Y68000000D01*
X46328072Y69700000D01*
X46315812Y69824482D01*
X46279502Y69944180D01*
X46220537Y70054494D01*
X46141185Y70151185D01*
X46044494Y70230537D01*
X45934180Y70289502D01*
X45814482Y70325812D01*
X45690000Y70338072D01*
X43990000Y70338072D01*
X43865518Y70325812D01*
X43745820Y70289502D01*
X43635506Y70230537D01*
X43538815Y70151185D01*
X43459463Y70054494D01*
X43400498Y69944180D01*
X43377865Y69869570D01*
X43170432Y70053151D01*
X42918984Y70199846D01*
X42643749Y70294667D01*
X42535268Y70316245D01*
X42303000Y70176247D01*
X42297000Y70176247D01*
X42064732Y70316245D01*
X41956251Y70294667D01*
X41681016Y70199846D01*
X41429568Y70053151D01*
X41211570Y69860220D01*
X41035400Y69628467D01*
X40907827Y69366798D01*
X40833755Y69085268D01*
X31917367Y69085268D01*
X31688637Y69273520D01*
X31319801Y69471334D01*
X30919460Y69593391D01*
X30503000Y69635000D01*
X30003000Y69635000D01*
X29997000Y69635000D01*
X29497000Y69635000D01*
X29080540Y69593391D01*
X28680199Y69471334D01*
X28311363Y69273520D01*
X27988206Y69007551D01*
X27723146Y68683647D01*
X27526370Y68314257D01*
X27405439Y67913575D01*
X27391757Y67836950D01*
X18232551Y67836950D01*
X21073502Y70677900D01*
X56051928Y70677900D01*
X56051928Y69704600D01*
G36*
X16461068Y69318899D02*
G01*
X16640392Y69100392D01*
X16858899Y68921068D01*
X17059723Y68813725D01*
X12631299Y64385300D01*
X12046523Y64385300D01*
X12009200Y64388976D01*
X11971877Y64385300D01*
X11971867Y64385300D01*
X11860214Y64374303D01*
X11716953Y64330846D01*
X11584924Y64260274D01*
X11469199Y64165301D01*
X11445401Y64136303D01*
X10932786Y63623688D01*
X10841101Y63698932D01*
X10591808Y63832182D01*
X10321309Y63914236D01*
X10110492Y63935000D01*
X9969508Y63935000D01*
X9758691Y63914236D01*
X9488192Y63832182D01*
X9238899Y63698932D01*
X9020392Y63519608D01*
X8927581Y63406518D01*
X8925812Y63424482D01*
X8889502Y63544180D01*
X8830537Y63654494D01*
X8751185Y63751185D01*
X8654494Y63830537D01*
X8544180Y63889502D01*
X8424482Y63925812D01*
X8300000Y63938072D01*
X6700000Y63938072D01*
X6575518Y63925812D01*
X6455820Y63889502D01*
X6345506Y63830537D01*
X6248815Y63751185D01*
X6169463Y63654494D01*
X6110498Y63544180D01*
X6074188Y63424482D01*
X6061928Y63300000D01*
X6061928Y61700000D01*
X6074188Y61575518D01*
X6110498Y61455820D01*
X6169463Y61345506D01*
X6248815Y61248815D01*
X6276551Y61226053D01*
X3579400Y58528901D01*
X3579400Y63999299D01*
X8011003Y68430901D01*
X8040001Y68454699D01*
X8066332Y68486783D01*
X8134974Y68570423D01*
X8205546Y68702453D01*
X8206550Y68705764D01*
X8249003Y68845714D01*
X8253942Y68895861D01*
X8301101Y68921068D01*
X8519608Y69100392D01*
X8698932Y69318899D01*
X8770000Y69451858D01*
X8841068Y69318899D01*
X9020392Y69100392D01*
X9238899Y68921068D01*
X9488192Y68787818D01*
X9758691Y68705764D01*
X9969508Y68685000D01*
X10110492Y68685000D01*
X10321309Y68705764D01*
X10591808Y68787818D01*
X10841101Y68921068D01*
X11059608Y69100392D01*
X11238932Y69318899D01*
X11310000Y69451858D01*
X11381068Y69318899D01*
X11560392Y69100392D01*
X11778899Y68921068D01*
X12028192Y68787818D01*
X12298691Y68705764D01*
X12509508Y68685000D01*
X12650492Y68685000D01*
X12861309Y68705764D01*
X13131808Y68787818D01*
X13381101Y68921068D01*
X13599608Y69100392D01*
X13778932Y69318899D01*
X13850000Y69451858D01*
X13921068Y69318899D01*
X14100392Y69100392D01*
X14318899Y68921068D01*
X14568192Y68787818D01*
X14838691Y68705764D01*
X15049508Y68685000D01*
X15190492Y68685000D01*
X15401309Y68705764D01*
X15671808Y68787818D01*
X15921101Y68921068D01*
X16139608Y69100392D01*
X16318932Y69318899D01*
X16390000Y69451858D01*
X16461068Y69318899D01*
X16461068Y69318899D01*
G37*
X16461068Y69318899D02*
X16640392Y69100392D01*
X16858899Y68921068D01*
X17059723Y68813725D01*
X12631299Y64385300D01*
X12046523Y64385300D01*
X12009200Y64388976D01*
X11971877Y64385300D01*
X11971867Y64385300D01*
X11860214Y64374303D01*
X11716953Y64330846D01*
X11584924Y64260274D01*
X11469199Y64165301D01*
X11445401Y64136303D01*
X10932786Y63623688D01*
X10841101Y63698932D01*
X10591808Y63832182D01*
X10321309Y63914236D01*
X10110492Y63935000D01*
X9969508Y63935000D01*
X9758691Y63914236D01*
X9488192Y63832182D01*
X9238899Y63698932D01*
X9020392Y63519608D01*
X8927581Y63406518D01*
X8925812Y63424482D01*
X8889502Y63544180D01*
X8830537Y63654494D01*
X8751185Y63751185D01*
X8654494Y63830537D01*
X8544180Y63889502D01*
X8424482Y63925812D01*
X8300000Y63938072D01*
X6700000Y63938072D01*
X6575518Y63925812D01*
X6455820Y63889502D01*
X6345506Y63830537D01*
X6248815Y63751185D01*
X6169463Y63654494D01*
X6110498Y63544180D01*
X6074188Y63424482D01*
X6061928Y63300000D01*
X6061928Y61700000D01*
X6074188Y61575518D01*
X6110498Y61455820D01*
X6169463Y61345506D01*
X6248815Y61248815D01*
X6276551Y61226053D01*
X3579400Y58528901D01*
X3579400Y63999299D01*
X8011003Y68430901D01*
X8040001Y68454699D01*
X8066332Y68486783D01*
X8134974Y68570423D01*
X8205546Y68702453D01*
X8206550Y68705764D01*
X8249003Y68845714D01*
X8253942Y68895861D01*
X8301101Y68921068D01*
X8519608Y69100392D01*
X8698932Y69318899D01*
X8770000Y69451858D01*
X8841068Y69318899D01*
X9020392Y69100392D01*
X9238899Y68921068D01*
X9488192Y68787818D01*
X9758691Y68705764D01*
X9969508Y68685000D01*
X10110492Y68685000D01*
X10321309Y68705764D01*
X10591808Y68787818D01*
X10841101Y68921068D01*
X11059608Y69100392D01*
X11238932Y69318899D01*
X11310000Y69451858D01*
X11381068Y69318899D01*
X11560392Y69100392D01*
X11778899Y68921068D01*
X12028192Y68787818D01*
X12298691Y68705764D01*
X12509508Y68685000D01*
X12650492Y68685000D01*
X12861309Y68705764D01*
X13131808Y68787818D01*
X13381101Y68921068D01*
X13599608Y69100392D01*
X13778932Y69318899D01*
X13850000Y69451858D01*
X13921068Y69318899D01*
X14100392Y69100392D01*
X14318899Y68921068D01*
X14568192Y68787818D01*
X14838691Y68705764D01*
X15049508Y68685000D01*
X15190492Y68685000D01*
X15401309Y68705764D01*
X15671808Y68787818D01*
X15921101Y68921068D01*
X16139608Y69100392D01*
X16318932Y69318899D01*
X16390000Y69451858D01*
X16461068Y69318899D01*
G36*
X85089826Y67798072D02*
G01*
X84630000Y67798072D01*
X84505518Y67785812D01*
X84385820Y67749502D01*
X84275506Y67690537D01*
X84178815Y67611185D01*
X84099463Y67514494D01*
X84040498Y67404180D01*
X84004188Y67284482D01*
X83991928Y67160000D01*
X83991928Y65460000D01*
X84004188Y65335518D01*
X84040498Y65215820D01*
X84099463Y65105506D01*
X84178815Y65008815D01*
X84275506Y64929463D01*
X84385820Y64870498D01*
X84505518Y64834188D01*
X84630000Y64821928D01*
X84720000Y64821928D01*
X84720001Y63720901D01*
X84678899Y63698932D01*
X84460392Y63519608D01*
X84281068Y63301101D01*
X84210000Y63168142D01*
X84138932Y63301101D01*
X83959608Y63519608D01*
X83741101Y63698932D01*
X83491808Y63832182D01*
X83221309Y63914236D01*
X83010492Y63935000D01*
X82869508Y63935000D01*
X82658691Y63914236D01*
X82388192Y63832182D01*
X82138899Y63698932D01*
X81920392Y63519608D01*
X81741068Y63301101D01*
X81670000Y63168142D01*
X81598932Y63301101D01*
X81419608Y63519608D01*
X81201101Y63698932D01*
X80951808Y63832182D01*
X80681309Y63914236D01*
X80470492Y63935000D01*
X80329508Y63935000D01*
X80118691Y63914236D01*
X79848192Y63832182D01*
X79598899Y63698932D01*
X79380392Y63519608D01*
X79201068Y63301101D01*
X79130000Y63168142D01*
X79058932Y63301101D01*
X78879608Y63519608D01*
X78661101Y63698932D01*
X78411808Y63832182D01*
X78141309Y63914236D01*
X77930492Y63935000D01*
X77789508Y63935000D01*
X77578691Y63914236D01*
X77308192Y63832182D01*
X77058899Y63698932D01*
X76840392Y63519608D01*
X76661068Y63301101D01*
X76590000Y63168142D01*
X76518932Y63301101D01*
X76339608Y63519608D01*
X76121101Y63698932D01*
X75871808Y63832182D01*
X75601309Y63914236D01*
X75390492Y63935000D01*
X75249508Y63935000D01*
X75038691Y63914236D01*
X74768192Y63832182D01*
X74518899Y63698932D01*
X74300392Y63519608D01*
X74121068Y63301101D01*
X74050000Y63168142D01*
X73978932Y63301101D01*
X73799608Y63519608D01*
X73581101Y63698932D01*
X73331808Y63832182D01*
X73061309Y63914236D01*
X72850492Y63935000D01*
X72709508Y63935000D01*
X72498691Y63914236D01*
X72395000Y63882782D01*
X72395000Y67118981D01*
X72533187Y67192843D01*
X72744080Y67365919D01*
X72760000Y67385317D01*
X72775919Y67365920D01*
X72986812Y67192843D01*
X73227419Y67064236D01*
X73488493Y66985040D01*
X73760000Y66958299D01*
X74031506Y66985040D01*
X74292580Y67064236D01*
X74525885Y67188940D01*
X74558815Y67148815D01*
X74655506Y67069463D01*
X74765820Y67010498D01*
X74885518Y66974188D01*
X75010000Y66961928D01*
X76510000Y66961928D01*
X76622496Y66973008D01*
X76627234Y66967234D01*
X76891422Y66750421D01*
X77192832Y66589314D01*
X77519881Y66490105D01*
X77860000Y66456606D01*
X78200118Y66490105D01*
X78527167Y66589314D01*
X78828577Y66750421D01*
X79092766Y66967234D01*
X79309579Y67231422D01*
X79470686Y67532832D01*
X79569895Y67859881D01*
X79595000Y68114775D01*
X79595000Y69585225D01*
X79569895Y69840119D01*
X79470686Y70167168D01*
X79462598Y70182300D01*
X82705599Y70182300D01*
X85089826Y67798072D01*
X85089826Y67798072D01*
G37*
X85089826Y67798072D02*
X84630000Y67798072D01*
X84505518Y67785812D01*
X84385820Y67749502D01*
X84275506Y67690537D01*
X84178815Y67611185D01*
X84099463Y67514494D01*
X84040498Y67404180D01*
X84004188Y67284482D01*
X83991928Y67160000D01*
X83991928Y65460000D01*
X84004188Y65335518D01*
X84040498Y65215820D01*
X84099463Y65105506D01*
X84178815Y65008815D01*
X84275506Y64929463D01*
X84385820Y64870498D01*
X84505518Y64834188D01*
X84630000Y64821928D01*
X84720000Y64821928D01*
X84720001Y63720901D01*
X84678899Y63698932D01*
X84460392Y63519608D01*
X84281068Y63301101D01*
X84210000Y63168142D01*
X84138932Y63301101D01*
X83959608Y63519608D01*
X83741101Y63698932D01*
X83491808Y63832182D01*
X83221309Y63914236D01*
X83010492Y63935000D01*
X82869508Y63935000D01*
X82658691Y63914236D01*
X82388192Y63832182D01*
X82138899Y63698932D01*
X81920392Y63519608D01*
X81741068Y63301101D01*
X81670000Y63168142D01*
X81598932Y63301101D01*
X81419608Y63519608D01*
X81201101Y63698932D01*
X80951808Y63832182D01*
X80681309Y63914236D01*
X80470492Y63935000D01*
X80329508Y63935000D01*
X80118691Y63914236D01*
X79848192Y63832182D01*
X79598899Y63698932D01*
X79380392Y63519608D01*
X79201068Y63301101D01*
X79130000Y63168142D01*
X79058932Y63301101D01*
X78879608Y63519608D01*
X78661101Y63698932D01*
X78411808Y63832182D01*
X78141309Y63914236D01*
X77930492Y63935000D01*
X77789508Y63935000D01*
X77578691Y63914236D01*
X77308192Y63832182D01*
X77058899Y63698932D01*
X76840392Y63519608D01*
X76661068Y63301101D01*
X76590000Y63168142D01*
X76518932Y63301101D01*
X76339608Y63519608D01*
X76121101Y63698932D01*
X75871808Y63832182D01*
X75601309Y63914236D01*
X75390492Y63935000D01*
X75249508Y63935000D01*
X75038691Y63914236D01*
X74768192Y63832182D01*
X74518899Y63698932D01*
X74300392Y63519608D01*
X74121068Y63301101D01*
X74050000Y63168142D01*
X73978932Y63301101D01*
X73799608Y63519608D01*
X73581101Y63698932D01*
X73331808Y63832182D01*
X73061309Y63914236D01*
X72850492Y63935000D01*
X72709508Y63935000D01*
X72498691Y63914236D01*
X72395000Y63882782D01*
X72395000Y67118981D01*
X72533187Y67192843D01*
X72744080Y67365919D01*
X72760000Y67385317D01*
X72775919Y67365920D01*
X72986812Y67192843D01*
X73227419Y67064236D01*
X73488493Y66985040D01*
X73760000Y66958299D01*
X74031506Y66985040D01*
X74292580Y67064236D01*
X74525885Y67188940D01*
X74558815Y67148815D01*
X74655506Y67069463D01*
X74765820Y67010498D01*
X74885518Y66974188D01*
X75010000Y66961928D01*
X76510000Y66961928D01*
X76622496Y66973008D01*
X76627234Y66967234D01*
X76891422Y66750421D01*
X77192832Y66589314D01*
X77519881Y66490105D01*
X77860000Y66456606D01*
X78200118Y66490105D01*
X78527167Y66589314D01*
X78828577Y66750421D01*
X79092766Y66967234D01*
X79309579Y67231422D01*
X79470686Y67532832D01*
X79569895Y67859881D01*
X79595000Y68114775D01*
X79595000Y69585225D01*
X79569895Y69840119D01*
X79470686Y70167168D01*
X79462598Y70182300D01*
X82705599Y70182300D01*
X85089826Y67798072D01*
M02*
