G04 #@! TF.GenerationSoftware,KiCad,Pcbnew,(5.1.4-0)*
G04 #@! TF.CreationDate,2020-07-05T15:44:46+08:00*
G04 #@! TF.ProjectId,pocketSynth,706f636b-6574-4537-996e-74682e6b6963,rev?*
G04 #@! TF.SameCoordinates,PX510ff40PY9896800*
G04 #@! TF.FileFunction,Legend,Top*
G04 #@! TF.FilePolarity,Positive*
%FSLAX46Y46*%
G04 Gerber Fmt 4.6, Leading zero omitted, Abs format (unit mm)*
G04 Created by KiCad (PCBNEW (5.1.4-0)) date 2020-07-05 15:44:46*
%MOMM*%
%LPD*%
G04 APERTURE LIST*
%ADD10C,0.150000*%
%ADD11C,0.120000*%
G04 APERTURE END LIST*
D10*
X89333333Y2452381D02*
X89380952Y2500000D01*
X89476190Y2547620D01*
X89714285Y2547620D01*
X89809523Y2500000D01*
X89857142Y2452381D01*
X89904761Y2357143D01*
X89904761Y2261905D01*
X89857142Y2119048D01*
X89285714Y1547620D01*
X89904761Y1547620D01*
X90523809Y2547620D02*
X90619047Y2547620D01*
X90714285Y2500000D01*
X90761904Y2452381D01*
X90809523Y2357143D01*
X90857142Y2166667D01*
X90857142Y1928572D01*
X90809523Y1738096D01*
X90761904Y1642858D01*
X90714285Y1595239D01*
X90619047Y1547620D01*
X90523809Y1547620D01*
X90428571Y1595239D01*
X90380952Y1642858D01*
X90333333Y1738096D01*
X90285714Y1928572D01*
X90285714Y2166667D01*
X90333333Y2357143D01*
X90380952Y2452381D01*
X90428571Y2500000D01*
X90523809Y2547620D01*
X91238095Y2452381D02*
X91285714Y2500000D01*
X91380952Y2547620D01*
X91619047Y2547620D01*
X91714285Y2500000D01*
X91761904Y2452381D01*
X91809523Y2357143D01*
X91809523Y2261905D01*
X91761904Y2119048D01*
X91190476Y1547620D01*
X91809523Y1547620D01*
X92428571Y2547620D02*
X92523809Y2547620D01*
X92619047Y2500000D01*
X92666666Y2452381D01*
X92714285Y2357143D01*
X92761904Y2166667D01*
X92761904Y1928572D01*
X92714285Y1738096D01*
X92666666Y1642858D01*
X92619047Y1595239D01*
X92523809Y1547620D01*
X92428571Y1547620D01*
X92333333Y1595239D01*
X92285714Y1642858D01*
X92238095Y1738096D01*
X92190476Y1928572D01*
X92190476Y2166667D01*
X92238095Y2357143D01*
X92285714Y2452381D01*
X92333333Y2500000D01*
X92428571Y2547620D01*
X93904761Y2595239D02*
X93047619Y1309524D01*
X94428571Y2547620D02*
X94523809Y2547620D01*
X94619047Y2500000D01*
X94666666Y2452381D01*
X94714285Y2357143D01*
X94761904Y2166667D01*
X94761904Y1928572D01*
X94714285Y1738096D01*
X94666666Y1642858D01*
X94619047Y1595239D01*
X94523809Y1547620D01*
X94428571Y1547620D01*
X94333333Y1595239D01*
X94285714Y1642858D01*
X94238095Y1738096D01*
X94190476Y1928572D01*
X94190476Y2166667D01*
X94238095Y2357143D01*
X94285714Y2452381D01*
X94333333Y2500000D01*
X94428571Y2547620D01*
X95619047Y2547620D02*
X95428571Y2547620D01*
X95333333Y2500000D01*
X95285714Y2452381D01*
X95190476Y2309524D01*
X95142857Y2119048D01*
X95142857Y1738096D01*
X95190476Y1642858D01*
X95238095Y1595239D01*
X95333333Y1547620D01*
X95523809Y1547620D01*
X95619047Y1595239D01*
X95666666Y1642858D01*
X95714285Y1738096D01*
X95714285Y1976191D01*
X95666666Y2071429D01*
X95619047Y2119048D01*
X95523809Y2166667D01*
X95333333Y2166667D01*
X95238095Y2119048D01*
X95190476Y2071429D01*
X95142857Y1976191D01*
X96857142Y2595239D02*
X96000000Y1309524D01*
X97142857Y2452381D02*
X97190476Y2500000D01*
X97285714Y2547620D01*
X97523809Y2547620D01*
X97619047Y2500000D01*
X97666666Y2452381D01*
X97714285Y2357143D01*
X97714285Y2261905D01*
X97666666Y2119048D01*
X97095238Y1547620D01*
X97714285Y1547620D01*
X98047619Y2547620D02*
X98666666Y2547620D01*
X98333333Y2166667D01*
X98476190Y2166667D01*
X98571428Y2119048D01*
X98619047Y2071429D01*
X98666666Y1976191D01*
X98666666Y1738096D01*
X98619047Y1642858D01*
X98571428Y1595239D01*
X98476190Y1547620D01*
X98190476Y1547620D01*
X98095238Y1595239D01*
X98047619Y1642858D01*
X1738095Y1547620D02*
X1738095Y2547620D01*
X2119047Y2547620D01*
X2214285Y2500000D01*
X2261904Y2452381D01*
X2309523Y2357143D01*
X2309523Y2214286D01*
X2261904Y2119048D01*
X2214285Y2071429D01*
X2119047Y2023810D01*
X1738095Y2023810D01*
X2880952Y1547620D02*
X2785714Y1595239D01*
X2738095Y1642858D01*
X2690476Y1738096D01*
X2690476Y2023810D01*
X2738095Y2119048D01*
X2785714Y2166667D01*
X2880952Y2214286D01*
X3023809Y2214286D01*
X3119047Y2166667D01*
X3166666Y2119048D01*
X3214285Y2023810D01*
X3214285Y1738096D01*
X3166666Y1642858D01*
X3119047Y1595239D01*
X3023809Y1547620D01*
X2880952Y1547620D01*
X4071428Y1595239D02*
X3976190Y1547620D01*
X3785714Y1547620D01*
X3690476Y1595239D01*
X3642857Y1642858D01*
X3595238Y1738096D01*
X3595238Y2023810D01*
X3642857Y2119048D01*
X3690476Y2166667D01*
X3785714Y2214286D01*
X3976190Y2214286D01*
X4071428Y2166667D01*
X4500000Y1547620D02*
X4500000Y2547620D01*
X4595238Y1928572D02*
X4880952Y1547620D01*
X4880952Y2214286D02*
X4500000Y1833334D01*
X5690476Y1595239D02*
X5595238Y1547620D01*
X5404761Y1547620D01*
X5309523Y1595239D01*
X5261904Y1690477D01*
X5261904Y2071429D01*
X5309523Y2166667D01*
X5404761Y2214286D01*
X5595238Y2214286D01*
X5690476Y2166667D01*
X5738095Y2071429D01*
X5738095Y1976191D01*
X5261904Y1880953D01*
X6023809Y2214286D02*
X6404761Y2214286D01*
X6166666Y2547620D02*
X6166666Y1690477D01*
X6214285Y1595239D01*
X6309523Y1547620D01*
X6404761Y1547620D01*
X6690476Y1595239D02*
X6833333Y1547620D01*
X7071428Y1547620D01*
X7166666Y1595239D01*
X7214285Y1642858D01*
X7261904Y1738096D01*
X7261904Y1833334D01*
X7214285Y1928572D01*
X7166666Y1976191D01*
X7071428Y2023810D01*
X6880952Y2071429D01*
X6785714Y2119048D01*
X6738095Y2166667D01*
X6690476Y2261905D01*
X6690476Y2357143D01*
X6738095Y2452381D01*
X6785714Y2500000D01*
X6880952Y2547620D01*
X7119047Y2547620D01*
X7261904Y2500000D01*
X7595238Y2214286D02*
X7833333Y1547620D01*
X8071428Y2214286D02*
X7833333Y1547620D01*
X7738095Y1309524D01*
X7690476Y1261905D01*
X7595238Y1214286D01*
X8452380Y2214286D02*
X8452380Y1547620D01*
X8452380Y2119048D02*
X8500000Y2166667D01*
X8595238Y2214286D01*
X8738095Y2214286D01*
X8833333Y2166667D01*
X8880952Y2071429D01*
X8880952Y1547620D01*
X9214285Y2214286D02*
X9595238Y2214286D01*
X9357142Y2547620D02*
X9357142Y1690477D01*
X9404761Y1595239D01*
X9500000Y1547620D01*
X9595238Y1547620D01*
X9928571Y1547620D02*
X9928571Y2547620D01*
X10357142Y1547620D02*
X10357142Y2071429D01*
X10309523Y2166667D01*
X10214285Y2214286D01*
X10071428Y2214286D01*
X9976190Y2166667D01*
X9928571Y2119048D01*
X11500000Y2214286D02*
X11738095Y1547620D01*
X11976190Y2214286D01*
X12547619Y2547620D02*
X12642857Y2547620D01*
X12738095Y2500000D01*
X12785714Y2452381D01*
X12833333Y2357143D01*
X12880952Y2166667D01*
X12880952Y1928572D01*
X12833333Y1738096D01*
X12785714Y1642858D01*
X12738095Y1595239D01*
X12642857Y1547620D01*
X12547619Y1547620D01*
X12452380Y1595239D01*
X12404761Y1642858D01*
X12357142Y1738096D01*
X12309523Y1928572D01*
X12309523Y2166667D01*
X12357142Y2357143D01*
X12404761Y2452381D01*
X12452380Y2500000D01*
X12547619Y2547620D01*
X13309523Y1642858D02*
X13357142Y1595239D01*
X13309523Y1547620D01*
X13261904Y1595239D01*
X13309523Y1642858D01*
X13309523Y1547620D01*
X14309523Y1547620D02*
X13738095Y1547620D01*
X14023809Y1547620D02*
X14023809Y2547620D01*
X13928571Y2404762D01*
X13833333Y2309524D01*
X13738095Y2261905D01*
D11*
X94670000Y29510000D02*
X97330000Y29510000D01*
X94670000Y39730000D02*
X94670000Y29510000D01*
X97330000Y39730000D02*
X97330000Y29510000D01*
X94670000Y39730000D02*
X97330000Y39730000D01*
X94670000Y41000000D02*
X94670000Y42330000D01*
X94670000Y42330000D02*
X96000000Y42330000D01*
X2670000Y42330000D02*
X4000000Y42330000D01*
X2670000Y41000000D02*
X2670000Y42330000D01*
X2670000Y39730000D02*
X5330000Y39730000D01*
X5330000Y39730000D02*
X5330000Y29510000D01*
X2670000Y39730000D02*
X2670000Y29510000D01*
X2670000Y29510000D02*
X5330000Y29510000D01*
X46170000Y70180000D02*
X46170000Y68850000D01*
X44840000Y70180000D02*
X46170000Y70180000D01*
X43570000Y70180000D02*
X43570000Y67520000D01*
X43570000Y67520000D02*
X40970000Y67520000D01*
X43570000Y70180000D02*
X40970000Y70180000D01*
X40970000Y70180000D02*
X40970000Y67520000D01*
X61290000Y66250000D02*
X63950000Y66250000D01*
X61290000Y68850000D02*
X61290000Y66250000D01*
X63950000Y68850000D02*
X63950000Y66250000D01*
X61290000Y68850000D02*
X63950000Y68850000D01*
X61290000Y70120000D02*
X61290000Y71450000D01*
X61290000Y71450000D02*
X62620000Y71450000D01*
X56210000Y71450000D02*
X57540000Y71450000D01*
X56210000Y70120000D02*
X56210000Y71450000D01*
X56210000Y68850000D02*
X58870000Y68850000D01*
X58870000Y68850000D02*
X58870000Y66250000D01*
X56210000Y68850000D02*
X56210000Y66250000D01*
X56210000Y66250000D02*
X58870000Y66250000D01*
X76650000Y58750000D02*
X73990000Y58750000D01*
X76650000Y53610000D02*
X76650000Y58750000D01*
X73990000Y53610000D02*
X73990000Y58750000D01*
X76650000Y53610000D02*
X73990000Y53610000D01*
X76650000Y52340000D02*
X76650000Y51010000D01*
X76650000Y51010000D02*
X75320000Y51010000D01*
X81730000Y51010000D02*
X80400000Y51010000D01*
X81730000Y52340000D02*
X81730000Y51010000D01*
X81730000Y53610000D02*
X79070000Y53610000D01*
X79070000Y53610000D02*
X79070000Y58750000D01*
X81730000Y53610000D02*
X81730000Y58750000D01*
X81730000Y58750000D02*
X79070000Y58750000D01*
X94430000Y57360000D02*
X94430000Y60020000D01*
X86750000Y57360000D02*
X94430000Y57360000D01*
X86750000Y60020000D02*
X94430000Y60020000D01*
X86750000Y57360000D02*
X86750000Y60020000D01*
X85480000Y57360000D02*
X84150000Y57360000D01*
X84150000Y57360000D02*
X84150000Y58690000D01*
X84150000Y64980000D02*
X84150000Y66310000D01*
X85480000Y64980000D02*
X84150000Y64980000D01*
X86750000Y64980000D02*
X86750000Y67640000D01*
X86750000Y67640000D02*
X94430000Y67640000D01*
X86750000Y64980000D02*
X94430000Y64980000D01*
X94430000Y64980000D02*
X94430000Y67640000D01*
X53670000Y51010000D02*
X56330000Y51010000D01*
X53670000Y53610000D02*
X53670000Y51010000D01*
X56330000Y53610000D02*
X56330000Y51010000D01*
X53670000Y53610000D02*
X56330000Y53610000D01*
X53670000Y54880000D02*
X53670000Y56210000D01*
X53670000Y56210000D02*
X55000000Y56210000D01*
X30000000Y71000000D02*
X36000000Y71000000D01*
X36000000Y71000000D02*
X36000000Y60000000D01*
X36000000Y60000000D02*
X24000000Y60000000D01*
X24000000Y60000000D02*
X24000000Y71000000D01*
X24000000Y71000000D02*
X30000000Y71000000D01*
X33000000Y71000000D02*
X33000000Y74000000D01*
X33000000Y74000000D02*
X27000000Y74000000D01*
X27000000Y74000000D02*
X27000000Y71000000D01*
X87399000Y53960000D02*
X86141000Y53960000D01*
X87399000Y55800000D02*
X86141000Y55800000D01*
X13300000Y15850000D02*
X15850000Y15850000D01*
X13300000Y14150000D02*
X15850000Y14150000D01*
X13300000Y15850000D02*
X13300000Y14150000D01*
X24300000Y15850000D02*
X24300000Y14150000D01*
X24300000Y14150000D02*
X26850000Y14150000D01*
X24300000Y15850000D02*
X26850000Y15850000D01*
X35300000Y15850000D02*
X37850000Y15850000D01*
X35300000Y14150000D02*
X37850000Y14150000D01*
X35300000Y15850000D02*
X35300000Y14150000D01*
X46300000Y15850000D02*
X46300000Y14150000D01*
X46300000Y14150000D02*
X48850000Y14150000D01*
X46300000Y15850000D02*
X48850000Y15850000D01*
X57300000Y15850000D02*
X59850000Y15850000D01*
X57300000Y14150000D02*
X59850000Y14150000D01*
X57300000Y15850000D02*
X57300000Y14150000D01*
X68300000Y15850000D02*
X68300000Y14150000D01*
X68300000Y14150000D02*
X70850000Y14150000D01*
X68300000Y15850000D02*
X70850000Y15850000D01*
X79250000Y15850000D02*
X81800000Y15850000D01*
X79250000Y14150000D02*
X81800000Y14150000D01*
X79250000Y15850000D02*
X79250000Y14150000D01*
X90300000Y15850000D02*
X90300000Y14150000D01*
X90300000Y14150000D02*
X92850000Y14150000D01*
X90300000Y15850000D02*
X92850000Y15850000D01*
X90550000Y44300000D02*
X90550000Y42600000D01*
X90550000Y42600000D02*
X93100000Y42600000D01*
X90550000Y44300000D02*
X93100000Y44300000D01*
X81660000Y44300000D02*
X81660000Y42600000D01*
X81660000Y42600000D02*
X84210000Y42600000D01*
X81660000Y44300000D02*
X84210000Y44300000D01*
X70010000Y44300000D02*
X72560000Y44300000D01*
X70010000Y42600000D02*
X72560000Y42600000D01*
X70010000Y44300000D02*
X70010000Y42600000D01*
X58580000Y44300000D02*
X58580000Y42600000D01*
X58580000Y42600000D02*
X61130000Y42600000D01*
X58580000Y44300000D02*
X61130000Y44300000D01*
X48640000Y44300000D02*
X51190000Y44300000D01*
X48640000Y42600000D02*
X51190000Y42600000D01*
X48640000Y44300000D02*
X48640000Y42600000D01*
X5080000Y61360000D02*
X5080000Y71260000D01*
X20080000Y61360000D02*
X20080000Y71260000D01*
X5080000Y61360000D02*
X20080000Y61360000D01*
X5080000Y71260000D02*
X20080000Y71260000D01*
X4840000Y61120000D02*
X4840000Y62504000D01*
X4840000Y61120000D02*
X6223000Y61120000D01*
X6865000Y64280000D02*
X8135000Y64280000D01*
X8135000Y64280000D02*
X8135000Y68340000D01*
X8135000Y68340000D02*
X6865000Y68340000D01*
X6865000Y68340000D02*
X6865000Y64280000D01*
X6985000Y64280000D02*
X6985000Y65633333D01*
X7105000Y64280000D02*
X7105000Y65633333D01*
X7225000Y64280000D02*
X7225000Y65633333D01*
X7345000Y64280000D02*
X7345000Y65633333D01*
X7465000Y64280000D02*
X7465000Y65633333D01*
X7585000Y64280000D02*
X7585000Y65633333D01*
X7705000Y64280000D02*
X7705000Y65633333D01*
X7825000Y64280000D02*
X7825000Y65633333D01*
X7945000Y64280000D02*
X7945000Y65633333D01*
X8065000Y64280000D02*
X8065000Y65633333D01*
X6865000Y65633333D02*
X8135000Y65633333D01*
X9405000Y64280000D02*
X10675000Y64280000D01*
X10675000Y64280000D02*
X10675000Y68340000D01*
X10675000Y68340000D02*
X9405000Y68340000D01*
X9405000Y68340000D02*
X9405000Y64280000D01*
X9525000Y64280000D02*
X9525000Y65633333D01*
X9645000Y64280000D02*
X9645000Y65633333D01*
X9765000Y64280000D02*
X9765000Y65633333D01*
X9885000Y64280000D02*
X9885000Y65633333D01*
X10005000Y64280000D02*
X10005000Y65633333D01*
X10125000Y64280000D02*
X10125000Y65633333D01*
X10245000Y64280000D02*
X10245000Y65633333D01*
X10365000Y64280000D02*
X10365000Y65633333D01*
X10485000Y64280000D02*
X10485000Y65633333D01*
X10605000Y64280000D02*
X10605000Y65633333D01*
X9405000Y65633333D02*
X10675000Y65633333D01*
X11945000Y64280000D02*
X13215000Y64280000D01*
X13215000Y64280000D02*
X13215000Y68340000D01*
X13215000Y68340000D02*
X11945000Y68340000D01*
X11945000Y68340000D02*
X11945000Y64280000D01*
X12065000Y64280000D02*
X12065000Y65633333D01*
X12185000Y64280000D02*
X12185000Y65633333D01*
X12305000Y64280000D02*
X12305000Y65633333D01*
X12425000Y64280000D02*
X12425000Y65633333D01*
X12545000Y64280000D02*
X12545000Y65633333D01*
X12665000Y64280000D02*
X12665000Y65633333D01*
X12785000Y64280000D02*
X12785000Y65633333D01*
X12905000Y64280000D02*
X12905000Y65633333D01*
X13025000Y64280000D02*
X13025000Y65633333D01*
X13145000Y64280000D02*
X13145000Y65633333D01*
X11945000Y65633333D02*
X13215000Y65633333D01*
X14485000Y64280000D02*
X15755000Y64280000D01*
X15755000Y64280000D02*
X15755000Y68340000D01*
X15755000Y68340000D02*
X14485000Y68340000D01*
X14485000Y68340000D02*
X14485000Y64280000D01*
X14605000Y64280000D02*
X14605000Y65633333D01*
X14725000Y64280000D02*
X14725000Y65633333D01*
X14845000Y64280000D02*
X14845000Y65633333D01*
X14965000Y64280000D02*
X14965000Y65633333D01*
X15085000Y64280000D02*
X15085000Y65633333D01*
X15205000Y64280000D02*
X15205000Y65633333D01*
X15325000Y64280000D02*
X15325000Y65633333D01*
X15445000Y64280000D02*
X15445000Y65633333D01*
X15565000Y64280000D02*
X15565000Y65633333D01*
X15685000Y64280000D02*
X15685000Y65633333D01*
X14485000Y65633333D02*
X15755000Y65633333D01*
X17025000Y64280000D02*
X18295000Y64280000D01*
X18295000Y64280000D02*
X18295000Y68340000D01*
X18295000Y68340000D02*
X17025000Y68340000D01*
X17025000Y68340000D02*
X17025000Y64280000D01*
X17145000Y64280000D02*
X17145000Y65633333D01*
X17265000Y64280000D02*
X17265000Y65633333D01*
X17385000Y64280000D02*
X17385000Y65633333D01*
X17505000Y64280000D02*
X17505000Y65633333D01*
X17625000Y64280000D02*
X17625000Y65633333D01*
X17745000Y64280000D02*
X17745000Y65633333D01*
X17865000Y64280000D02*
X17865000Y65633333D01*
X17985000Y64280000D02*
X17985000Y65633333D01*
X18105000Y64280000D02*
X18105000Y65633333D01*
X18225000Y64280000D02*
X18225000Y65633333D01*
X17025000Y65633333D02*
X18295000Y65633333D01*
X38540000Y56620000D02*
X39370000Y56620000D01*
X40990000Y56620000D02*
X41520000Y56620000D01*
X43890000Y56620000D02*
X45070000Y56620000D01*
X35330000Y56620000D02*
X35330000Y51900000D01*
X45070000Y48090000D02*
X45070000Y45030000D01*
X45080000Y56620000D02*
X45080000Y51900000D01*
X35330000Y48090000D02*
X35330000Y45030000D01*
X35330000Y56620000D02*
X36820000Y56620000D01*
X35330000Y45030000D02*
X45070000Y45030000D01*
X20330000Y45030000D02*
X30070000Y45030000D01*
X20330000Y56620000D02*
X21820000Y56620000D01*
X20330000Y48090000D02*
X20330000Y45030000D01*
X30080000Y56620000D02*
X30080000Y51900000D01*
X30070000Y48090000D02*
X30070000Y45030000D01*
X20330000Y56620000D02*
X20330000Y51900000D01*
X28890000Y56620000D02*
X30070000Y56620000D01*
X25990000Y56620000D02*
X26520000Y56620000D01*
X23540000Y56620000D02*
X24370000Y56620000D01*
X5330000Y45030000D02*
X15070000Y45030000D01*
X5330000Y56620000D02*
X6820000Y56620000D01*
X5330000Y48090000D02*
X5330000Y45030000D01*
X15080000Y56620000D02*
X15080000Y51900000D01*
X15070000Y48090000D02*
X15070000Y45030000D01*
X5330000Y56620000D02*
X5330000Y51900000D01*
X13890000Y56620000D02*
X15070000Y56620000D01*
X10990000Y56620000D02*
X11520000Y56620000D01*
X8540000Y56620000D02*
X9370000Y56620000D01*
D10*
X78060000Y66550000D02*
X69460000Y66550000D01*
X78060000Y71150000D02*
X75860000Y71150000D01*
X71760000Y71150000D02*
X69460000Y71150000D01*
D11*
X12250000Y12000000D02*
X10750000Y12000000D01*
X8250000Y10750000D02*
X8250000Y6250000D01*
X10750000Y5000000D02*
X12250000Y5000000D01*
X14750000Y6250000D02*
X14750000Y10750000D01*
X25750000Y6250000D02*
X25750000Y10750000D01*
X21750000Y5000000D02*
X23250000Y5000000D01*
X19250000Y10750000D02*
X19250000Y6250000D01*
X23250000Y12000000D02*
X21750000Y12000000D01*
X34250000Y12000000D02*
X32750000Y12000000D01*
X30250000Y10750000D02*
X30250000Y6250000D01*
X32750000Y5000000D02*
X34250000Y5000000D01*
X36750000Y6250000D02*
X36750000Y10750000D01*
X47750000Y6250000D02*
X47750000Y10750000D01*
X43750000Y5000000D02*
X45250000Y5000000D01*
X41250000Y10750000D02*
X41250000Y6250000D01*
X45250000Y12000000D02*
X43750000Y12000000D01*
X56250000Y12000000D02*
X54750000Y12000000D01*
X52250000Y10750000D02*
X52250000Y6250000D01*
X54750000Y5000000D02*
X56250000Y5000000D01*
X58750000Y6250000D02*
X58750000Y10750000D01*
X69750000Y6250000D02*
X69750000Y10750000D01*
X65750000Y5000000D02*
X67250000Y5000000D01*
X63250000Y10750000D02*
X63250000Y6250000D01*
X67250000Y12000000D02*
X65750000Y12000000D01*
X78250000Y12000000D02*
X76750000Y12000000D01*
X74250000Y10750000D02*
X74250000Y6250000D01*
X76750000Y5000000D02*
X78250000Y5000000D01*
X80750000Y6250000D02*
X80750000Y10750000D01*
X91750000Y6250000D02*
X91750000Y10750000D01*
X87750000Y5000000D02*
X89250000Y5000000D01*
X85250000Y10750000D02*
X85250000Y6250000D01*
X89250000Y12000000D02*
X87750000Y12000000D01*
D10*
X76452380Y42297620D02*
X76119047Y42773810D01*
X75880952Y42297620D02*
X75880952Y43297620D01*
X76261904Y43297620D01*
X76357142Y43250000D01*
X76404761Y43202381D01*
X76452380Y43107143D01*
X76452380Y42964286D01*
X76404761Y42869048D01*
X76357142Y42821429D01*
X76261904Y42773810D01*
X75880952Y42773810D01*
X76880952Y42821429D02*
X77214285Y42821429D01*
X77357142Y42297620D02*
X76880952Y42297620D01*
X76880952Y43297620D01*
X77357142Y43297620D01*
X78119047Y42821429D02*
X77785714Y42821429D01*
X77785714Y42297620D02*
X77785714Y43297620D01*
X78261904Y43297620D01*
X78547619Y43297620D02*
X79214285Y43297620D01*
X78785714Y42297620D01*
X87452380Y42297620D02*
X87119047Y42773810D01*
X86880952Y42297620D02*
X86880952Y43297620D01*
X87261904Y43297620D01*
X87357142Y43250000D01*
X87404761Y43202381D01*
X87452380Y43107143D01*
X87452380Y42964286D01*
X87404761Y42869048D01*
X87357142Y42821429D01*
X87261904Y42773810D01*
X86880952Y42773810D01*
X87880952Y42821429D02*
X88214285Y42821429D01*
X88357142Y42297620D02*
X87880952Y42297620D01*
X87880952Y43297620D01*
X88357142Y43297620D01*
X89119047Y42821429D02*
X88785714Y42821429D01*
X88785714Y42297620D02*
X88785714Y43297620D01*
X89261904Y43297620D01*
X89785714Y42869048D02*
X89690476Y42916667D01*
X89642857Y42964286D01*
X89595238Y43059524D01*
X89595238Y43107143D01*
X89642857Y43202381D01*
X89690476Y43250000D01*
X89785714Y43297620D01*
X89976190Y43297620D01*
X90071428Y43250000D01*
X90119047Y43202381D01*
X90166666Y43107143D01*
X90166666Y43059524D01*
X90119047Y42964286D01*
X90071428Y42916667D01*
X89976190Y42869048D01*
X89785714Y42869048D01*
X89690476Y42821429D01*
X89642857Y42773810D01*
X89595238Y42678572D01*
X89595238Y42488096D01*
X89642857Y42392858D01*
X89690476Y42345239D01*
X89785714Y42297620D01*
X89976190Y42297620D01*
X90071428Y42345239D01*
X90119047Y42392858D01*
X90166666Y42488096D01*
X90166666Y42678572D01*
X90119047Y42773810D01*
X90071428Y42821429D01*
X89976190Y42869048D01*
X54452380Y42297620D02*
X54119047Y42773810D01*
X53880952Y42297620D02*
X53880952Y43297620D01*
X54261904Y43297620D01*
X54357142Y43250000D01*
X54404761Y43202381D01*
X54452380Y43107143D01*
X54452380Y42964286D01*
X54404761Y42869048D01*
X54357142Y42821429D01*
X54261904Y42773810D01*
X53880952Y42773810D01*
X54880952Y42821429D02*
X55214285Y42821429D01*
X55357142Y42297620D02*
X54880952Y42297620D01*
X54880952Y43297620D01*
X55357142Y43297620D01*
X56119047Y42821429D02*
X55785714Y42821429D01*
X55785714Y42297620D02*
X55785714Y43297620D01*
X56261904Y43297620D01*
X57119047Y43297620D02*
X56642857Y43297620D01*
X56595238Y42821429D01*
X56642857Y42869048D01*
X56738095Y42916667D01*
X56976190Y42916667D01*
X57071428Y42869048D01*
X57119047Y42821429D01*
X57166666Y42726191D01*
X57166666Y42488096D01*
X57119047Y42392858D01*
X57071428Y42345239D01*
X56976190Y42297620D01*
X56738095Y42297620D01*
X56642857Y42345239D01*
X56595238Y42392858D01*
X65452380Y42297620D02*
X65119047Y42773810D01*
X64880952Y42297620D02*
X64880952Y43297620D01*
X65261904Y43297620D01*
X65357142Y43250000D01*
X65404761Y43202381D01*
X65452380Y43107143D01*
X65452380Y42964286D01*
X65404761Y42869048D01*
X65357142Y42821429D01*
X65261904Y42773810D01*
X64880952Y42773810D01*
X65880952Y42821429D02*
X66214285Y42821429D01*
X66357142Y42297620D02*
X65880952Y42297620D01*
X65880952Y43297620D01*
X66357142Y43297620D01*
X67119047Y42821429D02*
X66785714Y42821429D01*
X66785714Y42297620D02*
X66785714Y43297620D01*
X67261904Y43297620D01*
X68071428Y43297620D02*
X67880952Y43297620D01*
X67785714Y43250000D01*
X67738095Y43202381D01*
X67642857Y43059524D01*
X67595238Y42869048D01*
X67595238Y42488096D01*
X67642857Y42392858D01*
X67690476Y42345239D01*
X67785714Y42297620D01*
X67976190Y42297620D01*
X68071428Y42345239D01*
X68119047Y42392858D01*
X68166666Y42488096D01*
X68166666Y42726191D01*
X68119047Y42821429D01*
X68071428Y42869048D01*
X67976190Y42916667D01*
X67785714Y42916667D01*
X67690476Y42869048D01*
X67642857Y42821429D01*
X67595238Y42726191D01*
X32452380Y42297620D02*
X32119047Y42773810D01*
X31880952Y42297620D02*
X31880952Y43297620D01*
X32261904Y43297620D01*
X32357142Y43250000D01*
X32404761Y43202381D01*
X32452380Y43107143D01*
X32452380Y42964286D01*
X32404761Y42869048D01*
X32357142Y42821429D01*
X32261904Y42773810D01*
X31880952Y42773810D01*
X32880952Y42821429D02*
X33214285Y42821429D01*
X33357142Y42297620D02*
X32880952Y42297620D01*
X32880952Y43297620D01*
X33357142Y43297620D01*
X34119047Y42821429D02*
X33785714Y42821429D01*
X33785714Y42297620D02*
X33785714Y43297620D01*
X34261904Y43297620D01*
X34547619Y43297620D02*
X35166666Y43297620D01*
X34833333Y42916667D01*
X34976190Y42916667D01*
X35071428Y42869048D01*
X35119047Y42821429D01*
X35166666Y42726191D01*
X35166666Y42488096D01*
X35119047Y42392858D01*
X35071428Y42345239D01*
X34976190Y42297620D01*
X34690476Y42297620D01*
X34595238Y42345239D01*
X34547619Y42392858D01*
X43452380Y42297620D02*
X43119047Y42773810D01*
X42880952Y42297620D02*
X42880952Y43297620D01*
X43261904Y43297620D01*
X43357142Y43250000D01*
X43404761Y43202381D01*
X43452380Y43107143D01*
X43452380Y42964286D01*
X43404761Y42869048D01*
X43357142Y42821429D01*
X43261904Y42773810D01*
X42880952Y42773810D01*
X43880952Y42821429D02*
X44214285Y42821429D01*
X44357142Y42297620D02*
X43880952Y42297620D01*
X43880952Y43297620D01*
X44357142Y43297620D01*
X45119047Y42821429D02*
X44785714Y42821429D01*
X44785714Y42297620D02*
X44785714Y43297620D01*
X45261904Y43297620D01*
X46071428Y42964286D02*
X46071428Y42297620D01*
X45833333Y43345239D02*
X45595238Y42630953D01*
X46214285Y42630953D01*
X21452380Y42297620D02*
X21119047Y42773810D01*
X20880952Y42297620D02*
X20880952Y43297620D01*
X21261904Y43297620D01*
X21357142Y43250000D01*
X21404761Y43202381D01*
X21452380Y43107143D01*
X21452380Y42964286D01*
X21404761Y42869048D01*
X21357142Y42821429D01*
X21261904Y42773810D01*
X20880952Y42773810D01*
X21880952Y42821429D02*
X22214285Y42821429D01*
X22357142Y42297620D02*
X21880952Y42297620D01*
X21880952Y43297620D01*
X22357142Y43297620D01*
X23119047Y42821429D02*
X22785714Y42821429D01*
X22785714Y42297620D02*
X22785714Y43297620D01*
X23261904Y43297620D01*
X23595238Y43202381D02*
X23642857Y43250000D01*
X23738095Y43297620D01*
X23976190Y43297620D01*
X24071428Y43250000D01*
X24119047Y43202381D01*
X24166666Y43107143D01*
X24166666Y43011905D01*
X24119047Y42869048D01*
X23547619Y42297620D01*
X24166666Y42297620D01*
X10452380Y42297620D02*
X10119047Y42773810D01*
X9880952Y42297620D02*
X9880952Y43297620D01*
X10261904Y43297620D01*
X10357142Y43250000D01*
X10404761Y43202381D01*
X10452380Y43107143D01*
X10452380Y42964286D01*
X10404761Y42869048D01*
X10357142Y42821429D01*
X10261904Y42773810D01*
X9880952Y42773810D01*
X10880952Y42821429D02*
X11214285Y42821429D01*
X11357142Y42297620D02*
X10880952Y42297620D01*
X10880952Y43297620D01*
X11357142Y43297620D01*
X12119047Y42821429D02*
X11785714Y42821429D01*
X11785714Y42297620D02*
X11785714Y43297620D01*
X12261904Y43297620D01*
X13166666Y42297620D02*
X12595238Y42297620D01*
X12880952Y42297620D02*
X12880952Y43297620D01*
X12785714Y43154762D01*
X12690476Y43059524D01*
X12595238Y43011905D01*
X94833333Y42972858D02*
X94785714Y42925239D01*
X94642857Y42877620D01*
X94547619Y42877620D01*
X94404761Y42925239D01*
X94309523Y43020477D01*
X94261904Y43115715D01*
X94214285Y43306191D01*
X94214285Y43449048D01*
X94261904Y43639524D01*
X94309523Y43734762D01*
X94404761Y43830000D01*
X94547619Y43877620D01*
X94642857Y43877620D01*
X94785714Y43830000D01*
X94833333Y43782381D01*
X95261904Y42877620D02*
X95261904Y43877620D01*
X95833333Y42877620D01*
X95833333Y43877620D01*
X96833333Y42877620D02*
X96261904Y42877620D01*
X96547619Y42877620D02*
X96547619Y43877620D01*
X96452380Y43734762D01*
X96357142Y43639524D01*
X96261904Y43591905D01*
X97785714Y42877620D02*
X97214285Y42877620D01*
X97500000Y42877620D02*
X97500000Y43877620D01*
X97404761Y43734762D01*
X97309523Y43639524D01*
X97214285Y43591905D01*
X2833333Y42972858D02*
X2785714Y42925239D01*
X2642857Y42877620D01*
X2547619Y42877620D01*
X2404761Y42925239D01*
X2309523Y43020477D01*
X2261904Y43115715D01*
X2214285Y43306191D01*
X2214285Y43449048D01*
X2261904Y43639524D01*
X2309523Y43734762D01*
X2404761Y43830000D01*
X2547619Y43877620D01*
X2642857Y43877620D01*
X2785714Y43830000D01*
X2833333Y43782381D01*
X3261904Y42877620D02*
X3261904Y43877620D01*
X3833333Y42877620D01*
X3833333Y43877620D01*
X4833333Y42877620D02*
X4261904Y42877620D01*
X4547619Y42877620D02*
X4547619Y43877620D01*
X4452380Y43734762D01*
X4357142Y43639524D01*
X4261904Y43591905D01*
X5214285Y43782381D02*
X5261904Y43830000D01*
X5357142Y43877620D01*
X5595238Y43877620D01*
X5690476Y43830000D01*
X5738095Y43782381D01*
X5785714Y43687143D01*
X5785714Y43591905D01*
X5738095Y43449048D01*
X5166666Y42877620D01*
X5785714Y42877620D01*
X47527142Y67683334D02*
X47574761Y67635715D01*
X47622380Y67492858D01*
X47622380Y67397620D01*
X47574761Y67254762D01*
X47479523Y67159524D01*
X47384285Y67111905D01*
X47193809Y67064286D01*
X47050952Y67064286D01*
X46860476Y67111905D01*
X46765238Y67159524D01*
X46670000Y67254762D01*
X46622380Y67397620D01*
X46622380Y67492858D01*
X46670000Y67635715D01*
X46717619Y67683334D01*
X47622380Y68111905D02*
X46622380Y68111905D01*
X47622380Y68683334D01*
X46622380Y68683334D01*
X46717619Y69111905D02*
X46670000Y69159524D01*
X46622380Y69254762D01*
X46622380Y69492858D01*
X46670000Y69588096D01*
X46717619Y69635715D01*
X46812857Y69683334D01*
X46908095Y69683334D01*
X47050952Y69635715D01*
X47622380Y69064286D01*
X47622380Y69683334D01*
X47622380Y70635715D02*
X47622380Y70064286D01*
X47622380Y70350000D02*
X46622380Y70350000D01*
X46765238Y70254762D01*
X46860476Y70159524D01*
X46908095Y70064286D01*
X61453333Y72092858D02*
X61405714Y72045239D01*
X61262857Y71997620D01*
X61167619Y71997620D01*
X61024761Y72045239D01*
X60929523Y72140477D01*
X60881904Y72235715D01*
X60834285Y72426191D01*
X60834285Y72569048D01*
X60881904Y72759524D01*
X60929523Y72854762D01*
X61024761Y72950000D01*
X61167619Y72997620D01*
X61262857Y72997620D01*
X61405714Y72950000D01*
X61453333Y72902381D01*
X61881904Y71997620D02*
X61881904Y72997620D01*
X62453333Y71997620D01*
X62453333Y72997620D01*
X63405714Y72997620D02*
X62929523Y72997620D01*
X62881904Y72521429D01*
X62929523Y72569048D01*
X63024761Y72616667D01*
X63262857Y72616667D01*
X63358095Y72569048D01*
X63405714Y72521429D01*
X63453333Y72426191D01*
X63453333Y72188096D01*
X63405714Y72092858D01*
X63358095Y72045239D01*
X63262857Y71997620D01*
X63024761Y71997620D01*
X62929523Y72045239D01*
X62881904Y72092858D01*
X64405714Y71997620D02*
X63834285Y71997620D01*
X64120000Y71997620D02*
X64120000Y72997620D01*
X64024761Y72854762D01*
X63929523Y72759524D01*
X63834285Y72711905D01*
X56373333Y72092858D02*
X56325714Y72045239D01*
X56182857Y71997620D01*
X56087619Y71997620D01*
X55944761Y72045239D01*
X55849523Y72140477D01*
X55801904Y72235715D01*
X55754285Y72426191D01*
X55754285Y72569048D01*
X55801904Y72759524D01*
X55849523Y72854762D01*
X55944761Y72950000D01*
X56087619Y72997620D01*
X56182857Y72997620D01*
X56325714Y72950000D01*
X56373333Y72902381D01*
X56801904Y71997620D02*
X56801904Y72997620D01*
X57373333Y71997620D01*
X57373333Y72997620D01*
X58325714Y72997620D02*
X57849523Y72997620D01*
X57801904Y72521429D01*
X57849523Y72569048D01*
X57944761Y72616667D01*
X58182857Y72616667D01*
X58278095Y72569048D01*
X58325714Y72521429D01*
X58373333Y72426191D01*
X58373333Y72188096D01*
X58325714Y72092858D01*
X58278095Y72045239D01*
X58182857Y71997620D01*
X57944761Y71997620D01*
X57849523Y72045239D01*
X57801904Y72092858D01*
X58754285Y72902381D02*
X58801904Y72950000D01*
X58897142Y72997620D01*
X59135238Y72997620D01*
X59230476Y72950000D01*
X59278095Y72902381D01*
X59325714Y72807143D01*
X59325714Y72711905D01*
X59278095Y72569048D01*
X58706666Y71997620D01*
X59325714Y71997620D01*
X74153333Y49652858D02*
X74105714Y49605239D01*
X73962857Y49557620D01*
X73867619Y49557620D01*
X73724761Y49605239D01*
X73629523Y49700477D01*
X73581904Y49795715D01*
X73534285Y49986191D01*
X73534285Y50129048D01*
X73581904Y50319524D01*
X73629523Y50414762D01*
X73724761Y50510000D01*
X73867619Y50557620D01*
X73962857Y50557620D01*
X74105714Y50510000D01*
X74153333Y50462381D01*
X74581904Y49557620D02*
X74581904Y50557620D01*
X75153333Y49557620D01*
X75153333Y50557620D01*
X76058095Y50557620D02*
X75867619Y50557620D01*
X75772380Y50510000D01*
X75724761Y50462381D01*
X75629523Y50319524D01*
X75581904Y50129048D01*
X75581904Y49748096D01*
X75629523Y49652858D01*
X75677142Y49605239D01*
X75772380Y49557620D01*
X75962857Y49557620D01*
X76058095Y49605239D01*
X76105714Y49652858D01*
X76153333Y49748096D01*
X76153333Y49986191D01*
X76105714Y50081429D01*
X76058095Y50129048D01*
X75962857Y50176667D01*
X75772380Y50176667D01*
X75677142Y50129048D01*
X75629523Y50081429D01*
X75581904Y49986191D01*
X77105714Y49557620D02*
X76534285Y49557620D01*
X76820000Y49557620D02*
X76820000Y50557620D01*
X76724761Y50414762D01*
X76629523Y50319524D01*
X76534285Y50271905D01*
X79233333Y49652858D02*
X79185714Y49605239D01*
X79042857Y49557620D01*
X78947619Y49557620D01*
X78804761Y49605239D01*
X78709523Y49700477D01*
X78661904Y49795715D01*
X78614285Y49986191D01*
X78614285Y50129048D01*
X78661904Y50319524D01*
X78709523Y50414762D01*
X78804761Y50510000D01*
X78947619Y50557620D01*
X79042857Y50557620D01*
X79185714Y50510000D01*
X79233333Y50462381D01*
X79661904Y49557620D02*
X79661904Y50557620D01*
X80233333Y49557620D01*
X80233333Y50557620D01*
X81138095Y50557620D02*
X80947619Y50557620D01*
X80852380Y50510000D01*
X80804761Y50462381D01*
X80709523Y50319524D01*
X80661904Y50129048D01*
X80661904Y49748096D01*
X80709523Y49652858D01*
X80757142Y49605239D01*
X80852380Y49557620D01*
X81042857Y49557620D01*
X81138095Y49605239D01*
X81185714Y49652858D01*
X81233333Y49748096D01*
X81233333Y49986191D01*
X81185714Y50081429D01*
X81138095Y50129048D01*
X81042857Y50176667D01*
X80852380Y50176667D01*
X80757142Y50129048D01*
X80709523Y50081429D01*
X80661904Y49986191D01*
X81614285Y50462381D02*
X81661904Y50510000D01*
X81757142Y50557620D01*
X81995238Y50557620D01*
X82090476Y50510000D01*
X82138095Y50462381D01*
X82185714Y50367143D01*
X82185714Y50271905D01*
X82138095Y50129048D01*
X81566666Y49557620D01*
X82185714Y49557620D01*
X83507142Y57523334D02*
X83554761Y57475715D01*
X83602380Y57332858D01*
X83602380Y57237620D01*
X83554761Y57094762D01*
X83459523Y56999524D01*
X83364285Y56951905D01*
X83173809Y56904286D01*
X83030952Y56904286D01*
X82840476Y56951905D01*
X82745238Y56999524D01*
X82650000Y57094762D01*
X82602380Y57237620D01*
X82602380Y57332858D01*
X82650000Y57475715D01*
X82697619Y57523334D01*
X83602380Y57951905D02*
X82602380Y57951905D01*
X83602380Y58523334D01*
X82602380Y58523334D01*
X82602380Y58904286D02*
X82602380Y59570953D01*
X83602380Y59142381D01*
X83602380Y60475715D02*
X83602380Y59904286D01*
X83602380Y60190000D02*
X82602380Y60190000D01*
X82745238Y60094762D01*
X82840476Y59999524D01*
X82888095Y59904286D01*
X83507142Y65143334D02*
X83554761Y65095715D01*
X83602380Y64952858D01*
X83602380Y64857620D01*
X83554761Y64714762D01*
X83459523Y64619524D01*
X83364285Y64571905D01*
X83173809Y64524286D01*
X83030952Y64524286D01*
X82840476Y64571905D01*
X82745238Y64619524D01*
X82650000Y64714762D01*
X82602380Y64857620D01*
X82602380Y64952858D01*
X82650000Y65095715D01*
X82697619Y65143334D01*
X83602380Y65571905D02*
X82602380Y65571905D01*
X83602380Y66143334D01*
X82602380Y66143334D01*
X82602380Y66524286D02*
X82602380Y67190953D01*
X83602380Y66762381D01*
X82697619Y67524286D02*
X82650000Y67571905D01*
X82602380Y67667143D01*
X82602380Y67905239D01*
X82650000Y68000477D01*
X82697619Y68048096D01*
X82792857Y68095715D01*
X82888095Y68095715D01*
X83030952Y68048096D01*
X83602380Y67476667D01*
X83602380Y68095715D01*
X53833333Y56852858D02*
X53785714Y56805239D01*
X53642857Y56757620D01*
X53547619Y56757620D01*
X53404761Y56805239D01*
X53309523Y56900477D01*
X53261904Y56995715D01*
X53214285Y57186191D01*
X53214285Y57329048D01*
X53261904Y57519524D01*
X53309523Y57614762D01*
X53404761Y57710000D01*
X53547619Y57757620D01*
X53642857Y57757620D01*
X53785714Y57710000D01*
X53833333Y57662381D01*
X54261904Y56757620D02*
X54261904Y57757620D01*
X54833333Y56757620D01*
X54833333Y57757620D01*
X55357142Y56757620D02*
X55547619Y56757620D01*
X55642857Y56805239D01*
X55690476Y56852858D01*
X55785714Y56995715D01*
X55833333Y57186191D01*
X55833333Y57567143D01*
X55785714Y57662381D01*
X55738095Y57710000D01*
X55642857Y57757620D01*
X55452380Y57757620D01*
X55357142Y57710000D01*
X55309523Y57662381D01*
X55261904Y57567143D01*
X55261904Y57329048D01*
X55309523Y57233810D01*
X55357142Y57186191D01*
X55452380Y57138572D01*
X55642857Y57138572D01*
X55738095Y57186191D01*
X55785714Y57233810D01*
X55833333Y57329048D01*
X56785714Y56757620D02*
X56214285Y56757620D01*
X56500000Y56757620D02*
X56500000Y57757620D01*
X56404761Y57614762D01*
X56309523Y57519524D01*
X56214285Y57471905D01*
X37357142Y66333334D02*
X37404761Y66285715D01*
X37452380Y66142858D01*
X37452380Y66047620D01*
X37404761Y65904762D01*
X37309523Y65809524D01*
X37214285Y65761905D01*
X37023809Y65714286D01*
X36880952Y65714286D01*
X36690476Y65761905D01*
X36595238Y65809524D01*
X36500000Y65904762D01*
X36452380Y66047620D01*
X36452380Y66142858D01*
X36500000Y66285715D01*
X36547619Y66333334D01*
X37452380Y66761905D02*
X36452380Y66761905D01*
X37452380Y67333334D01*
X36452380Y67333334D01*
X37452380Y67857143D02*
X37452380Y68047620D01*
X37404761Y68142858D01*
X37357142Y68190477D01*
X37214285Y68285715D01*
X37023809Y68333334D01*
X36642857Y68333334D01*
X36547619Y68285715D01*
X36500000Y68238096D01*
X36452380Y68142858D01*
X36452380Y67952381D01*
X36500000Y67857143D01*
X36547619Y67809524D01*
X36642857Y67761905D01*
X36880952Y67761905D01*
X36976190Y67809524D01*
X37023809Y67857143D01*
X37071428Y67952381D01*
X37071428Y68142858D01*
X37023809Y68238096D01*
X36976190Y68285715D01*
X36880952Y68333334D01*
X36547619Y68714286D02*
X36500000Y68761905D01*
X36452380Y68857143D01*
X36452380Y69095239D01*
X36500000Y69190477D01*
X36547619Y69238096D01*
X36642857Y69285715D01*
X36738095Y69285715D01*
X36880952Y69238096D01*
X37452380Y68666667D01*
X37452380Y69285715D01*
X85746190Y52472858D02*
X85698571Y52425239D01*
X85555714Y52377620D01*
X85460476Y52377620D01*
X85317619Y52425239D01*
X85222380Y52520477D01*
X85174761Y52615715D01*
X85127142Y52806191D01*
X85127142Y52949048D01*
X85174761Y53139524D01*
X85222380Y53234762D01*
X85317619Y53330000D01*
X85460476Y53377620D01*
X85555714Y53377620D01*
X85698571Y53330000D01*
X85746190Y53282381D01*
X86127142Y52425239D02*
X86222380Y52377620D01*
X86412857Y52377620D01*
X86508095Y52425239D01*
X86555714Y52520477D01*
X86555714Y52568096D01*
X86508095Y52663334D01*
X86412857Y52710953D01*
X86270000Y52710953D01*
X86174761Y52758572D01*
X86127142Y52853810D01*
X86127142Y52901429D01*
X86174761Y52996667D01*
X86270000Y53044286D01*
X86412857Y53044286D01*
X86508095Y52996667D01*
X86984285Y53044286D02*
X86984285Y52044286D01*
X86984285Y52996667D02*
X87079523Y53044286D01*
X87270000Y53044286D01*
X87365238Y52996667D01*
X87412857Y52949048D01*
X87460476Y52853810D01*
X87460476Y52568096D01*
X87412857Y52472858D01*
X87365238Y52425239D01*
X87270000Y52377620D01*
X87079523Y52377620D01*
X86984285Y52425239D01*
X88412857Y52377620D02*
X87841428Y52377620D01*
X88127142Y52377620D02*
X88127142Y53377620D01*
X88031904Y53234762D01*
X87936666Y53139524D01*
X87841428Y53091905D01*
X13823809Y16397620D02*
X13823809Y17397620D01*
X14061904Y17397620D01*
X14204761Y17350000D01*
X14300000Y17254762D01*
X14347619Y17159524D01*
X14395238Y16969048D01*
X14395238Y16826191D01*
X14347619Y16635715D01*
X14300000Y16540477D01*
X14204761Y16445239D01*
X14061904Y16397620D01*
X13823809Y16397620D01*
X14823809Y16397620D02*
X14823809Y17064286D01*
X14823809Y17397620D02*
X14776190Y17350000D01*
X14823809Y17302381D01*
X14871428Y17350000D01*
X14823809Y17397620D01*
X14823809Y17302381D01*
X15823809Y16397620D02*
X15252380Y16397620D01*
X15538095Y16397620D02*
X15538095Y17397620D01*
X15442857Y17254762D01*
X15347619Y17159524D01*
X15252380Y17111905D01*
X24823809Y16397620D02*
X24823809Y17397620D01*
X25061904Y17397620D01*
X25204761Y17350000D01*
X25300000Y17254762D01*
X25347619Y17159524D01*
X25395238Y16969048D01*
X25395238Y16826191D01*
X25347619Y16635715D01*
X25300000Y16540477D01*
X25204761Y16445239D01*
X25061904Y16397620D01*
X24823809Y16397620D01*
X25823809Y16397620D02*
X25823809Y17064286D01*
X25823809Y17397620D02*
X25776190Y17350000D01*
X25823809Y17302381D01*
X25871428Y17350000D01*
X25823809Y17397620D01*
X25823809Y17302381D01*
X26252380Y17302381D02*
X26300000Y17350000D01*
X26395238Y17397620D01*
X26633333Y17397620D01*
X26728571Y17350000D01*
X26776190Y17302381D01*
X26823809Y17207143D01*
X26823809Y17111905D01*
X26776190Y16969048D01*
X26204761Y16397620D01*
X26823809Y16397620D01*
X35823809Y16397620D02*
X35823809Y17397620D01*
X36061904Y17397620D01*
X36204761Y17350000D01*
X36300000Y17254762D01*
X36347619Y17159524D01*
X36395238Y16969048D01*
X36395238Y16826191D01*
X36347619Y16635715D01*
X36300000Y16540477D01*
X36204761Y16445239D01*
X36061904Y16397620D01*
X35823809Y16397620D01*
X36823809Y16397620D02*
X36823809Y17064286D01*
X36823809Y17397620D02*
X36776190Y17350000D01*
X36823809Y17302381D01*
X36871428Y17350000D01*
X36823809Y17397620D01*
X36823809Y17302381D01*
X37204761Y17397620D02*
X37823809Y17397620D01*
X37490476Y17016667D01*
X37633333Y17016667D01*
X37728571Y16969048D01*
X37776190Y16921429D01*
X37823809Y16826191D01*
X37823809Y16588096D01*
X37776190Y16492858D01*
X37728571Y16445239D01*
X37633333Y16397620D01*
X37347619Y16397620D01*
X37252380Y16445239D01*
X37204761Y16492858D01*
X46823809Y16397620D02*
X46823809Y17397620D01*
X47061904Y17397620D01*
X47204761Y17350000D01*
X47300000Y17254762D01*
X47347619Y17159524D01*
X47395238Y16969048D01*
X47395238Y16826191D01*
X47347619Y16635715D01*
X47300000Y16540477D01*
X47204761Y16445239D01*
X47061904Y16397620D01*
X46823809Y16397620D01*
X47823809Y16397620D02*
X47823809Y17064286D01*
X47823809Y17397620D02*
X47776190Y17350000D01*
X47823809Y17302381D01*
X47871428Y17350000D01*
X47823809Y17397620D01*
X47823809Y17302381D01*
X48728571Y17064286D02*
X48728571Y16397620D01*
X48490476Y17445239D02*
X48252380Y16730953D01*
X48871428Y16730953D01*
X57823809Y16397620D02*
X57823809Y17397620D01*
X58061904Y17397620D01*
X58204761Y17350000D01*
X58300000Y17254762D01*
X58347619Y17159524D01*
X58395238Y16969048D01*
X58395238Y16826191D01*
X58347619Y16635715D01*
X58300000Y16540477D01*
X58204761Y16445239D01*
X58061904Y16397620D01*
X57823809Y16397620D01*
X58823809Y16397620D02*
X58823809Y17064286D01*
X58823809Y17397620D02*
X58776190Y17350000D01*
X58823809Y17302381D01*
X58871428Y17350000D01*
X58823809Y17397620D01*
X58823809Y17302381D01*
X59776190Y17397620D02*
X59300000Y17397620D01*
X59252380Y16921429D01*
X59300000Y16969048D01*
X59395238Y17016667D01*
X59633333Y17016667D01*
X59728571Y16969048D01*
X59776190Y16921429D01*
X59823809Y16826191D01*
X59823809Y16588096D01*
X59776190Y16492858D01*
X59728571Y16445239D01*
X59633333Y16397620D01*
X59395238Y16397620D01*
X59300000Y16445239D01*
X59252380Y16492858D01*
X68823809Y16397620D02*
X68823809Y17397620D01*
X69061904Y17397620D01*
X69204761Y17350000D01*
X69300000Y17254762D01*
X69347619Y17159524D01*
X69395238Y16969048D01*
X69395238Y16826191D01*
X69347619Y16635715D01*
X69300000Y16540477D01*
X69204761Y16445239D01*
X69061904Y16397620D01*
X68823809Y16397620D01*
X69823809Y16397620D02*
X69823809Y17064286D01*
X69823809Y17397620D02*
X69776190Y17350000D01*
X69823809Y17302381D01*
X69871428Y17350000D01*
X69823809Y17397620D01*
X69823809Y17302381D01*
X70728571Y17397620D02*
X70538095Y17397620D01*
X70442857Y17350000D01*
X70395238Y17302381D01*
X70300000Y17159524D01*
X70252380Y16969048D01*
X70252380Y16588096D01*
X70300000Y16492858D01*
X70347619Y16445239D01*
X70442857Y16397620D01*
X70633333Y16397620D01*
X70728571Y16445239D01*
X70776190Y16492858D01*
X70823809Y16588096D01*
X70823809Y16826191D01*
X70776190Y16921429D01*
X70728571Y16969048D01*
X70633333Y17016667D01*
X70442857Y17016667D01*
X70347619Y16969048D01*
X70300000Y16921429D01*
X70252380Y16826191D01*
X79773809Y16397620D02*
X79773809Y17397620D01*
X80011904Y17397620D01*
X80154761Y17350000D01*
X80250000Y17254762D01*
X80297619Y17159524D01*
X80345238Y16969048D01*
X80345238Y16826191D01*
X80297619Y16635715D01*
X80250000Y16540477D01*
X80154761Y16445239D01*
X80011904Y16397620D01*
X79773809Y16397620D01*
X80773809Y16397620D02*
X80773809Y17064286D01*
X80773809Y17397620D02*
X80726190Y17350000D01*
X80773809Y17302381D01*
X80821428Y17350000D01*
X80773809Y17397620D01*
X80773809Y17302381D01*
X81154761Y17397620D02*
X81821428Y17397620D01*
X81392857Y16397620D01*
X90823809Y16397620D02*
X90823809Y17397620D01*
X91061904Y17397620D01*
X91204761Y17350000D01*
X91300000Y17254762D01*
X91347619Y17159524D01*
X91395238Y16969048D01*
X91395238Y16826191D01*
X91347619Y16635715D01*
X91300000Y16540477D01*
X91204761Y16445239D01*
X91061904Y16397620D01*
X90823809Y16397620D01*
X91823809Y16397620D02*
X91823809Y17064286D01*
X91823809Y17397620D02*
X91776190Y17350000D01*
X91823809Y17302381D01*
X91871428Y17350000D01*
X91823809Y17397620D01*
X91823809Y17302381D01*
X92442857Y16969048D02*
X92347619Y17016667D01*
X92300000Y17064286D01*
X92252380Y17159524D01*
X92252380Y17207143D01*
X92300000Y17302381D01*
X92347619Y17350000D01*
X92442857Y17397620D01*
X92633333Y17397620D01*
X92728571Y17350000D01*
X92776190Y17302381D01*
X92823809Y17207143D01*
X92823809Y17159524D01*
X92776190Y17064286D01*
X92728571Y17016667D01*
X92633333Y16969048D01*
X92442857Y16969048D01*
X92347619Y16921429D01*
X92300000Y16873810D01*
X92252380Y16778572D01*
X92252380Y16588096D01*
X92300000Y16492858D01*
X92347619Y16445239D01*
X92442857Y16397620D01*
X92633333Y16397620D01*
X92728571Y16445239D01*
X92776190Y16492858D01*
X92823809Y16588096D01*
X92823809Y16778572D01*
X92776190Y16873810D01*
X92728571Y16921429D01*
X92633333Y16969048D01*
X90859523Y44847620D02*
X90859523Y45847620D01*
X91097619Y45847620D01*
X91240476Y45800000D01*
X91335714Y45704762D01*
X91383333Y45609524D01*
X91430952Y45419048D01*
X91430952Y45276191D01*
X91383333Y45085715D01*
X91335714Y44990477D01*
X91240476Y44895239D01*
X91097619Y44847620D01*
X90859523Y44847620D01*
X92002380Y44847620D02*
X91907142Y44895239D01*
X91859523Y44942858D01*
X91811904Y45038096D01*
X91811904Y45323810D01*
X91859523Y45419048D01*
X91907142Y45466667D01*
X92002380Y45514286D01*
X92145238Y45514286D01*
X92240476Y45466667D01*
X92288095Y45419048D01*
X92335714Y45323810D01*
X92335714Y45038096D01*
X92288095Y44942858D01*
X92240476Y44895239D01*
X92145238Y44847620D01*
X92002380Y44847620D01*
X93288095Y44847620D02*
X92716666Y44847620D01*
X93002380Y44847620D02*
X93002380Y45847620D01*
X92907142Y45704762D01*
X92811904Y45609524D01*
X92716666Y45561905D01*
X81969523Y44847620D02*
X81969523Y45847620D01*
X82207619Y45847620D01*
X82350476Y45800000D01*
X82445714Y45704762D01*
X82493333Y45609524D01*
X82540952Y45419048D01*
X82540952Y45276191D01*
X82493333Y45085715D01*
X82445714Y44990477D01*
X82350476Y44895239D01*
X82207619Y44847620D01*
X81969523Y44847620D01*
X83112380Y44847620D02*
X83017142Y44895239D01*
X82969523Y44942858D01*
X82921904Y45038096D01*
X82921904Y45323810D01*
X82969523Y45419048D01*
X83017142Y45466667D01*
X83112380Y45514286D01*
X83255238Y45514286D01*
X83350476Y45466667D01*
X83398095Y45419048D01*
X83445714Y45323810D01*
X83445714Y45038096D01*
X83398095Y44942858D01*
X83350476Y44895239D01*
X83255238Y44847620D01*
X83112380Y44847620D01*
X83826666Y45752381D02*
X83874285Y45800000D01*
X83969523Y45847620D01*
X84207619Y45847620D01*
X84302857Y45800000D01*
X84350476Y45752381D01*
X84398095Y45657143D01*
X84398095Y45561905D01*
X84350476Y45419048D01*
X83779047Y44847620D01*
X84398095Y44847620D01*
X70319523Y44847620D02*
X70319523Y45847620D01*
X70557619Y45847620D01*
X70700476Y45800000D01*
X70795714Y45704762D01*
X70843333Y45609524D01*
X70890952Y45419048D01*
X70890952Y45276191D01*
X70843333Y45085715D01*
X70795714Y44990477D01*
X70700476Y44895239D01*
X70557619Y44847620D01*
X70319523Y44847620D01*
X71462380Y44847620D02*
X71367142Y44895239D01*
X71319523Y44942858D01*
X71271904Y45038096D01*
X71271904Y45323810D01*
X71319523Y45419048D01*
X71367142Y45466667D01*
X71462380Y45514286D01*
X71605238Y45514286D01*
X71700476Y45466667D01*
X71748095Y45419048D01*
X71795714Y45323810D01*
X71795714Y45038096D01*
X71748095Y44942858D01*
X71700476Y44895239D01*
X71605238Y44847620D01*
X71462380Y44847620D01*
X72129047Y45847620D02*
X72748095Y45847620D01*
X72414761Y45466667D01*
X72557619Y45466667D01*
X72652857Y45419048D01*
X72700476Y45371429D01*
X72748095Y45276191D01*
X72748095Y45038096D01*
X72700476Y44942858D01*
X72652857Y44895239D01*
X72557619Y44847620D01*
X72271904Y44847620D01*
X72176666Y44895239D01*
X72129047Y44942858D01*
X58889523Y44847620D02*
X58889523Y45847620D01*
X59127619Y45847620D01*
X59270476Y45800000D01*
X59365714Y45704762D01*
X59413333Y45609524D01*
X59460952Y45419048D01*
X59460952Y45276191D01*
X59413333Y45085715D01*
X59365714Y44990477D01*
X59270476Y44895239D01*
X59127619Y44847620D01*
X58889523Y44847620D01*
X60032380Y44847620D02*
X59937142Y44895239D01*
X59889523Y44942858D01*
X59841904Y45038096D01*
X59841904Y45323810D01*
X59889523Y45419048D01*
X59937142Y45466667D01*
X60032380Y45514286D01*
X60175238Y45514286D01*
X60270476Y45466667D01*
X60318095Y45419048D01*
X60365714Y45323810D01*
X60365714Y45038096D01*
X60318095Y44942858D01*
X60270476Y44895239D01*
X60175238Y44847620D01*
X60032380Y44847620D01*
X61222857Y45514286D02*
X61222857Y44847620D01*
X60984761Y45895239D02*
X60746666Y45180953D01*
X61365714Y45180953D01*
X48949523Y44847620D02*
X48949523Y45847620D01*
X49187619Y45847620D01*
X49330476Y45800000D01*
X49425714Y45704762D01*
X49473333Y45609524D01*
X49520952Y45419048D01*
X49520952Y45276191D01*
X49473333Y45085715D01*
X49425714Y44990477D01*
X49330476Y44895239D01*
X49187619Y44847620D01*
X48949523Y44847620D01*
X50092380Y44847620D02*
X49997142Y44895239D01*
X49949523Y44942858D01*
X49901904Y45038096D01*
X49901904Y45323810D01*
X49949523Y45419048D01*
X49997142Y45466667D01*
X50092380Y45514286D01*
X50235238Y45514286D01*
X50330476Y45466667D01*
X50378095Y45419048D01*
X50425714Y45323810D01*
X50425714Y45038096D01*
X50378095Y44942858D01*
X50330476Y44895239D01*
X50235238Y44847620D01*
X50092380Y44847620D01*
X51330476Y45847620D02*
X50854285Y45847620D01*
X50806666Y45371429D01*
X50854285Y45419048D01*
X50949523Y45466667D01*
X51187619Y45466667D01*
X51282857Y45419048D01*
X51330476Y45371429D01*
X51378095Y45276191D01*
X51378095Y45038096D01*
X51330476Y44942858D01*
X51282857Y44895239D01*
X51187619Y44847620D01*
X50949523Y44847620D01*
X50854285Y44895239D01*
X50806666Y44942858D01*
X4532380Y64524286D02*
X3532380Y64524286D01*
X3532380Y64762381D01*
X3580000Y64905239D01*
X3675238Y65000477D01*
X3770476Y65048096D01*
X3960952Y65095715D01*
X4103809Y65095715D01*
X4294285Y65048096D01*
X4389523Y65000477D01*
X4484761Y64905239D01*
X4532380Y64762381D01*
X4532380Y64524286D01*
X4484761Y65476667D02*
X4532380Y65619524D01*
X4532380Y65857620D01*
X4484761Y65952858D01*
X4437142Y66000477D01*
X4341904Y66048096D01*
X4246666Y66048096D01*
X4151428Y66000477D01*
X4103809Y65952858D01*
X4056190Y65857620D01*
X4008571Y65667143D01*
X3960952Y65571905D01*
X3913333Y65524286D01*
X3818095Y65476667D01*
X3722857Y65476667D01*
X3627619Y65524286D01*
X3580000Y65571905D01*
X3532380Y65667143D01*
X3532380Y65905239D01*
X3580000Y66048096D01*
X3532380Y66381429D02*
X4532380Y66619524D01*
X3818095Y66810000D01*
X4532380Y67000477D01*
X3532380Y67238572D01*
X4532380Y68143334D02*
X4532380Y67571905D01*
X4532380Y67857620D02*
X3532380Y67857620D01*
X3675238Y67762381D01*
X3770476Y67667143D01*
X3818095Y67571905D01*
X47792380Y49147143D02*
X46792380Y49147143D01*
X46792380Y49528096D01*
X46840000Y49623334D01*
X46887619Y49670953D01*
X46982857Y49718572D01*
X47125714Y49718572D01*
X47220952Y49670953D01*
X47268571Y49623334D01*
X47316190Y49528096D01*
X47316190Y49147143D01*
X46792380Y50337620D02*
X46792380Y50528096D01*
X46840000Y50623334D01*
X46935238Y50718572D01*
X47125714Y50766191D01*
X47459047Y50766191D01*
X47649523Y50718572D01*
X47744761Y50623334D01*
X47792380Y50528096D01*
X47792380Y50337620D01*
X47744761Y50242381D01*
X47649523Y50147143D01*
X47459047Y50099524D01*
X47125714Y50099524D01*
X46935238Y50147143D01*
X46840000Y50242381D01*
X46792380Y50337620D01*
X46792380Y51051905D02*
X46792380Y51623334D01*
X47792380Y51337620D02*
X46792380Y51337620D01*
X46792380Y52385239D02*
X46792380Y52194762D01*
X46840000Y52099524D01*
X46887619Y52051905D01*
X47030476Y51956667D01*
X47220952Y51909048D01*
X47601904Y51909048D01*
X47697142Y51956667D01*
X47744761Y52004286D01*
X47792380Y52099524D01*
X47792380Y52290000D01*
X47744761Y52385239D01*
X47697142Y52432858D01*
X47601904Y52480477D01*
X47363809Y52480477D01*
X47268571Y52432858D01*
X47220952Y52385239D01*
X47173333Y52290000D01*
X47173333Y52099524D01*
X47220952Y52004286D01*
X47268571Y51956667D01*
X47363809Y51909048D01*
X32792380Y49147143D02*
X31792380Y49147143D01*
X31792380Y49528096D01*
X31840000Y49623334D01*
X31887619Y49670953D01*
X31982857Y49718572D01*
X32125714Y49718572D01*
X32220952Y49670953D01*
X32268571Y49623334D01*
X32316190Y49528096D01*
X32316190Y49147143D01*
X31792380Y50337620D02*
X31792380Y50528096D01*
X31840000Y50623334D01*
X31935238Y50718572D01*
X32125714Y50766191D01*
X32459047Y50766191D01*
X32649523Y50718572D01*
X32744761Y50623334D01*
X32792380Y50528096D01*
X32792380Y50337620D01*
X32744761Y50242381D01*
X32649523Y50147143D01*
X32459047Y50099524D01*
X32125714Y50099524D01*
X31935238Y50147143D01*
X31840000Y50242381D01*
X31792380Y50337620D01*
X31792380Y51051905D02*
X31792380Y51623334D01*
X32792380Y51337620D02*
X31792380Y51337620D01*
X31792380Y51861429D02*
X31792380Y52528096D01*
X32792380Y52099524D01*
X17792380Y49147143D02*
X16792380Y49147143D01*
X16792380Y49528096D01*
X16840000Y49623334D01*
X16887619Y49670953D01*
X16982857Y49718572D01*
X17125714Y49718572D01*
X17220952Y49670953D01*
X17268571Y49623334D01*
X17316190Y49528096D01*
X17316190Y49147143D01*
X16792380Y50337620D02*
X16792380Y50528096D01*
X16840000Y50623334D01*
X16935238Y50718572D01*
X17125714Y50766191D01*
X17459047Y50766191D01*
X17649523Y50718572D01*
X17744761Y50623334D01*
X17792380Y50528096D01*
X17792380Y50337620D01*
X17744761Y50242381D01*
X17649523Y50147143D01*
X17459047Y50099524D01*
X17125714Y50099524D01*
X16935238Y50147143D01*
X16840000Y50242381D01*
X16792380Y50337620D01*
X16792380Y51051905D02*
X16792380Y51623334D01*
X17792380Y51337620D02*
X16792380Y51337620D01*
X16792380Y52432858D02*
X16792380Y51956667D01*
X17268571Y51909048D01*
X17220952Y51956667D01*
X17173333Y52051905D01*
X17173333Y52290000D01*
X17220952Y52385239D01*
X17268571Y52432858D01*
X17363809Y52480477D01*
X17601904Y52480477D01*
X17697142Y52432858D01*
X17744761Y52385239D01*
X17792380Y52290000D01*
X17792380Y52051905D01*
X17744761Y51956667D01*
X17697142Y51909048D01*
X72574285Y64797620D02*
X72574285Y65797620D01*
X72955238Y65797620D01*
X73050476Y65750000D01*
X73098095Y65702381D01*
X73145714Y65607143D01*
X73145714Y65464286D01*
X73098095Y65369048D01*
X73050476Y65321429D01*
X72955238Y65273810D01*
X72574285Y65273810D01*
X73526666Y64845239D02*
X73669523Y64797620D01*
X73907619Y64797620D01*
X74002857Y64845239D01*
X74050476Y64892858D01*
X74098095Y64988096D01*
X74098095Y65083334D01*
X74050476Y65178572D01*
X74002857Y65226191D01*
X73907619Y65273810D01*
X73717142Y65321429D01*
X73621904Y65369048D01*
X73574285Y65416667D01*
X73526666Y65511905D01*
X73526666Y65607143D01*
X73574285Y65702381D01*
X73621904Y65750000D01*
X73717142Y65797620D01*
X73955238Y65797620D01*
X74098095Y65750000D01*
X74431428Y65797620D02*
X74669523Y64797620D01*
X74860000Y65511905D01*
X75050476Y64797620D01*
X75288571Y65797620D01*
X76193333Y64797620D02*
X75621904Y64797620D01*
X75907619Y64797620D02*
X75907619Y65797620D01*
X75812380Y65654762D01*
X75717142Y65559524D01*
X75621904Y65511905D01*
X7654761Y7166667D02*
X7702380Y7309524D01*
X7702380Y7547620D01*
X7654761Y7642858D01*
X7607142Y7690477D01*
X7511904Y7738096D01*
X7416666Y7738096D01*
X7321428Y7690477D01*
X7273809Y7642858D01*
X7226190Y7547620D01*
X7178571Y7357143D01*
X7130952Y7261905D01*
X7083333Y7214286D01*
X6988095Y7166667D01*
X6892857Y7166667D01*
X6797619Y7214286D01*
X6750000Y7261905D01*
X6702380Y7357143D01*
X6702380Y7595239D01*
X6750000Y7738096D01*
X6702380Y8071429D02*
X7702380Y8309524D01*
X6988095Y8500000D01*
X7702380Y8690477D01*
X6702380Y8928572D01*
X7702380Y9833334D02*
X7702380Y9261905D01*
X7702380Y9547620D02*
X6702380Y9547620D01*
X6845238Y9452381D01*
X6940476Y9357143D01*
X6988095Y9261905D01*
X18654761Y7166667D02*
X18702380Y7309524D01*
X18702380Y7547620D01*
X18654761Y7642858D01*
X18607142Y7690477D01*
X18511904Y7738096D01*
X18416666Y7738096D01*
X18321428Y7690477D01*
X18273809Y7642858D01*
X18226190Y7547620D01*
X18178571Y7357143D01*
X18130952Y7261905D01*
X18083333Y7214286D01*
X17988095Y7166667D01*
X17892857Y7166667D01*
X17797619Y7214286D01*
X17750000Y7261905D01*
X17702380Y7357143D01*
X17702380Y7595239D01*
X17750000Y7738096D01*
X17702380Y8071429D02*
X18702380Y8309524D01*
X17988095Y8500000D01*
X18702380Y8690477D01*
X17702380Y8928572D01*
X17797619Y9261905D02*
X17750000Y9309524D01*
X17702380Y9404762D01*
X17702380Y9642858D01*
X17750000Y9738096D01*
X17797619Y9785715D01*
X17892857Y9833334D01*
X17988095Y9833334D01*
X18130952Y9785715D01*
X18702380Y9214286D01*
X18702380Y9833334D01*
X29654761Y7166667D02*
X29702380Y7309524D01*
X29702380Y7547620D01*
X29654761Y7642858D01*
X29607142Y7690477D01*
X29511904Y7738096D01*
X29416666Y7738096D01*
X29321428Y7690477D01*
X29273809Y7642858D01*
X29226190Y7547620D01*
X29178571Y7357143D01*
X29130952Y7261905D01*
X29083333Y7214286D01*
X28988095Y7166667D01*
X28892857Y7166667D01*
X28797619Y7214286D01*
X28750000Y7261905D01*
X28702380Y7357143D01*
X28702380Y7595239D01*
X28750000Y7738096D01*
X28702380Y8071429D02*
X29702380Y8309524D01*
X28988095Y8500000D01*
X29702380Y8690477D01*
X28702380Y8928572D01*
X28702380Y9214286D02*
X28702380Y9833334D01*
X29083333Y9500000D01*
X29083333Y9642858D01*
X29130952Y9738096D01*
X29178571Y9785715D01*
X29273809Y9833334D01*
X29511904Y9833334D01*
X29607142Y9785715D01*
X29654761Y9738096D01*
X29702380Y9642858D01*
X29702380Y9357143D01*
X29654761Y9261905D01*
X29607142Y9214286D01*
X40654761Y7166667D02*
X40702380Y7309524D01*
X40702380Y7547620D01*
X40654761Y7642858D01*
X40607142Y7690477D01*
X40511904Y7738096D01*
X40416666Y7738096D01*
X40321428Y7690477D01*
X40273809Y7642858D01*
X40226190Y7547620D01*
X40178571Y7357143D01*
X40130952Y7261905D01*
X40083333Y7214286D01*
X39988095Y7166667D01*
X39892857Y7166667D01*
X39797619Y7214286D01*
X39750000Y7261905D01*
X39702380Y7357143D01*
X39702380Y7595239D01*
X39750000Y7738096D01*
X39702380Y8071429D02*
X40702380Y8309524D01*
X39988095Y8500000D01*
X40702380Y8690477D01*
X39702380Y8928572D01*
X40035714Y9738096D02*
X40702380Y9738096D01*
X39654761Y9500000D02*
X40369047Y9261905D01*
X40369047Y9880953D01*
X51654761Y7166667D02*
X51702380Y7309524D01*
X51702380Y7547620D01*
X51654761Y7642858D01*
X51607142Y7690477D01*
X51511904Y7738096D01*
X51416666Y7738096D01*
X51321428Y7690477D01*
X51273809Y7642858D01*
X51226190Y7547620D01*
X51178571Y7357143D01*
X51130952Y7261905D01*
X51083333Y7214286D01*
X50988095Y7166667D01*
X50892857Y7166667D01*
X50797619Y7214286D01*
X50750000Y7261905D01*
X50702380Y7357143D01*
X50702380Y7595239D01*
X50750000Y7738096D01*
X50702380Y8071429D02*
X51702380Y8309524D01*
X50988095Y8500000D01*
X51702380Y8690477D01*
X50702380Y8928572D01*
X50702380Y9785715D02*
X50702380Y9309524D01*
X51178571Y9261905D01*
X51130952Y9309524D01*
X51083333Y9404762D01*
X51083333Y9642858D01*
X51130952Y9738096D01*
X51178571Y9785715D01*
X51273809Y9833334D01*
X51511904Y9833334D01*
X51607142Y9785715D01*
X51654761Y9738096D01*
X51702380Y9642858D01*
X51702380Y9404762D01*
X51654761Y9309524D01*
X51607142Y9261905D01*
X62654761Y7166667D02*
X62702380Y7309524D01*
X62702380Y7547620D01*
X62654761Y7642858D01*
X62607142Y7690477D01*
X62511904Y7738096D01*
X62416666Y7738096D01*
X62321428Y7690477D01*
X62273809Y7642858D01*
X62226190Y7547620D01*
X62178571Y7357143D01*
X62130952Y7261905D01*
X62083333Y7214286D01*
X61988095Y7166667D01*
X61892857Y7166667D01*
X61797619Y7214286D01*
X61750000Y7261905D01*
X61702380Y7357143D01*
X61702380Y7595239D01*
X61750000Y7738096D01*
X61702380Y8071429D02*
X62702380Y8309524D01*
X61988095Y8500000D01*
X62702380Y8690477D01*
X61702380Y8928572D01*
X61702380Y9738096D02*
X61702380Y9547620D01*
X61750000Y9452381D01*
X61797619Y9404762D01*
X61940476Y9309524D01*
X62130952Y9261905D01*
X62511904Y9261905D01*
X62607142Y9309524D01*
X62654761Y9357143D01*
X62702380Y9452381D01*
X62702380Y9642858D01*
X62654761Y9738096D01*
X62607142Y9785715D01*
X62511904Y9833334D01*
X62273809Y9833334D01*
X62178571Y9785715D01*
X62130952Y9738096D01*
X62083333Y9642858D01*
X62083333Y9452381D01*
X62130952Y9357143D01*
X62178571Y9309524D01*
X62273809Y9261905D01*
X73654761Y7166667D02*
X73702380Y7309524D01*
X73702380Y7547620D01*
X73654761Y7642858D01*
X73607142Y7690477D01*
X73511904Y7738096D01*
X73416666Y7738096D01*
X73321428Y7690477D01*
X73273809Y7642858D01*
X73226190Y7547620D01*
X73178571Y7357143D01*
X73130952Y7261905D01*
X73083333Y7214286D01*
X72988095Y7166667D01*
X72892857Y7166667D01*
X72797619Y7214286D01*
X72750000Y7261905D01*
X72702380Y7357143D01*
X72702380Y7595239D01*
X72750000Y7738096D01*
X72702380Y8071429D02*
X73702380Y8309524D01*
X72988095Y8500000D01*
X73702380Y8690477D01*
X72702380Y8928572D01*
X72702380Y9214286D02*
X72702380Y9880953D01*
X73702380Y9452381D01*
X84654761Y7166667D02*
X84702380Y7309524D01*
X84702380Y7547620D01*
X84654761Y7642858D01*
X84607142Y7690477D01*
X84511904Y7738096D01*
X84416666Y7738096D01*
X84321428Y7690477D01*
X84273809Y7642858D01*
X84226190Y7547620D01*
X84178571Y7357143D01*
X84130952Y7261905D01*
X84083333Y7214286D01*
X83988095Y7166667D01*
X83892857Y7166667D01*
X83797619Y7214286D01*
X83750000Y7261905D01*
X83702380Y7357143D01*
X83702380Y7595239D01*
X83750000Y7738096D01*
X83702380Y8071429D02*
X84702380Y8309524D01*
X83988095Y8500000D01*
X84702380Y8690477D01*
X83702380Y8928572D01*
X84130952Y9452381D02*
X84083333Y9357143D01*
X84035714Y9309524D01*
X83940476Y9261905D01*
X83892857Y9261905D01*
X83797619Y9309524D01*
X83750000Y9357143D01*
X83702380Y9452381D01*
X83702380Y9642858D01*
X83750000Y9738096D01*
X83797619Y9785715D01*
X83892857Y9833334D01*
X83940476Y9833334D01*
X84035714Y9785715D01*
X84083333Y9738096D01*
X84130952Y9642858D01*
X84130952Y9452381D01*
X84178571Y9357143D01*
X84226190Y9309524D01*
X84321428Y9261905D01*
X84511904Y9261905D01*
X84607142Y9309524D01*
X84654761Y9357143D01*
X84702380Y9452381D01*
X84702380Y9642858D01*
X84654761Y9738096D01*
X84607142Y9785715D01*
X84511904Y9833334D01*
X84321428Y9833334D01*
X84226190Y9785715D01*
X84178571Y9738096D01*
X84130952Y9642858D01*
M02*
